<svg width="22" height="22" viewBox="0 0 22 22" fill="none" xmlns="http://www.w3.org/2000/svg">
<path d="M14.8182 9.22175H20V3.88702M20 9.22175L15.9927 5.34518C15.0645 4.38912 13.9162 3.69071 12.6549 3.31511C11.3937 2.93952 10.0605 2.89898 8.77988 3.19729C7.49927 3.4956 6.31292 4.12302 5.33154 5.02102C4.35016 5.91902 3.60574 7.05833 3.16773 8.33263M6.18182 12.7782H1V18.113M1 12.7782L5.00727 16.6548C5.93546 17.6109 7.08378 18.3093 8.34506 18.6849C9.60635 19.0605 10.9395 19.101 12.2201 18.8027C13.5007 18.5044 14.6871 17.877 15.6685 16.979C16.6498 16.081 17.3943 14.9417 17.8323 13.6674" stroke="#0E1829" stroke-width="0.8" stroke-linecap="round" stroke-linejoin="round"/>
</svg>
