<svg width="40" height="40" viewBox="0 0 40 40" fill="none" xmlns="http://www.w3.org/2000/svg">
<path fill-rule="evenodd" clip-rule="evenodd" d="M7.0364 32.9636C5.49604 31.4233 5.05413 29.0737 5.5372 25.9907C3.01565 24.1523 1.66669 22.1784 1.66669 20C1.66669 17.8216 3.01565 15.8477 5.5372 14.0093C5.05413 10.9264 5.49604 8.57675 7.0364 7.0364C8.57675 5.49604 10.9264 5.05413 14.0093 5.5372C15.8477 3.01565 17.8216 1.66669 20 1.66669C22.1784 1.66669 24.1523 3.01565 25.9907 5.5372C29.0737 5.05413 31.4233 5.49604 32.9636 7.0364C34.504 8.57675 34.9459 10.9264 34.4628 14.0093C36.9844 15.8477 38.3334 17.8216 38.3334 20C38.3334 22.1784 36.9844 24.1523 34.4628 25.9907C34.9459 29.0737 34.504 31.4233 32.9636 32.9636C31.4233 34.504 29.0737 34.9459 25.9907 34.4628C24.1523 36.9844 22.1784 38.3334 20 38.3334C17.8216 38.3334 15.8477 36.9844 14.0093 34.4628C10.9264 34.9459 8.57675 34.504 7.0364 32.9636ZM14.421 30.9967C15.0975 30.8518 15.7933 31.1399 16.1692 31.7208C17.6371 33.9888 18.9461 35 20 35C21.054 35 22.3629 33.9888 23.8309 31.7208C24.2068 31.1399 24.9025 30.8518 25.5791 30.9967C28.2208 31.5624 29.8614 31.3519 30.6066 30.6066C31.3519 29.8614 31.5624 28.2208 30.9967 25.5791C30.8518 24.9025 31.1399 24.2068 31.7208 23.8309C33.9888 22.3629 35 21.054 35 20C35 18.9461 33.9888 17.6371 31.7208 16.1692C31.1399 15.7933 30.8518 15.0975 30.9967 14.421C31.5624 11.7793 31.3519 10.1387 30.6066 9.39342C29.8614 8.64817 28.2208 8.43762 25.5791 9.00338C24.9025 9.14827 24.2068 8.8601 23.8309 8.27925C22.3629 6.01122 21.054 5.00002 20 5.00002C18.9461 5.00002 17.6371 6.01122 16.1692 8.27925C15.7933 8.8601 15.0975 9.14827 14.421 9.00338C11.7793 8.43762 10.1387 8.64817 9.39342 9.39342C8.64817 10.1387 8.43762 11.7793 9.00338 14.421C9.14827 15.0975 8.8601 15.7933 8.27925 16.1692C6.01122 17.6371 5.00002 18.9461 5.00002 20C5.00002 21.054 6.01122 22.3629 8.27925 23.8309C8.8601 24.2068 9.14827 24.9025 9.00338 25.5791C8.43762 28.2208 8.64817 29.8614 9.39342 30.6066C10.1387 31.3519 11.7793 31.5624 14.421 30.9967ZM18.3334 20.9763L25.4882 13.8215L27.8452 16.1785L18.3334 25.6904L12.1548 19.5119L14.5119 17.1548L18.3334 20.9763Z" fill="#0E1829"/>
</svg>
