<svg width="40" height="40" viewBox="0 0 40 40" fill="none" xmlns="http://www.w3.org/2000/svg">
<path d="M13.2308 7.17957C12.0979 7.17957 11.1795 8.09797 11.1795 9.23085C11.1795 10.3637 12.0979 11.2821 13.2308 11.2821C14.3637 11.2821 15.2821 10.3637 15.2821 9.23085C15.2821 8.09797 14.3637 7.17957 13.2308 7.17957Z" fill="#0E1829"/>
<path d="M11.1795 23.5897C11.1795 22.4568 12.0979 21.5385 13.2308 21.5385C14.3637 21.5385 15.2821 22.4568 15.2821 23.5897C15.2821 24.7227 14.3637 25.641 13.2308 25.641C12.0979 25.641 11.1795 24.7227 11.1795 23.5897Z" fill="#0E1829"/>
<path d="M13.2308 14.359C12.0979 14.359 11.1795 15.2774 11.1795 16.4103C11.1795 17.5432 12.0979 18.4616 13.2308 18.4616C14.3637 18.4616 15.2821 17.5432 15.2821 16.4103C15.2821 15.2774 14.3637 14.359 13.2308 14.359Z" fill="#0E1829"/>
<path d="M18.359 9.23085C18.359 8.09797 19.2774 7.17957 20.4103 7.17957C21.5432 7.17957 22.4616 8.09797 22.4616 9.23085C22.4616 10.3637 21.5432 11.2821 20.4103 11.2821C19.2774 11.2821 18.359 10.3637 18.359 9.23085Z" fill="#0E1829"/>
<path d="M20.4103 21.5385C19.2774 21.5385 18.359 22.4568 18.359 23.5897C18.359 24.7227 19.2774 25.641 20.4103 25.641C21.5432 25.641 22.4616 24.7227 22.4616 23.5897C22.4616 22.4568 21.5432 21.5385 20.4103 21.5385Z" fill="#0E1829"/>
<path d="M25.5385 23.5897C25.5385 22.4568 26.4568 21.5385 27.5897 21.5385C28.7227 21.5385 29.641 22.4568 29.641 23.5897C29.641 24.7227 28.7227 25.641 27.5897 25.641C26.4568 25.641 25.5385 24.7227 25.5385 23.5897Z" fill="#0E1829"/>
<path d="M20.4103 14.359C19.2774 14.359 18.359 15.2774 18.359 16.4103C18.359 17.5432 19.2774 18.4616 20.4103 18.4616C21.5432 18.4616 22.4616 17.5432 22.4616 16.4103C22.4616 15.2774 21.5432 14.359 20.4103 14.359Z" fill="#0E1829"/>
<path d="M8.61538 0C6.06638 0 4 2.06638 4 4.61539V38.4615C4 39.3112 4.6888 40 5.53846 40H35.2878C36.1374 40 36.8263 39.3112 36.8263 38.4615V19.9986C36.8263 17.4496 34.7598 15.3832 32.2109 15.3832H29.641V4.61539C29.641 2.06638 27.5746 0 25.0256 0H8.61538ZM7.07692 4.61539C7.07692 3.76572 7.76572 3.07692 8.61538 3.07692H25.0256C25.8753 3.07692 26.5641 3.76572 26.5641 4.61539V16.9216C26.5641 17.7713 27.2529 18.4601 28.1026 18.4601H32.2109C33.0605 18.4601 33.7493 19.1489 33.7493 19.9986V36.9231H29.641V31.2821C29.641 30.4324 28.9522 29.7436 28.1026 29.7436H12.7179C11.8683 29.7436 11.1795 30.4324 11.1795 31.2821V36.9231H7.07692V4.61539ZM26.5641 32.8205V36.9231H21.9487V32.8205H26.5641ZM18.8718 32.8205V36.9231H14.2564V32.8205H18.8718Z" fill="#0E1829"/>
</svg>
