<svg width="268" height="296" viewBox="0 0 268 296" fill="none" xmlns="http://www.w3.org/2000/svg">
<path d="M107.472 89.2345C102.189 59.3559 105.744 27.9469 117.588 0C136.193 27.2947 149.914 57.9259 157.902 90.0122C167.167 67.0826 180.437 45.7838 196.939 27.3699C206.704 62.8429 195.461 100.348 184.294 135.42C208.532 124.306 232.77 113.193 257.009 102.104C259.988 100.724 263.82 99.47 266.299 101.627C269.554 104.462 267.075 109.781 264.32 113.142C249.822 130.929 231.869 145.856 211.762 156.844C229.04 176.362 245.365 196.707 260.64 217.83C264.346 222.948 267.701 230.851 262.743 234.764C258.712 237.95 252.852 235.191 248.545 232.381C223.981 216.476 199.418 200.571 174.854 184.665C180.938 217.454 182.691 251.021 180.037 284.261C179.711 288.4 178.685 293.367 174.779 294.747C170.372 296.277 166.265 291.988 163.661 288.124C142.978 257.669 128.455 223.049 121.194 186.948C110.827 212.387 97.8066 236.746 82.4072 259.475C78.5761 265.17 72.1409 271.466 65.9561 268.531C59.6211 265.496 60.6979 256.214 62.9264 249.54C71.7905 223.023 82.7579 197.234 95.7285 172.498C74.1443 188.153 46.8008 197.159 20.5592 192.543C14.6498 191.514 7.71389 188.479 7.28821 182.483C6.86254 176.387 13.448 172.473 19.0569 170.09C45.1983 158.901 71.3397 147.712 97.4811 136.549C66.1816 137.376 34.7067 127.091 9.89243 107.949C4.03315 103.434 -2.02645 96.3842 0.652792 89.4853C2.98148 83.4895 10.4432 81.6582 16.8283 80.8805C55.2141 76.2896 94.5516 80.0526 131.385 91.7933" fill="#F1BE56"/>
<path d="M198.91 93.0752L131.414 119.062C107.163 128.399 101.185 160.331 120.662 176.482L175.126 221.641C194.604 237.792 224.881 225.996 229.557 200.443L242.591 129.299C247.251 103.859 223.981 83.4328 198.927 93.0913" fill="#5690F4"/>
<path d="M198.91 93.0751L131.414 119.061C107.163 128.398 101.185 160.331 120.662 176.482L175.126 221.641C194.604 237.792 224.881 225.996 229.557 200.443L242.591 129.298C247.251 103.859 223.981 83.4327 198.927 93.0912L198.91 93.0751Z" stroke="black" stroke-width="3.0695" stroke-linejoin="round"/>
<path d="M93.938 122.565C100.752 137.414 107.566 152.264 114.38 167.113C115.553 169.668 116.839 172.352 119.153 173.959C121.467 175.55 125.163 175.502 126.658 173.123C127.895 171.147 127.172 168.591 126.385 166.406C121.113 151.797 114.396 137.752 106.827 124.188C105.525 121.874 103.95 119.367 101.395 118.676C98.5503 117.904 95.6736 119.704 93.3916 121.569" fill="white"/>
<path d="M93.938 122.565C100.752 137.414 107.566 152.264 114.38 167.113C115.553 169.668 116.839 172.352 119.153 173.959C121.467 175.55 125.163 175.502 126.658 173.123C127.895 171.147 127.172 168.591 126.385 166.406C121.113 151.797 114.396 137.752 106.827 124.188C105.525 121.874 103.95 119.367 101.395 118.676C98.5503 117.904 95.6736 119.704 93.3916 121.569" stroke="black" stroke-width="3.0695" stroke-miterlimit="10" stroke-linecap="round"/>
<path d="M118.863 179.937C108.353 192.456 97.8585 204.975 88.1357 218.362C103.531 208.784 117.931 197.631 130.819 184.807C130.482 182.235 128.602 179.921 126.159 179.053C123.716 178.185 120.807 178.796 118.911 180.58" fill="white"/>
<path d="M118.863 179.937C108.353 192.456 97.8585 204.975 88.1357 218.362C103.531 208.784 117.931 197.631 130.819 184.807C130.482 182.235 128.602 179.921 126.159 179.053C123.716 178.185 120.807 178.796 118.911 180.58" stroke="black" stroke-width="3.0695" stroke-linecap="round" stroke-linejoin="round"/>
<path d="M127.236 189.628C138.373 198.772 149.526 207.916 160.583 216.289C161.901 214.601 163.219 212.914 164.36 211.371C152.998 203.255 142.118 194.481 131.479 185.063C130.081 186.446 128.667 187.828 127.269 189.21" fill="white"/>
<path d="M127.236 189.628C138.373 198.772 149.526 207.916 160.583 216.289C161.901 214.601 163.219 212.914 164.36 211.371C152.998 203.255 142.118 194.481 131.479 185.063C130.081 186.446 128.667 187.828 127.269 189.21" stroke="black" stroke-width="3.0695" stroke-linecap="round" stroke-linejoin="round"/>
<path d="M125.966 190.817C126.85 195.092 127.75 199.367 129.164 204.509C131.43 205.168 133.615 206.02 135.721 207.081C135.206 203.063 134.29 199.11 132.474 194.915C131.012 192.762 128.939 191.026 126.56 189.949" fill="white"/>
<path d="M125.966 190.817C126.85 195.092 127.75 199.367 129.164 204.509C131.43 205.168 133.615 206.02 135.721 207.081C135.206 203.063 134.29 199.11 132.474 194.915C131.012 192.762 128.939 191.026 126.56 189.949" stroke="black" stroke-width="3.0695" stroke-linecap="round" stroke-linejoin="round"/>
<path d="M137.569 245.345C135.014 250.278 132.298 255.132 129.325 260.419C131.077 260.596 132.829 260.773 134.58 260.949C137.714 256.578 140.494 251.966 142.889 247.145C141.089 246.245 139.289 245.345 137.489 244.445" fill="white"/>
<path d="M137.569 245.345C135.014 250.278 132.298 255.132 129.325 260.419C131.077 260.596 132.829 260.773 134.58 260.949C137.714 256.578 140.494 251.966 142.889 247.145C141.089 246.245 139.289 245.345 137.489 244.445" stroke="black" stroke-width="3.0695" stroke-linecap="round" stroke-linejoin="round"/>
<path d="M129.648 260.162C125.63 260.226 121.629 260.275 117.37 260.355C117.37 262.621 117.595 264.887 118.109 267.844C124.489 267.458 130.837 266.751 137.266 265.562C137.346 263.73 137.201 261.898 136.526 259.985C133.441 260.114 130.371 260.242 127.286 260.371" fill="white"/>
<path d="M129.648 260.162C125.63 260.226 121.629 260.275 117.37 260.355C117.37 262.621 117.595 264.887 118.109 267.844C124.489 267.458 130.837 266.751 137.266 265.562C137.346 263.73 137.201 261.898 136.526 259.985C133.441 260.114 130.371 260.242 127.286 260.371" stroke="black" stroke-width="3.0695" stroke-linecap="round" stroke-linejoin="round"/>
<path d="M107.485 214.57C119.12 225.514 130.755 236.458 142.792 247.788C143.901 246.309 145.187 244.96 146.472 243.32C136.364 231.332 125.388 220.05 113.206 209.411C110.603 210.054 108.24 211.709 106.762 213.959" fill="white"/>
<path d="M107.485 214.57C119.12 225.514 130.755 236.458 142.792 247.788C143.901 246.309 145.187 244.96 146.472 243.32C136.364 231.332 125.388 220.05 113.206 209.411C110.603 210.054 108.24 211.709 106.762 213.959" stroke="black" stroke-width="3.0695" stroke-linecap="round" stroke-linejoin="round"/>
<path d="M113.383 209.427C116.726 207.418 120.133 205.377 123.941 204.493C127.734 203.625 132.073 204.091 134.998 206.662C137.135 208.527 138.292 211.307 138.742 214.119C139.192 216.915 138.984 219.776 138.919 222.476C138.598 221.946 138.887 221.206 139.401 220.853C139.916 220.515 140.591 220.483 141.201 220.596C142.439 220.821 143.548 221.512 144.56 222.251C147.051 224.083 149.188 226.333 151.342 228.551C151.342 228.567 151.342 228.599 151.535 228.808C150.024 232.697 147.887 236.345 144.962 240.089C136.284 228.165 125.404 217.831 113.062 209.78" fill="white"/>
<path d="M113.383 209.427C116.726 207.418 120.133 205.377 123.941 204.493C127.734 203.625 132.073 204.091 134.998 206.662C137.135 208.527 138.292 211.307 138.742 214.119C139.192 216.915 138.984 219.776 138.919 222.476C138.598 221.946 138.887 221.206 139.401 220.853C139.916 220.515 140.591 220.483 141.201 220.596C142.439 220.821 143.548 221.512 144.56 222.251C147.051 224.083 149.188 226.333 151.342 228.551C151.342 228.567 151.342 228.599 151.535 228.808C150.024 232.697 147.887 236.345 144.962 240.089C136.284 228.165 125.404 217.831 113.062 209.78" stroke="black" stroke-width="3.0695" stroke-linecap="round" stroke-linejoin="round"/>
<path d="M137.281 244.108C135.738 248.157 133.954 252.111 131.929 255.936C131.383 256.98 130.788 258.057 129.824 258.732C128.683 259.568 127.205 259.728 125.79 259.857C118.093 260.5 110.363 260.548 102.665 259.953C101.524 259.873 100.254 259.696 99.5471 258.812C98.4222 257.414 99.6917 249.266 98.6953 247.772C107.197 244.975 112.757 241.392 117.884 233.646C121.612 237.101 126.739 244.397 130.098 248.382C129.76 247.74 129.423 247.081 129.085 246.438C131.447 244.991 133.954 243.77 136.542 242.806" fill="white"/>
<path d="M137.281 244.108C135.738 248.157 133.954 252.111 131.929 255.936C131.383 256.98 130.788 258.057 129.824 258.732C128.683 259.568 127.205 259.728 125.79 259.857C118.093 260.5 110.363 260.548 102.665 259.953C101.524 259.873 100.254 259.696 99.5471 258.812C98.4222 257.414 99.6917 249.266 98.6953 247.772C107.197 244.975 112.757 241.392 117.884 233.646C121.612 237.101 126.739 244.397 130.098 248.382C129.76 247.74 129.423 247.081 129.085 246.438C131.447 244.991 133.954 243.77 136.542 242.806" stroke="black" stroke-width="3.0695" stroke-linecap="round" stroke-linejoin="round"/>
<path d="M146.842 244.542C146.649 249.556 146.456 254.57 146.247 259.584C143.242 259.825 140.205 259.761 136.975 259.198C139.337 253.959 142.342 249.01 145.894 244.494" fill="white"/>
<path d="M146.842 244.542C146.649 249.556 146.456 254.57 146.247 259.584C143.242 259.825 140.205 259.761 136.975 259.198C139.337 253.959 142.342 249.01 145.894 244.494" stroke="black" stroke-width="3.0695" stroke-linecap="round" stroke-linejoin="round"/>
<path d="M200.776 180.982C187.92 180.628 175.449 176.627 163.492 171.854C151.552 167.097 139.868 161.536 127.542 157.888C121.58 156.12 115.103 154.819 109.205 156.811C106.923 157.583 104.722 158.933 103.484 160.99C102.247 163.063 102.199 165.94 103.902 168.045C106.281 165.763 109.045 163.883 112.05 162.5C108.932 163.288 106.216 165.538 104.834 168.431C104.207 169.748 103.854 171.291 104.352 172.673C104.866 174.039 106.473 175.052 107.823 174.505C108.723 174.136 109.254 173.252 109.816 172.464C111.536 170.07 114.011 168.238 116.807 167.289C115.055 168.045 113.336 168.945 111.937 170.23C110.539 171.516 109.463 173.252 109.254 175.148C109.045 177.044 109.816 179.101 111.407 180.146C112.998 181.207 115.393 181.014 116.598 179.519C117.498 178.426 117.627 176.916 118.125 175.582C119.169 172.786 122.046 170.793 124.955 170.873C134.79 179.278 146.264 185.61 158.253 190.463C170.242 195.317 182.777 198.724 195.377 201.665" fill="#5690F4"/>
<path d="M200.775 180.982C174.708 180.226 151.984 165.136 127.541 157.888C121.578 156.12 115.102 154.819 109.204 156.811C104.479 158.081 100.333 163.465 103.901 168.061C106.279 165.779 109.043 163.899 112.048 162.516C108.931 163.304 106.215 165.554 104.833 168.447C104.206 169.764 103.852 171.307 104.351 172.689C104.865 174.055 106.472 175.068 107.822 174.521C108.722 174.152 109.252 173.268 109.815 172.48C111.534 170.086 114.009 168.254 116.805 167.306C113.382 168.704 109.702 171.211 109.252 175.18C108.625 179.31 113.415 182.894 116.597 179.551C117.496 178.459 117.625 176.948 118.123 175.614C119.168 172.818 122.045 170.825 124.953 170.905C144.785 187.844 170.337 195.895 195.375 201.697" stroke="black" stroke-width="3.0695" stroke-linecap="round" stroke-linejoin="round"/>
<path d="M164.487 109.998C165.403 104.855 163.057 99.4392 159.136 96.0001C155.214 92.561 149.911 90.9379 144.688 90.8093C135.946 90.5843 127.332 94.377 120.952 100.371C114.572 106.366 110.345 114.417 108.127 122.87C108.127 121.858 107.356 120.958 106.424 120.54C105.492 120.122 104.447 120.09 103.435 120.17C99.1437 120.492 95.0135 122.469 92.0726 125.618C90.803 126.984 89.7102 128.72 89.887 130.568C90.0638 132.416 92.0726 134.104 93.76 133.348C95.6242 132.529 96.1706 129.411 98.2116 129.427C96.476 130.874 94.6279 132.465 94.0975 134.666C93.5833 136.868 95.2224 139.664 97.4723 139.343C99.224 139.086 100.22 137.254 100.928 135.63C98.7902 137.961 97.9706 141.4 98.8223 144.437C99.5294 146.944 101.892 149.323 104.431 148.728C106.118 148.342 107.275 146.784 108.047 145.225C108.818 143.666 109.381 141.962 110.586 140.709C111.791 139.455 113.913 138.828 115.263 139.921C116.709 141.078 116.484 143.409 117.657 144.839C118.959 146.43 121.643 146.269 123.169 144.887C124.696 143.521 125.243 141.336 125.243 139.278C125.243 137.221 124.76 135.197 124.6 133.156C124.134 126.952 126.866 120.62 131.655 116.667C132.731 115.783 134.001 114.996 135.383 115.076C137.199 115.189 138.549 116.78 139.529 118.322C140.494 119.865 140.719 119.463 142.808 120.347C150.457 117.422 158.348 114.031 164.76 108.953" fill="#5690F4"/>
<path d="M164.488 109.997C166.32 98.7961 155.071 90.6322 144.689 90.809C126.497 90.3429 112.114 106.028 108.128 122.87C108.128 121.858 107.357 120.958 106.425 120.54C100.832 118.659 89.8396 124.172 89.8879 130.552C90.0646 132.4 92.0734 134.087 93.7608 133.332C95.625 132.512 96.1715 129.395 98.2125 129.411C96.4768 130.857 94.6287 132.448 94.0984 134.65C93.5841 136.851 95.2233 139.648 97.4732 139.326C99.2249 139.069 100.221 137.237 100.928 135.614C98.791 137.944 97.9714 141.383 98.8232 144.421C99.5303 146.928 101.893 149.306 104.432 148.712C108.064 147.763 108.305 143.087 110.587 140.692C111.792 139.439 113.913 138.812 115.263 139.905C116.71 141.062 116.485 143.392 117.658 144.823C118.96 146.414 121.643 146.253 123.17 144.871C126.384 141.849 124.938 136.996 124.601 133.139C124.134 126.936 126.866 120.604 131.656 116.651C132.732 115.767 134.002 114.979 135.384 115.06C137.2 115.172 138.55 116.763 139.53 118.306C140.494 119.849 140.719 119.447 142.809 120.331C150.458 117.406 158.349 114.015 164.761 108.937" stroke="black" stroke-width="3.0695" stroke-linecap="round" stroke-linejoin="round"/>
<path d="M189.541 132.738C188.143 136.803 188.079 141.319 189.348 145.433C190.634 149.548 193.237 153.228 196.709 155.783C201.128 159.045 207.042 160.411 212.313 158.869C217.697 157.294 221.972 152.826 224.013 147.587C226.07 142.316 225.957 136.193 223.515 131.082C221.088 125.972 216.315 121.986 210.803 120.685C205.29 119.383 199.151 120.877 195.085 124.975C194.185 124.14 193.285 123.288 192.257 122.324C195.616 118.081 196.387 111.99 194.378 106.944C192.37 101.914 187.709 98.0731 182.422 96.8678C177.134 95.6625 171.365 97.0446 167.074 100.355C162.783 103.666 160.003 108.808 159.376 114.192C158.83 118.901 159.939 123.883 162.944 127.563C165.933 131.227 170.899 133.38 175.544 132.48C178.95 131.822 181.875 130.407 184.929 128.479C186.504 130.15 187.436 130.472 189.364 131.709" fill="#F4C156"/>
<path d="M189.542 132.737C182.101 155.574 213.76 171.564 224.013 147.603C228.481 136.852 222.406 123.32 210.803 120.717C205.291 119.415 199.152 120.909 195.086 125.007C194.186 124.172 193.286 123.32 192.257 122.356C195.616 118.113 196.388 112.022 194.379 106.976C190.12 96.2088 175.898 93.3 167.075 100.403C159.007 106.51 156.42 119.511 162.945 127.611C169.003 134.955 177.794 133.348 184.945 128.527C186.52 130.198 187.452 130.52 189.381 131.757" stroke="black" stroke-width="3.0695" stroke-linecap="round" stroke-linejoin="round"/>
<path d="M55.9141 217.092C55.9141 198.611 70.7634 183.617 89.0679 183.617C107.372 183.617 122.222 198.611 122.222 217.092C122.222 235.574 107.372 250.568 89.0679 250.568C70.7634 250.568 55.9141 235.574 55.9141 217.092Z" fill="black"/>
<path d="M63.6289 218.378C63.6289 204.605 75.0231 193.436 89.0688 193.436C103.115 193.436 114.509 204.605 114.509 218.378C114.509 232.15 103.115 243.319 89.0688 243.319C75.0231 243.319 63.6289 232.15 63.6289 218.378Z" fill="white"/>
<path d="M89.0688 243.319C103.119 243.319 114.509 232.153 114.509 218.378C114.509 204.603 103.119 193.436 89.0688 193.436C75.0188 193.436 63.6289 204.603 63.6289 218.378C63.6289 232.153 75.0188 243.319 89.0688 243.319Z" stroke="black" stroke-width="3.0695" stroke-miterlimit="10"/>
<path d="M148.787 262.331C148.787 243.85 163.637 228.856 181.941 228.856C200.246 228.856 215.095 243.85 215.095 262.331C215.095 280.812 200.246 295.806 181.941 295.806C163.637 295.806 148.787 280.812 148.787 262.331Z" fill="black"/>
<path d="M156.501 263.922C156.501 250.15 167.895 238.98 181.941 238.98C195.987 238.98 207.381 250.15 207.381 263.922C207.381 277.695 195.987 288.864 181.941 288.864C167.895 288.864 156.501 277.695 156.501 263.922Z" fill="white"/>
<path d="M181.925 288.864C195.975 288.864 207.365 277.697 207.365 263.922C207.365 250.147 195.975 238.98 181.925 238.98C167.875 238.98 156.485 250.147 156.485 263.922C156.485 277.697 167.875 288.864 181.925 288.864Z" stroke="black" stroke-width="3.0695" stroke-miterlimit="10"/>
<path d="M173.391 261.721C173.391 257.543 177.055 254.152 181.587 254.152C186.119 254.152 189.783 257.543 189.783 261.721C189.783 265.9 186.119 269.307 181.587 269.307C177.055 269.307 173.391 265.916 173.391 261.721Z" fill="white"/>
<path d="M173.391 261.721C173.391 257.543 177.055 254.152 181.587 254.152C186.119 254.152 189.783 257.543 189.783 261.721C189.783 265.9 186.119 269.307 181.587 269.307C177.055 269.307 173.391 265.916 173.391 261.721Z" stroke="black" stroke-width="3.0695" stroke-miterlimit="10"/>
<path d="M81.4512 216.288C81.4512 212.11 85.1152 208.719 89.6472 208.719C94.1791 208.719 97.8433 212.11 97.8433 216.288C97.8433 220.466 94.1791 223.873 89.6472 223.873C85.1152 223.873 81.4512 220.483 81.4512 216.288Z" fill="white"/>
<path d="M81.4512 216.288C81.4512 212.11 85.1152 208.719 89.6472 208.719C94.1791 208.719 97.8433 212.11 97.8433 216.288C97.8433 220.466 94.1791 223.873 89.6472 223.873C85.1152 223.873 81.4512 220.483 81.4512 216.288Z" stroke="black" stroke-width="3.0695" stroke-miterlimit="10"/>
<path d="M194.797 139.31C194.797 133.412 199.891 128.623 206.191 128.623C212.491 128.623 217.585 133.412 217.585 139.31C217.585 145.208 212.491 149.997 206.191 149.997C199.891 149.997 194.797 145.208 194.797 139.31Z" fill="black"/>
<path d="M164.873 115.413C164.873 109.515 169.967 104.726 176.267 104.726C182.567 104.726 187.661 109.515 187.661 115.413C187.661 121.311 182.567 126.1 176.267 126.1C169.967 126.1 164.873 121.311 164.873 115.413Z" fill="black"/>
<path d="M172.057 214.713C176.155 230.093 179.771 245.585 182.872 261.19C170 254.279 157.77 248.012 145.331 242.146C150.988 231.411 157.448 221.415 165.002 211.869C167.509 212.142 169.951 213.138 171.944 214.681" stroke="black" stroke-width="3.0695" stroke-linecap="round" stroke-linejoin="round"/>
<path d="M166.77 217.269C160.889 224.356 155.569 231.925 150.925 240.571C159.442 244.926 167.96 249.265 176.783 253.347C173.938 241.15 170.644 229.048 166.867 217.092" stroke="black" stroke-width="3.0695" stroke-linecap="round" stroke-linejoin="round"/>
<path d="M172.683 139.31C173.326 142.958 175.448 147.377 179.546 148.647C181.651 149.306 184.045 149.209 185.877 150.447C187.549 151.555 188.401 153.532 188.947 155.445C189.525 157.486 189.815 159.703 189.204 161.728C188.127 165.28 184.56 167.498 181.024 168.671C174.676 170.792 167.46 170.535 161.546 167.417C155.632 164.3 151.229 158.209 150.715 151.539C150.2 144.87 153.881 137.928 159.955 135.099C162.511 133.91 165.532 133.46 168.184 134.424C170.835 135.388 172.973 137.992 172.892 140.82" fill="black"/>
<path d="M154.187 157.888C158.22 156.056 162.961 155.831 167.156 157.261C171.35 158.692 174.95 161.761 177.023 165.682C177.312 166.229 177.586 166.888 177.328 167.45C177.136 167.916 176.637 168.173 176.171 168.35C174.821 168.832 173.343 168.784 171.913 168.672C168.265 168.366 164.6 167.611 161.37 165.907C158.124 164.204 155.344 161.472 154.074 158.049" fill="white"/>
<path d="M172.218 143.264C171.367 144.453 170.113 145.305 169.084 146.35C168.056 147.394 167.22 148.841 167.526 150.271C167.719 151.187 168.345 151.942 169.036 152.569C169.968 153.421 171.029 154.128 172.186 154.642C172.861 154.948 173.584 155.173 174.307 155.076C175.015 154.98 175.641 154.562 176.123 154.048C176.606 153.533 176.975 152.907 177.329 152.296C177.618 151.782 177.94 151.203 177.795 150.641C177.666 150.142 177.232 149.789 176.847 149.451C174.966 147.876 173.472 145.835 172.508 143.586" fill="white"/>
<path d="M211.961 133.975C207.38 135.967 202.816 137.944 198.236 139.937" stroke="white" stroke-width="3.0695" stroke-miterlimit="10" stroke-linecap="round"/>
<path d="M203.186 142.846C205.484 141.721 207.878 140.805 210.321 140.098" stroke="white" stroke-width="3.0695" stroke-miterlimit="10" stroke-linecap="round"/>
<path d="M169.084 116.844C173.246 114.98 177.537 113.437 181.941 112.231" stroke="white" stroke-width="3.0695" stroke-miterlimit="10" stroke-linecap="round"/>
<path d="M173.746 120.588C176.221 119.238 178.856 118.162 181.589 117.406" stroke="white" stroke-width="3.0695" stroke-miterlimit="10" stroke-linecap="round"/>
<path d="M117.048 176.305C117.048 172.094 120.439 168.688 124.617 168.688C128.796 168.688 132.187 172.094 132.187 176.305C132.187 180.516 128.796 183.922 124.617 183.922C120.439 183.922 117.048 180.516 117.048 176.305Z" fill="black"/>
<path d="M104.479 119.865C104.978 118.532 104.351 116.957 103.226 116.089C102.101 115.221 100.574 115.012 99.1761 115.205C97.7779 115.414 96.4441 115.992 95.1745 116.619C94.1781 117.101 93.1818 117.632 92.4104 118.419C91.639 119.206 91.1247 120.331 91.3015 121.408C91.4783 122.501 92.4907 123.465 93.5996 123.353" fill="black"/>
<path d="M142.535 222.541C143.387 224.517 143.483 226.815 142.792 228.872" stroke="black" stroke-width="3.0695" stroke-linecap="round" stroke-linejoin="round"/>
<path d="M139.53 221.238C140.06 223.263 139.996 225.449 139.369 227.442" stroke="black" stroke-width="3.0695" stroke-linecap="round" stroke-linejoin="round"/>
<path d="M87.2357 193.308C87.0429 192.633 86.8501 191.958 86.6572 191.283C87.3483 197.069 88.0554 202.854 88.7464 208.64" stroke="black" stroke-width="3.0695" stroke-linecap="round" stroke-linejoin="round"/>
<path d="M80.7923 215.084C75.0069 214.731 69.2054 214.377 63.4199 214.023" stroke="black" stroke-width="3.0695" stroke-linecap="round" stroke-linejoin="round"/>
<path d="M84.15 222.17C80.3412 227.12 76.7896 232.263 73.4951 237.566" stroke="black" stroke-width="3.0695" stroke-linecap="round" stroke-linejoin="round"/>
<path d="M93.7939 223.393C97.3295 228.745 100.592 234.273 103.565 239.946" stroke="black" stroke-width="3.0695" stroke-linecap="round" stroke-linejoin="round"/>
<path d="M97.8584 216.225C103.274 216.033 108.706 215.824 114.122 215.631" stroke="black" stroke-width="3.0695" stroke-linecap="round" stroke-linejoin="round"/>
<path d="M201 246.019C196.983 249.86 192.852 253.556 188.594 257.14" stroke="black" stroke-width="3.0695" stroke-linecap="round" stroke-linejoin="round"/>
<path d="M190.12 265.834C195.247 268.566 200.18 271.652 204.873 275.075" stroke="black" stroke-width="3.0695" stroke-linecap="round" stroke-linejoin="round"/>
<path d="M182.085 270.078C183.065 276.346 183.74 282.645 184.11 288.977" stroke="black" stroke-width="3.0695" stroke-linecap="round" stroke-linejoin="round"/>
<path d="M173.375 266.171C168.489 268.068 163.62 269.964 158.734 271.844L173.375 266.171Z" fill="white"/>
<path d="M173.375 266.171C168.489 268.068 163.62 269.964 158.734 271.844" stroke="black" stroke-width="3.0695" stroke-linecap="round" stroke-linejoin="round"/>
<path d="M144.898 240.137C135.448 228.614 124.102 218.651 111.438 210.808C115.376 208.446 119.41 206.051 123.909 205.151C128.409 204.251 133.536 205.119 136.637 208.494C138.518 210.535 139.482 213.299 139.691 216.079C139.9 218.843 139.402 221.624 138.694 224.677C138.791 223.182 139.032 221.415 140.366 220.724C141.475 220.145 142.825 220.611 143.933 221.174C147.34 222.893 150.33 225.448 152.515 228.582L144.785 240.507" fill="white"/>
<path d="M144.898 240.137C135.448 228.614 124.102 218.651 111.438 210.808C115.376 208.446 119.41 206.051 123.909 205.151C128.409 204.251 133.536 205.119 136.637 208.494C138.518 210.535 139.482 213.299 139.691 216.079C139.9 218.843 139.402 221.624 138.694 224.677C138.791 223.182 139.032 221.415 140.366 220.724C141.475 220.145 142.825 220.611 143.933 221.174C147.34 222.893 150.33 225.448 152.515 228.582L144.785 240.507" stroke="black" stroke-width="3.0695" stroke-linecap="round" stroke-linejoin="round"/>
<path d="M111.503 210.39C110.137 211.467 108.787 212.544 107.421 213.605C118.831 224.725 130.257 235.862 141.684 246.983C142.519 245.103 145.026 244.075 145.171 242.017C145.251 240.796 144.432 239.719 143.628 238.803C134.275 228.132 121.804 220.563 112.419 209.924" fill="white"/>
<path d="M111.503 210.39C110.137 211.467 108.787 212.544 107.421 213.605C118.831 224.725 130.257 235.862 141.684 246.983C142.519 245.103 145.026 244.075 145.171 242.017C145.251 240.796 144.432 239.719 143.628 238.803C134.275 228.132 121.804 220.563 112.419 209.924" stroke="black" stroke-width="3.0695" stroke-linecap="round" stroke-linejoin="round"/>
<path d="M142.776 221.977C143.708 224.163 143.95 226.638 143.435 228.952" stroke="black" stroke-width="3.0695" stroke-linecap="round" stroke-linejoin="round"/>
<path d="M99.0801 254.135C110.153 254.456 121.258 254.279 132.314 253.572" stroke="black" stroke-width="3.0695" stroke-linecap="round" stroke-linejoin="round"/>
<path d="M139.948 253.958C141.732 253.685 143.548 253.636 145.348 253.813" stroke="black" stroke-width="3.0695" stroke-linecap="round" stroke-linejoin="round"/>
<path d="M153.238 202.146L145.46 220.242C147.838 222.379 150.201 224.532 152.579 226.67C156.002 220.901 159.184 215.003 162.125 208.976" fill="black"/>
<path d="M139.738 201.312C139.24 207.595 139.545 213.959 140.67 220.162C142.679 220.645 144.672 221.143 146.68 221.625C146.905 217.591 146.905 213.541 146.68 209.524C146.616 208.447 146.536 207.338 146.134 206.326C145.138 203.851 142.518 202.533 140.092 201.424" fill="black"/>
<path d="M165.95 212.721C169.807 225.786 173.182 238.997 176.043 252.319C176.461 254.264 176.878 256.24 177.907 257.96C178.936 259.68 180.671 261.062 182.664 261.126C181.185 244.718 177.409 228.518 171.479 213.155C169.615 212.882 167.734 212.609 165.484 211.917C158.011 220.853 151.535 230.608 145.766 241.166C147.614 242.355 149.462 243.545 151.31 244.734C152.403 240.989 154.46 237.614 156.565 234.336C161.129 227.169 165.902 220.13 170.884 213.235C169.518 212.737 168.136 212.223 166.69 212.191C165.243 212.159 163.7 212.705 162.897 213.91" fill="white"/>
<path d="M165.95 212.721C169.807 225.786 173.182 238.997 176.043 252.319C176.461 254.264 176.878 256.24 177.907 257.96C178.936 259.68 180.671 261.062 182.664 261.126C181.185 244.718 177.409 228.518 171.479 213.155C169.615 212.882 167.734 212.609 165.484 211.917C158.011 220.853 151.535 230.608 145.766 241.166C147.614 242.355 149.462 243.545 151.31 244.734C152.403 240.989 154.46 237.614 156.565 234.336C161.129 227.169 165.902 220.13 170.884 213.235C169.518 212.737 168.136 212.223 166.69 212.191C165.243 212.159 163.7 212.705 162.897 213.91" stroke="black" stroke-width="3.0695" stroke-linecap="round" stroke-linejoin="round"/>
<path d="M151.118 244.863C161.435 251.05 172.202 256.482 183.307 261.095C181.684 259.054 182.857 255.695 181.17 253.718C180.431 252.866 179.306 252.465 178.245 252.079C169.422 248.945 160.953 244.767 153.11 239.672C152.259 241.263 151.391 242.854 150.539 244.429" fill="white"/>
<path d="M151.118 244.863C161.435 251.05 172.202 256.482 183.307 261.095C181.684 259.054 182.857 255.695 181.17 253.718C180.431 252.866 179.306 252.465 178.245 252.079C169.422 248.945 160.953 244.767 153.11 239.672C152.259 241.263 151.391 242.854 150.539 244.429" stroke="black" stroke-width="3.0695" stroke-linecap="round" stroke-linejoin="round"/>
<path d="M118.622 179.825C108.208 192.424 97.8103 205.007 87.3965 217.607C103.676 209.041 118.156 197.454 132.507 185.948C131.655 184.533 130.819 183.103 129.968 181.689C128.811 183.73 126.432 184.983 124.086 184.807C121.739 184.63 119.586 183.007 118.766 180.805" fill="white"/>
<path d="M118.622 179.825C108.208 192.424 97.8103 205.007 87.3965 217.607C103.676 209.041 118.156 197.454 132.507 185.948C131.655 184.533 130.819 183.103 129.968 181.689C128.811 183.73 126.432 184.983 124.086 184.807C121.739 184.63 119.586 183.007 118.766 180.805" stroke="black" stroke-width="3.0695" stroke-linecap="round" stroke-linejoin="round"/>
</svg>
