<svg width="37" height="42" viewBox="0 0 37 42" fill="none" xmlns="http://www.w3.org/2000/svg">
<path d="M10.7408 20.9948L5.17231 24.1534L0 32.9662L21.0855 20.9948H10.7408Z" fill="#8F4794"/>
<path d="M26.6554 11.9714L21.0869 15.1301L15.9146 23.9429L37 11.9714H26.6554Z" fill="#E40646"/>
<path d="M21.0869 8.81273L15.9146 0V18.0572V23.9428V42L21.0869 33.1873V8.81273Z" fill="#F9B429"/>
<path d="M15.9146 0L21.0869 8.81273L26.6554 11.9714H37L15.9146 0Z" fill="#EF8019"/>
<path d="M15.9146 18.0571V42L21.0869 33.1872V26.8699L15.9146 18.0571Z" fill="#78B72A"/>
<path d="M26.6554 30.0286L21.0869 33.1873L15.9146 42L37 30.0286H26.6554Z" fill="#00853F"/>
<path d="M0 9.03406V32.9664L5.17231 24.1642V17.8363L0 9.03406Z" fill="#5B57A2"/>
<path d="M15.9132 18.0574L15.9239 18.0679L0 9.03406L5.17231 17.8363L26.654 30.0288H36.9986L15.9132 18.0574Z" fill="#0698D6"/>
</svg>
