<svg width="150" height="42" viewBox="0 0 150 42" fill="none" xmlns="http://www.w3.org/2000/svg">
<path fill-rule="evenodd" clip-rule="evenodd" d="M104.728 15.9414H81.9569C78.1918 15.9414 76.4967 16.9922 75.7917 19.1537L73.6616 26.0887H96.4323C100.197 26.0887 101.892 25.0379 102.598 22.8764L104.728 15.9414Z" fill="#00A952"/>
<path fill-rule="evenodd" clip-rule="evenodd" d="M26.6065 10.1623H22.3164C13.6911 10.1623 6.34091 31.8528 16.4962 31.8228H23.0364C26.8015 31.8228 29.5916 33.1888 28.3616 36.8814L26.6665 41.9551H19.7363L14.0962 41.9101C6.89593 41.85 2.24578 38.3075 0.565731 32.9186C-1.26433 27.1094 1.31575 14.9958 8.74098 7.22018C13.0461 2.71695 19.0163 0 26.6665 0H40.812L38.5919 6.36456C37.1669 10.4775 34.2268 10.1623 32.5767 10.1623H26.6065Z" fill="#00A952"/>
<path fill-rule="evenodd" clip-rule="evenodd" d="M99.182 31.8527H76.4113C72.6462 31.8527 70.9362 32.9035 70.2461 35.065L68.1011 41.985H90.8718C94.6369 41.985 96.3469 40.9342 97.037 38.7727L99.182 31.8527ZM110.012 0.0449219H87.2417C83.4765 0.0449219 81.7665 1.09568 81.0765 3.25723L78.9464 10.1772H101.717C105.482 10.1772 107.192 9.12643 107.882 6.96488L110.012 0.0449219Z" fill="#00A952"/>
<path fill-rule="evenodd" clip-rule="evenodd" d="M52.7484 10.1475H58.4336C63.2787 10.1475 62.1687 16.1969 59.7086 22.0961C57.5485 27.2748 53.7384 31.8831 49.1933 31.8831H39.743C35.9779 31.8831 34.2378 32.9339 33.5028 35.0954L31.1777 42.0004H38.0929L44.8582 41.9403C50.8733 41.8953 55.7785 41.46 61.5387 36.2663C67.6139 30.7723 74.6941 16.5571 73.479 8.36125C72.534 1.92163 69.0839 0.0302734 60.6986 0.0302734H45.4582L36.5779 26.0589H42.2181C45.5632 26.0589 47.2732 26.104 49.0433 21.3005L52.7484 10.1475Z" fill="#00A952"/>
<path fill-rule="evenodd" clip-rule="evenodd" d="M100.919 41.9851H111.659L116.264 28.7756L121.065 24.7227L124.86 36.6713C126.03 40.3639 127.23 41.9851 129.87 41.9851H138.105L129.615 18.5383L150 0H136.83L124.455 13.2095C123.015 14.7406 121.545 16.2567 120.105 18.073H119.985L126.12 0H115.379L100.919 41.9851Z" fill="#00A952"/>
</svg>
