<svg width="22" height="22" viewBox="0 0 22 22" fill="none" xmlns="http://www.w3.org/2000/svg">
<path d="M14.0674 3.55273C15.174 3.3817 16.1557 3.62853 17.041 4.30957C17.7817 4.87947 18.2286 5.64265 18.4102 6.58691C18.4567 6.82852 18.4887 7.05237 18.4902 7.2627C18.4993 8.51035 18.4941 9.75686 18.4941 11.0098C18.4941 12.259 18.5089 13.4898 18.4902 14.7256C18.474 15.7897 18.1054 16.7049 17.3672 17.4277C16.6578 18.122 15.8192 18.491 14.8193 18.5C14.1117 18.5063 13.4658 18.3393 12.8242 18.0137C11.5279 17.355 10.2169 16.7197 8.91992 16.0811C7.76348 15.5117 6.62363 14.9764 5.49414 14.3945C4.41623 13.839 3.77181 12.9489 3.56836 11.7334C3.3372 10.352 3.68648 9.17285 4.6748 8.20117C4.89103 7.9886 5.14749 7.81606 5.43945 7.65723L5.74316 7.50195C6.78701 6.99602 7.82976 6.46169 8.8584 5.95117C10.1024 5.33377 11.3366 4.71394 12.582 4.11719C13.1287 3.85514 13.5709 3.62937 14.0674 3.55273Z" stroke="#5691F5"/>
<path d="M14.0674 3.55273C15.174 3.3817 16.1557 3.62853 17.041 4.30957C17.7817 4.87947 18.2286 5.64265 18.4102 6.58691C18.4567 6.82852 18.4887 7.05237 18.4902 7.2627C18.4993 8.51035 18.4941 9.75686 18.4941 11.0098C18.4941 12.259 18.5089 13.4898 18.4902 14.7256C18.474 15.7897 18.1054 16.7049 17.3672 17.4277C16.6578 18.122 15.8192 18.491 14.8193 18.5C14.1117 18.5063 13.4658 18.3393 12.8242 18.0137C11.5279 17.355 10.2169 16.7197 8.91992 16.0811C7.76348 15.5117 6.62363 14.9764 5.49414 14.3945C4.41623 13.839 3.77181 12.9489 3.56836 11.7334C3.3372 10.352 3.68648 9.17285 4.6748 8.20117C4.89103 7.9886 5.14749 7.81606 5.43945 7.65723L5.74316 7.50195C6.78701 6.99602 7.82976 6.46169 8.8584 5.95117C10.1024 5.33377 11.3366 4.71394 12.582 4.11719C13.1287 3.85514 13.5709 3.62937 14.0674 3.55273Z" stroke="black" stroke-opacity="0.2"/>
</svg>
