<svg width="22" height="22" viewBox="0 0 22 22" fill="none" xmlns="http://www.w3.org/2000/svg">
<path d="M18.9946 11.0099C18.9946 12.2511 19.0092 13.4925 18.9904 14.7332C18.9724 15.9185 18.5569 16.9626 17.7173 17.7848C16.9209 18.5643 15.9604 18.9896 14.8236 18.9998C14.0274 19.0069 13.3029 18.8173 12.5973 18.459C11.3047 17.8023 10 17.1699 8.69943 16.5295C7.55446 15.9657 6.39911 15.4231 5.26469 14.8386C4.0439 14.2095 3.3043 13.1839 3.07534 11.8158C2.8191 10.2845 3.21191 8.9382 4.32424 7.8446C4.67036 7.50432 5.08778 7.26387 5.52511 7.05198C6.56749 6.54676 7.59864 6.0179 8.6365 5.50282C9.87787 4.88672 11.1167 4.26501 12.3663 3.66626C12.8878 3.41628 13.4048 3.14862 13.991 3.05815C15.231 2.86651 16.3509 3.14777 17.346 3.91334C18.1914 4.56379 18.6984 5.43803 18.9011 6.49218C18.9496 6.74419 18.9888 7.00284 18.9906 7.25877C18.9996 8.50899 18.9946 9.75955 18.9946 11.0099Z" fill="#5691F5"/>
<path d="M18.9946 11.0099C18.9946 12.2511 19.0092 13.4925 18.9904 14.7332C18.9724 15.9185 18.5569 16.9626 17.7173 17.7848C16.9209 18.5643 15.9604 18.9896 14.8236 18.9998C14.0274 19.0069 13.3029 18.8173 12.5973 18.459C11.3047 17.8023 10 17.1699 8.69943 16.5295C7.55446 15.9657 6.39911 15.4231 5.26469 14.8386C4.0439 14.2095 3.3043 13.1839 3.07534 11.8158C2.8191 10.2845 3.21191 8.9382 4.32424 7.8446C4.67036 7.50432 5.08778 7.26387 5.52511 7.05198C6.56749 6.54676 7.59864 6.0179 8.6365 5.50282C9.87787 4.88672 11.1167 4.26501 12.3663 3.66626C12.8878 3.41628 13.4048 3.14862 13.991 3.05815C15.231 2.86651 16.3509 3.14777 17.346 3.91334C18.1914 4.56379 18.6984 5.43803 18.9011 6.49218C18.9496 6.74419 18.9888 7.00284 18.9906 7.25877C18.9996 8.50899 18.9946 9.75955 18.9946 11.0099Z" fill="black" fill-opacity="0.2"/>
<path d="M15.3333 9L11.6667 12.6667L10 11" stroke="white" stroke-width="0.794444" stroke-linecap="round" stroke-linejoin="round"/>
</svg>
