<svg width="22" height="22" viewBox="0 0 22 22" fill="none" xmlns="http://www.w3.org/2000/svg">
<rect width="22" height="22" fill="#21A038"/>
<path fill-rule="evenodd" clip-rule="evenodd" d="M10.8911 3.29981H10.8896C8.93099 3.29739 7.01853 4.08424 5.61903 5.45235C3.38831 7.62375 2.68704 11.0613 3.8677 13.9483C4.60466 15.7505 6.02852 17.2418 7.80639 18.0415C9.69503 18.891 11.8869 18.9203 13.797 18.118C15.5961 17.3624 17.0547 15.9123 17.8371 14.1252C18.4536 12.7172 18.636 11.1328 18.3691 9.62042L16.7335 10.842C16.7335 11.726 16.5879 12.5889 16.2311 13.4025C15.6287 14.776 14.5081 15.8916 13.1253 16.4732C11.6554 17.0915 9.97376 17.069 8.51937 16.414C7.15138 15.7978 6.05883 14.6535 5.49063 13.266C4.8816 11.7788 4.90305 10.0694 5.54828 8.5982C6.15026 7.22565 7.27035 6.11063 8.65349 5.52875C10.4646 4.76684 12.5628 4.98499 14.1837 6.11196L15.6612 5.00827C14.3253 3.91195 12.6185 3.2976 10.8911 3.29981ZM16.9027 6.29287C17.2637 6.76585 17.5693 7.27971 17.8133 7.82412L10.8912 12.9954L7.99827 11.1576V8.94655L10.8912 10.7844L16.9027 6.29287Z" fill="white"/>
</svg>
