<svg width="22" height="22" viewBox="0 0 22 22" fill="none" xmlns="http://www.w3.org/2000/svg">
<rect width="22" height="22" fill="#FC3F1D"/>
<path fill-rule="evenodd" clip-rule="evenodd" d="M18.7008 10.9998C18.7008 15.2524 15.2534 18.6998 11.0008 18.6998C6.74819 18.6998 3.30078 15.2524 3.30078 10.9998C3.30078 6.74721 6.74819 3.2998 11.0008 3.2998C15.2534 3.2998 18.7008 6.74721 18.7008 10.9998ZM12.0967 15.8337H13.787V15.8308H13.7756V6.16475H11.3323C8.87896 6.16475 7.583 7.42927 7.583 9.28818C7.583 10.7756 8.29457 11.6572 9.55908 12.5602L7.36011 15.8323H9.17759L11.6209 12.1673L10.7707 11.5943C9.73912 10.9042 9.24045 10.3627 9.24045 9.19388C9.24045 8.16369 9.96345 7.47356 11.3437 7.47356H12.0967V15.8337Z" fill="white"/>
</svg>
