<svg width="57" height="31" viewBox="0 0 57 31" fill="none" xmlns="http://www.w3.org/2000/svg">
<path d="M41.8604 4.20081C47.7625 4.20084 51.4316 5.13786 53.6279 6.82678C55.8993 8.57374 56.4209 10.9791 56.4209 13.359C56.4207 15.7885 55.5538 19.1688 53.4785 21.9615C51.3761 24.7907 48.0289 27.0142 43.1602 27.0143C35.6112 27.0142 30.3611 21.0394 29.3574 14.2682H27.0645C26.0608 21.0394 20.8098 27.0142 13.2607 27.0143C8.39204 27.0142 5.04474 24.7907 2.94238 21.9615C0.867115 19.1688 0.000172809 15.7885 0 13.359C0 10.9791 0.521617 8.57373 2.79297 6.82678C4.98928 5.13787 8.65843 4.20085 14.5605 4.20081C19.3341 4.20081 22.5176 5.15238 24.5117 6.85608C26.2834 8.36981 26.9895 10.365 27.1396 12.4489H29.2822C29.4323 10.365 30.1375 8.36985 31.9092 6.85608C33.9033 5.15235 37.0868 4.20081 41.8604 4.20081ZM14.5605 6.02112C8.76276 6.02116 5.60607 6.95903 3.90234 8.26917C2.27439 9.52126 1.82031 11.2406 1.82031 13.359C1.82049 15.4281 2.57894 18.4205 4.40332 20.8756C6.20099 23.2948 9.0296 25.1948 13.2607 25.1949C19.9513 25.1948 24.7153 19.6909 25.3496 13.317C25.3425 11.2422 24.8019 9.49758 23.3301 8.23987C21.814 6.94456 19.1471 6.02112 14.5605 6.02112ZM41.8604 6.02112C37.2737 6.02112 34.6069 6.94454 33.0908 8.23987C31.619 9.49758 31.0784 11.2422 31.0713 13.317C31.7056 19.6909 36.4696 25.1948 43.1602 25.1949C47.3913 25.1949 50.2199 23.2948 52.0176 20.8756C53.842 18.4205 54.6004 15.4281 54.6006 13.359C54.6006 11.2406 54.1466 9.52127 52.5186 8.26917C50.8148 6.95902 47.6582 6.02115 41.8604 6.02112Z" fill="white"/>
</svg>
