<svg width="55" height="31" viewBox="0 0 55 31" fill="none" xmlns="http://www.w3.org/2000/svg">
<path d="M48.4258 6.02051C50.2601 6.30681 52.4538 6.71131 53.3008 6.91895L54.8408 7.29688L54.9199 8.61133L55 9.9248L54.3359 10.5518C53.9708 10.8962 53.449 11.7011 53.1768 12.3408C52.849 13.1109 52.4546 13.6168 52.0996 13.7676C51.7147 16.4907 50.603 19.044 49.041 21.0459C47.0918 23.544 44.3819 25.2568 41.4473 25.2568C38.5072 25.2568 35.8684 23.5381 33.9922 21.0352C32.218 18.6682 31.0729 15.5386 30.9492 12.2744C30.744 12.0487 30.5938 11.7299 30.5938 11.4863C30.5938 10.444 30.047 10.1973 27.7412 10.1973C25.1579 10.1973 24.6925 10.3448 24.6924 11.167C24.6924 11.4951 24.4213 12.0689 24.0898 12.4414L24.0742 12.458C23.8358 15.8035 22.7858 18.8283 21.1836 21.1172C19.3531 23.7322 16.7582 25.4375 13.8145 25.4375C10.8849 25.4375 8.10762 23.7475 6.08887 21.1445C4.51555 19.1159 3.37547 16.4977 2.94336 13.5801H2.44727L1.97559 12.3271C1.71648 11.6385 1.22709 10.8135 0.887695 10.4932C0.490777 10.1192 0.221759 9.47969 0.134766 8.70312L0 7.49512L1.37695 7.1416C3.26336 6.65657 6.89789 5.93508 8.14258 5.79883C13.6286 5.19882 19.1796 6.00095 22.792 7.91602L24.3057 8.71875H30.8457L32.708 7.79199C35.2253 6.53962 37.9899 5.9026 41.8574 5.68359L45.0908 5.5L48.4258 6.02051ZM14.5088 7.05762C9.66663 6.47725 6.07301 7.30701 5.12793 9.22461C4.62039 10.2548 4.42215 12.2384 4.4668 14.3135C4.95042 16.6225 5.91755 18.6794 7.17578 20.3018C9.01654 22.6751 11.4284 24.0625 13.8145 24.0625C16.1864 24.0625 18.4046 22.6896 20.0576 20.3281C21.6098 18.1105 22.624 15.0653 22.7402 11.6572C22.412 10.7368 21.8552 9.96501 21.0508 9.2666C19.6343 8.03655 17.9579 7.47096 14.5088 7.05762ZM48.5742 7.82129C46.355 6.69633 39.133 6.81349 36.4893 8.01758C34.1194 9.09687 32.7852 10.4377 32.332 12.3945C32.4781 15.3183 33.517 18.1101 35.0918 20.2109C36.7972 22.486 39.0695 23.8818 41.4473 23.8818C43.8305 23.8818 46.1781 22.4801 47.957 20.2002C49.6026 18.0911 50.7039 15.2929 50.8545 12.3701C50.636 9.76517 49.9765 8.53213 48.5742 7.82129Z" fill="white"/>
</svg>
