<svg width="73" height="40" viewBox="0 0 73 40" fill="none" xmlns="http://www.w3.org/2000/svg">
<path d="M0.0291588 13.3552C-0.00011556 14.8588 0.450278 15.4509 0.811889 15.9272C0.927307 16.0811 1.02809 16.2127 1.10439 16.3686C1.27452 16.7176 1.3957 17.1512 1.46432 17.6579C2.95468 28.6721 3.29013 30.1734 7.07181 32.6018C8.88202 33.7653 12.6042 34.5455 16.3328 34.5455C19.2404 34.5455 23.44 34.0789 26.9326 31.8579C32.0208 28.6209 33.9167 17.4475 34.0057 16.8853C34.0107 16.8285 34.1609 15.4954 36.4856 15.4954H36.488L36.6303 15.4939C38.8355 15.4939 38.9874 16.8285 39.0034 16.9724C39.0817 17.4475 40.978 28.6192 46.066 31.8579C49.5588 34.0804 53.7585 34.5455 56.666 34.5455C60.3946 34.5455 64.1161 33.7635 65.9265 32.6018C69.7087 30.1734 70.0441 28.6707 71.5338 17.6564C71.6022 17.1512 71.7241 16.7179 71.8942 16.3675C71.97 16.2115 72.0705 16.0796 72.1862 15.9257C72.5478 15.4495 72.9989 14.8556 72.9692 13.3537C72.9641 13.1021 72.973 12.6545 72.9817 12.1639C72.9965 11.4147 73.0102 10.571 72.9891 10.1164C72.8823 7.8887 71.2655 6.98152 70.4518 6.82004C65.2494 5.51735 59.0034 5.13997 52.4094 5.71715L52.0651 5.74699C48.043 6.09395 45.8277 6.28469 43.1875 7.72605C42.5749 8.06101 41.9448 8.43956 41.3869 8.78886C40.3942 9.41226 38.9605 10.0886 38.19 10.2946C37.88 10.3788 37.5656 10.4613 37.2873 10.5295C36.8866 10.6287 36.1113 10.6287 35.7106 10.5295C35.4322 10.4599 35.1179 10.3788 34.8071 10.2946C34.0386 10.0886 32.6048 9.41226 31.6114 8.78886C31.054 8.43985 30.4241 8.06101 29.811 7.72605C27.1708 6.28469 24.9561 6.09395 20.934 5.74699L20.5891 5.71715C13.9933 5.14172 7.7384 5.52027 2.57267 6.81536C1.73451 6.98269 0.118662 7.89016 0.0118821 10.1179C-0.0111534 10.5722 0.00396366 11.4162 0.0181209 12.1651C0.0253196 12.6574 0.0339579 13.1059 0.0291588 13.3552ZM71.4714 10.6184V12.2666L69.7876 11.4428L71.4714 10.6184ZM42.2752 12.983C42.5301 12.2119 44.1339 9.64308 54.0841 8.93688C55.8285 8.81343 57.3083 8.75287 58.6082 8.75287C64.4753 8.75287 66.3426 10.0389 67.4533 12.1127C68.1183 13.3534 68.5703 15.9488 68.5754 17.5941C68.5879 21.1871 67.9952 27.5736 63.9087 29.9883C62.0361 31.0941 59.2282 31.7546 56.3989 31.7546C50.9678 31.7546 46.6265 29.5035 44.7887 25.7347C40.9219 17.8161 42.2277 13.115 42.2752 12.983ZM5.5421 12.1116C6.65429 10.0368 8.52113 8.7517 14.3875 8.7517C15.6878 8.7517 17.1676 8.81226 18.9121 8.93571C28.8601 9.64308 30.4656 12.2122 30.7507 13.0729C30.7661 13.1153 32.0726 17.8182 28.2098 25.7353C26.3701 29.5041 22.0303 31.7552 16.5999 31.7552C13.7694 31.7552 10.9612 31.0947 9.08814 29.9889C5.00149 27.5742 4.40952 21.1877 4.42128 17.5947C4.42632 15.9471 4.87791 13.3522 5.5421 12.1116ZM1.52311 10.6184L3.20615 11.4425L1.52311 12.2663V10.6184Z" fill="white"/>
</svg>
