<svg width="55" height="30" viewBox="0 0 55 30" fill="none" xmlns="http://www.w3.org/2000/svg">
<path d="M41.1787 4.05078C45.9704 4.05078 49.1554 5.93102 51.1533 8.33789C53.1226 10.7104 53.8997 13.5443 54.0137 15.4619L54.0156 15.4883V15.5137C54.0156 17.0512 53.9644 19.5906 52.6982 21.7471C51.3766 23.9977 48.8501 25.6533 44.3262 25.6533C35.417 25.6532 29.9895 17.6895 29.0557 9.77539H24.96C24.0261 17.6896 18.5986 25.6533 9.68945 25.6533C5.16552 25.6532 2.63903 23.9978 1.31738 21.7471C0.0512312 19.5906 8.53068e-06 17.0512 0 15.5137V15.4883L0.00195312 15.4619C0.115972 13.5444 0.893069 10.7104 2.8623 8.33789C4.68257 6.14503 7.48836 4.38864 11.5967 4.09375V4.05078H41.1787ZM12.8369 5.80664C8.56524 5.80668 5.87504 7.4554 4.21191 9.45898C2.53048 11.485 1.85768 13.9271 1.75586 15.5381C1.75667 17.0853 1.83585 19.1649 2.83008 20.8584C3.77435 22.4665 5.65433 23.8984 9.68945 23.8984C17.5833 23.8984 22.6621 16.5602 23.2871 8.86719C23.2828 8.35045 23.172 7.97364 22.9561 7.6709C22.7308 7.35535 22.3275 7.02952 21.582 6.73926C20.0506 6.14306 17.3664 5.80665 12.8369 5.80664ZM41.1787 5.80664C36.6494 5.80666 33.965 6.14306 32.4336 6.73926C31.6883 7.02949 31.2848 7.35539 31.0596 7.6709C30.8437 7.97362 30.7328 8.35053 30.7285 8.86719C31.3535 16.5601 36.4324 23.8983 44.3262 23.8984C48.3613 23.8984 50.2412 22.4665 51.1855 20.8584C52.1798 19.1649 52.2589 17.0853 52.2598 15.5381C52.1579 13.9271 51.4852 11.485 49.8037 9.45898C48.1406 7.45538 45.4505 5.80664 41.1787 5.80664ZM23.5361 5.80664C23.8722 6.05258 24.1566 6.33166 24.3848 6.65137C24.6896 7.07868 24.8708 7.54087 24.9639 8.02051H29.0518C29.1447 7.54123 29.3261 7.07857 29.6309 6.65137C29.859 6.33174 30.1436 6.0526 30.4795 5.80664H23.5361Z" fill="white"/>
</svg>
