<svg width="55" height="31" viewBox="0 0 55 31" fill="none" xmlns="http://www.w3.org/2000/svg">
<path d="M48.4258 6.02051C50.2601 6.30681 52.4538 6.71131 53.3008 6.91895L54.8408 7.29688L54.9199 8.61133L55 9.9248L54.3359 10.5518C53.9708 10.8962 53.449 11.7011 53.1768 12.3408C52.6901 13.4842 52.0577 14.0484 51.623 13.7266C51.5286 13.6566 51.363 13.7999 51.1904 14.1709C50.5471 20.125 46.4657 24.7754 41.4473 24.7754C36.3905 24.7754 32.2845 20.0537 31.6895 14.0342C31.6488 13.802 31.6253 13.5957 31.624 13.4238C31.6217 13.0837 31.3887 12.6322 31.1064 12.4209C30.8244 12.2096 30.5938 11.7892 30.5938 11.4863C30.5938 10.444 30.047 10.1973 27.7412 10.1973C25.1579 10.1973 24.6925 10.3448 24.6924 11.167C24.6924 11.4951 24.4213 12.0689 24.0898 12.4414L23.6396 12.9473C23.4617 19.4753 19.1708 24.7751 13.8135 24.7754C8.97398 24.7754 5.00438 20.4507 4.15039 14.8027C4.0458 14.3437 3.9513 13.8936 3.90918 13.5801H2.44727L1.97559 12.3271C1.71648 11.6385 1.22709 10.8135 0.887695 10.4932C0.490777 10.1192 0.221759 9.47969 0.134766 8.70312L0 7.49512L1.37695 7.1416C3.26336 6.65657 6.89789 5.93508 8.14258 5.79883C13.6286 5.19882 19.1796 6.00095 22.792 7.91602L24.3057 8.71875H30.8457L32.708 7.79199C35.2253 6.53962 37.9899 5.9026 41.8574 5.68359L45.0908 5.5L48.4258 6.02051ZM14.5088 7.05762C9.66663 6.47725 6.07301 7.30701 5.12793 9.22461C4.64994 10.1948 4.44488 12.0107 4.45996 13.9521C5.02265 19.8518 9.02918 24.3633 13.8135 24.3633C18.3824 24.363 22.2401 20.2481 23.0684 14.7393C23.2439 12.2617 22.6171 10.6264 21.0508 9.2666C19.6343 8.03655 17.9579 7.47096 14.5088 7.05762ZM48.5742 7.82129C46.355 6.69633 39.133 6.81349 36.4893 8.01758C33.3249 9.45874 32.0085 11.3658 32.1689 14.584C32.9473 20.1708 36.8353 24.3633 41.4473 24.3633C46.6091 24.3633 50.8667 19.1119 50.8691 12.5312C50.6645 9.81556 50.0052 8.54664 48.5742 7.82129Z" fill="white"/>
</svg>
