<svg width="24" height="24" viewBox="0 0 24 24" fill="none" xmlns="http://www.w3.org/2000/svg">
<g clip-path="url(#clip0_2011_146)">
<path d="M11.4062 0.319724C4.62209 0.674215 0.143796 5.99483 0.426738 12.7041C0.550322 15.6409 1.73087 18.1679 2.01056 20.955C2.08211 21.677 1.87397 22.5681 2.70654 22.8836C3.73098 23.2706 5.3018 22.6201 6.16039 22.025C6.45308 21.8266 6.73277 21.5957 6.94742 21.3095C7.83527 21.8981 8.6776 22.4673 9.73456 22.7209C14.3885 23.8365 19.4879 21.2835 21.7547 17.1824C26.0151 9.47795 20.2555 -0.14209 11.4062 0.319724ZM8.77191 16.3987C8.40441 16.6848 8.04992 17.0751 7.64339 17.2995C7.05474 17.615 6.87262 17.2865 6.65147 16.7662C5.9555 15.1108 5.87094 12.2911 6.27746 10.5577C6.82384 8.19983 8.64833 6.12492 11.1558 5.90377C13.6925 5.67937 16.0471 6.96724 17.1106 9.29257C19.4652 14.4668 13.4388 19.5761 8.77191 16.4019V16.3987Z" fill="white"/>
</g>
<defs>
<clipPath id="clip0_2011_146">
<rect width="24" height="24" fill="white"/>
</clipPath>
</defs>
</svg>
