<svg width="24" height="24" viewBox="0 0 24 24" fill="none" xmlns="http://www.w3.org/2000/svg">
<path d="M5.082 1C4.00084 1.00474 2.96532 1.43632 2.20082 2.20082C1.43632 2.96532 1.00474 4.00084 1 5.082V18.918C1.00474 19.9992 1.43632 21.0347 2.20082 21.7992C2.96532 22.5637 4.00084 22.9953 5.082 23H18.918C19.9992 22.9953 21.0347 22.5637 21.7992 21.7992C22.5637 21.0347 22.9953 19.9992 23 18.918V5.082C22.9953 4.00084 22.5637 2.96532 21.7992 2.20082C21.0347 1.43632 19.9992 1.00474 18.918 1H5.082ZM5.082 3H18.918C19.1919 2.99841 19.4633 3.05117 19.7166 3.15524C19.9699 3.25931 20.2001 3.4126 20.3937 3.60625C20.5874 3.7999 20.7407 4.03005 20.8448 4.28337C20.9488 4.53669 21.0016 4.80814 21 5.082V18.918C21.0016 19.1919 20.9488 19.4633 20.8448 19.7166C20.7407 19.9699 20.5874 20.2001 20.3937 20.3937C20.2001 20.5874 19.9699 20.7407 19.7166 20.8448C19.4633 20.9488 19.1919 21.0016 18.918 21H5.082C4.80814 21.0016 4.53669 20.9488 4.28337 20.8448C4.03005 20.7407 3.7999 20.5874 3.60625 20.3937C3.4126 20.2001 3.25931 19.9699 3.15524 19.7166C3.05117 19.4633 2.99841 19.1919 3 18.918V5.082C2.99841 4.80814 3.05117 4.53669 3.15524 4.28337C3.25931 4.03005 3.4126 3.7999 3.60625 3.60625C3.7999 3.4126 4.03005 3.25931 4.28337 3.15524C4.53669 3.05117 4.80814 2.99841 5.082 3ZM11.719 8.23C10.984 8.223 10.359 8.23 10.008 8.402C9.773 8.516 9.594 8.773 9.703 8.785C9.84 8.805 10.148 8.871 10.313 9.094C10.523 9.379 10.516 10.024 10.516 10.024C10.516 10.024 10.633 11.797 10.23 12.02C9.953 12.172 9.574 11.863 8.754 10.453C8.336 9.727 8.02 8.926 8.02 8.926C8.02 8.926 7.96 8.777 7.852 8.699C7.719 8.602 7.535 8.57 7.535 8.57L5.578 8.582C5.578 8.582 5.285 8.594 5.18 8.719C5.082 8.836 5.172 9.066 5.172 9.066C5.172 9.066 6.703 12.648 8.437 14.453C10.027 16.11 11.832 16 11.832 16H12.652C12.652 16 12.898 15.973 13.023 15.84C13.141 15.715 13.137 15.48 13.137 15.48C13.137 15.48 13.121 14.383 13.629 14.219C14.133 14.062 14.773 15.281 15.457 15.75C15.977 16.105 16.371 16.027 16.371 16.027L18.2 16C18.2 16 19.153 15.941 18.7 15.187C18.665 15.129 18.438 14.633 17.345 13.617C16.196 12.555 16.349 12.727 17.731 10.887C18.571 9.766 18.907 9.082 18.801 8.785C18.701 8.508 18.083 8.582 18.083 8.582L16.024 8.594C16.024 8.594 15.872 8.574 15.759 8.641C15.682 8.69942 15.6202 8.77558 15.579 8.863C15.579 8.863 15.251 9.73 14.817 10.469C13.903 12.023 13.532 12.109 13.384 12.012C13.036 11.785 13.122 11.105 13.122 10.625C13.122 9.113 13.352 8.488 12.677 8.325C12.454 8.27 12.29 8.235 11.72 8.23H11.719Z" fill="white"/>
</svg>
