<svg width="24" height="24" viewBox="0 0 24 24" fill="none" xmlns="http://www.w3.org/2000/svg">
<path d="M19.7506 4.20972C18.7392 3.18848 17.5347 2.37874 16.2073 1.82769C14.8798 1.27664 13.456 0.995298 12.0187 1.00006C5.99648 1.00006 1.08824 5.9083 1.08824 11.9305C1.08824 13.8608 1.59561 15.7358 2.54417 17.3903L1 23.0596L6.79062 21.5375C8.38994 22.4088 10.1878 22.8721 12.0187 22.8721C18.041 22.8721 22.9492 17.9638 22.9492 11.9416C22.9492 9.01869 21.8132 6.27228 19.7506 4.20972ZM12.0187 21.0191C10.3863 21.0191 8.78701 20.5779 7.38623 19.7506L7.05534 19.5521L3.61405 20.4566L4.52952 17.1035L4.30893 16.7616C3.40178 15.3134 2.9202 13.6394 2.91918 11.9305C2.91918 6.92304 7.00019 2.84203 12.0077 2.84203C14.4342 2.84203 16.7174 3.79059 18.427 5.51123C19.2737 6.35375 19.9446 7.356 20.4009 8.45985C20.8572 9.56369 21.0898 10.7472 21.0852 11.9416C21.1072 16.9491 17.0262 21.0191 12.0187 21.0191ZM17.0042 14.2247C16.7284 14.0924 15.3828 13.4306 15.1401 13.3313C14.8865 13.2431 14.71 13.199 14.5225 13.4637C14.335 13.7394 13.8166 14.3571 13.6622 14.5336C13.5077 14.7211 13.3423 14.7431 13.0666 14.5998C12.7908 14.4674 11.9084 14.1696 10.8716 13.2431C10.0554 12.5151 9.51497 11.6217 9.34953 11.346C9.19511 11.0702 9.32747 10.9268 9.47085 10.7835C9.59218 10.6621 9.7466 10.4636 9.87895 10.3092C10.0113 10.1548 10.0665 10.0334 10.1547 9.85695C10.2429 9.66945 10.1988 9.51503 10.1326 9.38268C10.0665 9.25032 9.51497 7.90469 9.29438 7.3532C9.07378 6.82377 8.84216 6.88995 8.67671 6.87892H8.14728C7.95978 6.87892 7.673 6.9451 7.41932 7.22084C7.17666 7.49659 6.47076 8.15837 6.47076 9.504C6.47076 10.8496 7.45241 12.1511 7.58477 12.3276C7.71712 12.5151 9.51497 15.2726 12.2504 16.4528C12.9011 16.7395 13.4085 16.905 13.8055 17.0263C14.4563 17.2359 15.0519 17.2028 15.5262 17.1366C16.0556 17.0594 17.1476 16.4748 17.3682 15.8351C17.5998 15.1954 17.5998 14.6549 17.5226 14.5336C17.4454 14.4122 17.2799 14.3571 17.0042 14.2247Z" fill="white"/>
</svg>
