<svg width="22" height="22" viewBox="0 0 22 22" fill="none" xmlns="http://www.w3.org/2000/svg">
<path d="M17.7663 5.2377C17.3753 4.84531 16.9111 4.53404 16.4002 4.32168C15.8893 4.10931 15.3417 4 14.7887 4C14.2357 4 13.6881 4.10931 13.1772 4.32168C12.6663 4.53404 12.2021 4.84531 11.8112 5.2377L10.9998 6.05166L10.1884 5.2377C9.39874 4.44548 8.32768 4.00041 7.21089 4.00041C6.09409 4.00041 5.02303 4.44548 4.23334 5.2377C3.44365 6.02993 3 7.10441 3 8.22479C3 9.34516 3.44365 10.4196 4.23334 11.2119L5.0447 12.0258L10.9998 18L16.9549 12.0258L17.7663 11.2119C18.1574 10.8197 18.4677 10.354 18.6794 9.84146C18.891 9.32893 19 8.77958 19 8.22479C19 7.67 18.891 7.12064 18.6794 6.60811C18.4677 6.09558 18.1574 5.6299 17.7663 5.2377V5.2377Z" stroke="#717680" stroke-width="0.8" stroke-linecap="round" stroke-linejoin="round"/>
</svg>
