<svg width="55" height="30" viewBox="0 0 55 30" fill="none" xmlns="http://www.w3.org/2000/svg">
<path d="M0.394407 3.89393C0.335828 3.95251 0.335828 4.04749 0.394407 4.10607L1.349 5.06066C1.40758 5.11924 1.50255 5.11924 1.56113 5.06066C1.61971 5.00208 1.61971 4.90711 1.56113 4.84853L0.712605 4L1.56113 3.15147C1.61971 3.09289 1.61971 2.99792 1.56113 2.93934C1.50255 2.88076 1.40758 2.88076 1.349 2.93934L0.394407 3.89393ZM53.6065 4.10607C53.6651 4.04749 53.6651 3.95252 53.6065 3.89394L52.6519 2.93934C52.5934 2.88077 52.4984 2.88077 52.4398 2.93934C52.3812 2.99792 52.3812 3.0929 52.4398 3.15148L53.2883 4L52.4398 4.84853C52.3812 4.90711 52.3812 5.00209 52.4398 5.06066C52.4984 5.11924 52.5934 5.11924 52.6519 5.06066L53.6065 4.10607ZM0.500473 4L0.500473 4.15L53.5005 4.15L53.5005 4L53.5005 3.85L0.500473 3.85L0.500473 4Z" fill="#717680"/>
<path d="M54.0234 8.00006C54.2671 7.99029 54.473 8.1801 54.4833 8.42389C54.5585 10.2284 54.3565 13.7295 53.9609 17.0792C53.7627 18.7569 53.5152 20.4078 53.2265 21.7989C52.9413 23.1725 52.6052 24.3474 52.2128 25.0342C52.0916 25.2463 51.8214 25.3203 51.6093 25.1993C51.3971 25.078 51.324 24.807 51.4452 24.5948C51.7606 24.0424 52.074 22.9936 52.3593 21.6192C52.6411 20.2616 52.8856 18.6374 53.082 16.9747C53.2847 15.2582 53.4331 13.5112 53.5214 11.9835C52.1224 12.0011 42.9298 12.4339 33.7655 12.9219C29.0926 13.1708 24.4338 13.4342 20.8339 13.6622C19.0342 13.7762 17.5002 13.8813 16.3622 13.9717C15.7931 14.017 15.3243 14.0581 14.9726 14.0948C14.6085 14.1328 14.3989 14.1631 14.3241 14.1817C14.2114 14.21 13.9781 14.3144 13.6142 14.5186C13.2637 14.7153 12.8277 14.9836 12.3261 15.3096C11.3232 15.9615 10.074 16.8318 8.74504 17.7852C6.08803 19.6915 3.12684 21.9225 1.21184 23.3956C1.01822 23.5444 0.740746 23.508 0.591721 23.3145C0.442801 23.1208 0.479102 22.8434 0.672775 22.6944C2.5927 21.2175 5.56106 18.9792 8.22844 17.0655C9.56155 16.109 10.8241 15.2311 11.8437 14.5684C12.353 14.2374 12.8064 13.9561 13.1806 13.7462C13.5409 13.544 13.8691 13.3836 14.1103 13.3233C14.2572 13.2867 14.5322 13.2513 14.8808 13.2149C15.243 13.1771 15.7198 13.1344 16.2919 13.0889C17.437 12.9979 18.9767 12.8925 20.7782 12.7784C24.3825 12.5501 29.0444 12.2871 33.7187 12.0381C42.9744 11.5452 52.3104 11.1055 53.5673 11.0977C53.6141 10.037 53.6272 9.12405 53.5995 8.461C53.5894 8.21689 53.7792 8.01023 54.0234 8.00006Z" fill="#717680"/>
<path d="M54.0234 8.00006L54.0033 7.50046L54.0025 7.50049L54.0234 8.00006ZM54.4833 8.42389L54.9829 8.40307L54.9829 8.40275L54.4833 8.42389ZM53.9609 17.0792L54.4574 17.1378V17.1378L53.9609 17.0792ZM53.2265 21.7989L53.716 21.9005L53.7161 21.9005L53.2265 21.7989ZM52.2128 25.0342L52.6469 25.2824L52.647 25.2823L52.2128 25.0342ZM51.6093 25.1993L51.3612 25.6334L51.3615 25.6336L51.6093 25.1993ZM51.4452 24.5948L51.8794 24.8429L51.8795 24.8427L51.4452 24.5948ZM52.3593 21.6192L52.8489 21.7208V21.7208L52.3593 21.6192ZM53.082 16.9747L53.5785 17.0333V17.0333L53.082 16.9747ZM53.5214 11.9835L54.0206 12.0123L54.0515 11.4767L53.5151 11.4835L53.5214 11.9835ZM33.7655 12.9219L33.739 12.4226V12.4226L33.7655 12.9219ZM20.8339 13.6622L20.8023 13.1632V13.1632L20.8339 13.6622ZM16.3622 13.9717L16.3226 13.4733L16.3226 13.4733L16.3622 13.9717ZM14.9726 14.0948L14.9207 13.5975L14.9207 13.5975L14.9726 14.0948ZM14.3241 14.1817L14.2033 13.6965L14.2026 13.6967L14.3241 14.1817ZM13.6142 14.5186L13.3695 14.0826L13.3695 14.0826L13.6142 14.5186ZM12.3261 15.3096L12.0536 14.8904L12.0536 14.8904L12.3261 15.3096ZM8.74504 17.7852L8.45357 17.379H8.45357L8.74504 17.7852ZM1.21184 23.3956L1.51659 23.792L1.51669 23.7919L1.21184 23.3956ZM0.591721 23.3145L0.195328 23.6193L0.195623 23.6196L0.591721 23.3145ZM0.672775 22.6944L0.367921 22.2981L0.36792 22.2981L0.672775 22.6944ZM8.22844 17.0655L7.93697 16.6592H7.93697L8.22844 17.0655ZM11.8437 14.5684L11.5712 14.1492L11.5712 14.1492L11.8437 14.5684ZM13.1806 13.7462L12.9359 13.3101L12.9359 13.3101L13.1806 13.7462ZM14.1103 13.3233L13.9894 12.8381L13.989 12.8382L14.1103 13.3233ZM14.8808 13.2149L14.8289 12.7176L14.8289 12.7176L14.8808 13.2149ZM16.2919 13.0889L16.2523 12.5905L16.2523 12.5905L16.2919 13.0889ZM20.7782 12.7784L20.7466 12.2794V12.2794L20.7782 12.7784ZM33.7187 12.0381L33.6921 11.5389V11.5389L33.7187 12.0381ZM53.5673 11.0977L53.5704 11.5977L54.0458 11.5948L54.0668 11.1198L53.5673 11.0977ZM53.5995 8.461L53.1 8.48165L53.1 8.48181L53.5995 8.461ZM54.0234 8.00006L54.0434 8.49966C54.0113 8.50095 53.9851 8.47633 53.9838 8.44503L54.4833 8.42389L54.9829 8.40275C54.9609 7.88387 54.5229 7.47964 54.0033 7.50046L54.0234 8.00006ZM54.4833 8.42389L53.9838 8.4447C54.0573 10.2102 53.8587 13.6809 53.4643 17.0205L53.9609 17.0792L54.4574 17.1378C54.8542 13.778 55.0597 10.2465 54.9829 8.40307L54.4833 8.42389ZM53.9609 17.0792L53.4643 17.0205C53.2672 18.6898 53.0217 20.3252 52.7369 21.6973L53.2265 21.7989L53.7161 21.9005C54.0088 20.4903 54.2583 18.824 54.4574 17.1378L53.9609 17.0792ZM53.2265 21.7989L52.7369 21.6973C52.4517 23.0711 52.1277 24.1752 51.7787 24.7862L52.2128 25.0342L52.647 25.2823C53.0826 24.5197 53.4309 23.274 53.716 21.9005L53.2265 21.7989ZM52.2128 25.0342L51.7788 24.786C51.7942 24.7591 51.8289 24.7489 51.8571 24.765L51.6093 25.1993L51.3615 25.6336C51.8139 25.8917 52.389 25.7334 52.6469 25.2824L52.2128 25.0342ZM51.6093 25.1993L51.8574 24.7652C51.8863 24.7817 51.8943 24.8167 51.8794 24.8429L51.4452 24.5948L51.0111 24.3467C50.7537 24.7973 50.9079 25.3744 51.3612 25.6334L51.6093 25.1993ZM51.4452 24.5948L51.8795 24.8427C52.2383 24.2142 52.5638 23.0942 52.8489 21.7208L52.3593 21.6192L51.8697 21.5176C51.5842 22.893 51.283 23.8705 51.011 24.3469L51.4452 24.5948ZM52.3593 21.6192L52.8489 21.7208C53.1346 20.3442 53.3811 18.7046 53.5785 17.0333L53.082 16.9747L52.5854 16.916C52.3901 18.5701 52.1476 20.1789 51.8697 21.5176L52.3593 21.6192ZM53.082 16.9747L53.5785 17.0333C53.7824 15.3065 53.9317 13.5495 54.0206 12.0123L53.5214 11.9835L53.0222 11.9546C52.9345 13.4728 52.7869 15.2099 52.5854 16.916L53.082 16.9747ZM53.5214 11.9835L53.5151 11.4835C52.1031 11.5013 42.897 11.9349 33.739 12.4226L33.7655 12.9219L33.7921 13.4212C42.9627 12.9329 52.1416 12.5009 53.5277 12.4834L53.5214 11.9835ZM33.7655 12.9219L33.739 12.4226C29.0652 12.6715 24.4046 12.935 20.8023 13.1632L20.8339 13.6622L20.8655 14.1612C24.463 13.9333 29.1199 13.67 33.7921 13.4212L33.7655 12.9219ZM20.8339 13.6622L20.8023 13.1632C19.0017 13.2772 17.4646 13.3825 16.3226 13.4733L16.3622 13.9717L16.4018 14.4702C17.5359 14.38 19.0667 14.2751 20.8655 14.1612L20.8339 13.6622ZM16.3622 13.9717L16.3226 13.4733C15.7521 13.5187 15.2785 13.5601 14.9207 13.5975L14.9726 14.0948L15.0245 14.5921C15.3701 14.556 15.8341 14.5153 16.4018 14.4702L16.3622 13.9717ZM14.9726 14.0948L14.9207 13.5975C14.5657 13.6345 14.3188 13.6678 14.2033 13.6965L14.3241 14.1817L14.445 14.6669C14.4439 14.6671 14.4469 14.6664 14.4554 14.6647C14.4634 14.6631 14.4745 14.6611 14.489 14.6586C14.5182 14.6537 14.5573 14.6478 14.6075 14.6409C14.7079 14.6272 14.8457 14.6107 15.0245 14.5921L14.9726 14.0948ZM14.3241 14.1817L14.2026 13.6967C14.0167 13.7433 13.7298 13.8804 13.3695 14.0826L13.6142 14.5186L13.8589 14.9547C14.0336 14.8566 14.1716 14.7856 14.2752 14.7371C14.327 14.7128 14.3679 14.6953 14.3987 14.6833C14.414 14.6773 14.4258 14.6731 14.4343 14.6703C14.443 14.6674 14.4466 14.6665 14.4457 14.6667L14.3241 14.1817ZM13.6142 14.5186L13.3695 14.0826C13.0059 14.2866 12.5599 14.5613 12.0536 14.8904L12.3261 15.3096L12.5986 15.7289C13.0955 15.4059 13.5215 15.144 13.8589 14.9546L13.6142 14.5186ZM12.3261 15.3096L12.0536 14.8904C11.0412 15.5484 9.78475 16.4239 8.45357 17.379L8.74504 17.7852L9.03651 18.1915C10.3632 17.2396 11.6052 16.3745 12.5986 15.7289L12.3261 15.3096ZM8.74504 17.7852L8.45357 17.379C5.79071 19.2894 2.82485 21.524 0.906983 22.9993L1.21184 23.3956L1.51669 23.7919C3.42882 22.321 6.38536 20.0936 9.03651 18.1915L8.74504 17.7852ZM1.21184 23.3956L0.907087 22.9992C0.932761 22.9794 0.968838 22.9847 0.987818 23.0094L0.591721 23.3145L0.195623 23.6196C0.512655 24.0312 1.10368 24.1094 1.51659 23.792L1.21184 23.3956ZM0.591721 23.3145L0.988113 23.0098C1.00757 23.0351 1.00266 23.0715 0.97763 23.0907L0.672775 22.6944L0.36792 22.2981C-0.0444559 22.6153 -0.121971 23.2066 0.195328 23.6193L0.591721 23.3145ZM0.672775 22.6944L0.97763 23.0907C2.89483 21.6159 5.85849 19.3812 8.51991 17.4717L8.22844 17.0655L7.93697 16.6592C5.26364 18.5772 2.29058 20.8191 0.367921 22.2981L0.672775 22.6944ZM8.22844 17.0655L8.51991 17.4717C9.85043 16.5172 11.1059 15.6442 12.1162 14.9876L11.8437 14.5684L11.5712 14.1492C10.5423 14.8179 9.27268 15.7009 7.93697 16.6592L8.22844 17.0655ZM11.8437 14.5684L12.1162 14.9877C12.6218 14.659 13.0649 14.3845 13.4253 14.1822L13.1806 13.7462L12.9359 13.3101C12.548 13.5278 12.0842 13.8158 11.5712 14.1492L11.8437 14.5684ZM13.1806 13.7462L13.4253 14.1822C13.7865 13.9795 14.0623 13.8507 14.2315 13.8084L14.1103 13.3233L13.989 12.8382C13.6758 12.9165 13.2953 13.1084 12.9359 13.3101L13.1806 13.7462ZM14.1103 13.3233L14.2312 13.8085C14.3376 13.7819 14.5758 13.7495 14.9327 13.7122L14.8808 13.2149L14.8289 12.7176C14.4885 12.7531 14.1768 12.7914 13.9894 12.8381L14.1103 13.3233ZM14.8808 13.2149L14.9327 13.7122C15.2893 13.675 15.7616 13.6327 16.3315 13.5874L16.2919 13.0889L16.2523 12.5905C15.6779 12.6362 15.1967 12.6792 14.8289 12.7176L14.8808 13.2149ZM16.2919 13.0889L16.3315 13.5874C17.4727 13.4967 19.0091 13.3914 20.8099 13.2774L20.7782 12.7784L20.7466 12.2794C18.9442 12.3935 17.4014 12.4992 16.2523 12.5905L16.2919 13.0889ZM20.7782 12.7784L20.8099 13.2774C24.4117 13.0492 29.0717 12.7863 33.7453 12.5374L33.7187 12.0381L33.6921 11.5389C29.0171 11.7878 24.3533 12.0509 20.7466 12.2794L20.7782 12.7784ZM33.7187 12.0381L33.7453 12.5374C43.0092 12.0441 52.3287 11.6054 53.5704 11.5977L53.5673 11.0977L53.5642 10.5977C52.2922 10.6056 42.9395 11.0464 33.6921 11.5389L33.7187 12.0381ZM53.5673 11.0977L54.0668 11.1198C54.1139 10.0534 54.1276 9.12416 54.0991 8.44019L53.5995 8.461L53.1 8.48181C53.1267 9.12394 53.1144 10.0205 53.0678 11.0757L53.5673 11.0977ZM53.5995 8.461L54.0991 8.44035C54.1004 8.4715 54.0765 8.49828 54.0442 8.49963L54.0234 8.00006L54.0025 7.50049C53.482 7.52218 53.0785 7.96229 53.1 8.48165L53.5995 8.461Z" fill="#717680"/>
</svg>
