<svg width="55" height="30" viewBox="0 0 55 30" fill="none" xmlns="http://www.w3.org/2000/svg">
<path fill-rule="evenodd" clip-rule="evenodd" d="M40.0801 7C45.7317 7.00002 49.2502 7.91342 51.3574 9.5625C53.5335 11.2658 54.0312 13.6066 54.0312 15.9199C54.0311 18.2827 53.2029 21.5739 51.2168 24.2939C49.2048 27.0493 45.9959 29.2216 41.3242 29.2217C34.0795 29.2216 29.0591 23.39 28.0986 16.8066H25.9326C24.9722 23.39 19.9518 29.2216 12.707 29.2217C8.03538 29.2216 4.82642 27.0493 2.81445 24.2939C0.828399 21.5739 0.000114095 18.2827 0 15.9199C1.97852e-05 13.6066 0.497719 11.2658 2.67383 9.5625C4.78109 7.91342 8.29958 7.00002 13.9512 7C18.5243 7.00002 21.5783 7.92844 23.4912 9.5918C25.1876 11.0671 25.8615 13.0084 26.0049 15.0342H28.0264C28.1699 13.0086 28.8438 11.067 30.54 9.5918C32.4529 7.92844 35.507 7.00002 40.0801 7ZM13.9512 8.77344C8.40512 8.77346 5.391 9.68597 3.76562 10.958C2.20979 12.1759 1.77346 13.8519 1.77344 15.9199C1.77355 17.9388 2.4999 20.8564 4.24609 23.248C5.96676 25.6045 8.66965 27.4492 12.707 27.4492C19.09 27.4491 23.6553 22.0993 24.2617 15.876C24.2543 13.852 23.7345 12.1517 22.3281 10.9287C20.8816 9.67088 18.3363 8.77345 13.9512 8.77344ZM40.0801 8.77344C35.6949 8.77345 33.1496 9.67088 31.7031 10.9287C30.2967 12.1517 29.777 13.852 29.7695 15.876C30.3759 22.0993 34.9412 27.4491 41.3242 27.4492C45.3616 27.4492 48.0645 25.6045 49.7852 23.248C51.5313 20.8564 52.2577 17.9388 52.2578 15.9199C52.2578 13.8519 51.8215 12.1759 50.2656 10.958C48.6402 9.68597 45.6261 8.77346 40.0801 8.77344Z" fill="#717680"/>
<path d="M23.9096 2.89393C23.851 2.95251 23.851 3.04749 23.9096 3.10607L24.8642 4.06066C24.9227 4.11924 25.0177 4.11924 25.0763 4.06066C25.1349 4.00208 25.1349 3.90711 25.0763 3.84853L24.2278 3L25.0763 2.15147C25.1349 2.09289 25.1349 1.99792 25.0763 1.93934C25.0177 1.88076 24.9227 1.88076 24.8642 1.93934L23.9096 2.89393ZM31.1217 3.10607C31.1803 3.04749 31.1803 2.95251 31.1217 2.89393L30.1671 1.93934C30.1085 1.88076 30.0135 1.88076 29.955 1.93934C29.8964 1.99792 29.8964 2.09289 29.955 2.15147L30.8035 3L29.955 3.84853C29.8964 3.90711 29.8964 4.00208 29.955 4.06066C30.0135 4.11924 30.1085 4.11924 30.1671 4.06066L31.1217 3.10607ZM24.0156 3L24.0156 3.15L31.0156 3.15L31.0156 3L31.0156 2.85L24.0156 2.85L24.0156 3Z" fill="#717680"/>
</svg>
