<svg width="40" height="40" viewBox="0 0 40 40" fill="none" xmlns="http://www.w3.org/2000/svg">
<path d="M17.2308 18.1538C17.2308 17.4194 17.5225 16.715 18.0419 16.1957C18.5612 15.6763 19.2656 15.3846 20 15.3846C20.7345 15.3846 21.4388 15.6763 21.9581 16.1957C22.4775 16.715 22.7692 17.4194 22.7692 18.1538" stroke="#0E1829" stroke-width="2.76923" stroke-linecap="round" stroke-linejoin="round"/>
<path d="M36.6154 15.3846H38" stroke="#0E1829" stroke-width="2.76923" stroke-linecap="round" stroke-linejoin="round"/>
<path d="M3.38462 15.3846H2" stroke="#0E1829" stroke-width="2.76923" stroke-linecap="round" stroke-linejoin="round"/>
<path d="M3.38461 15.3846C3.38461 23.6923 4.76923 26.4615 10.3077 26.4615C15.8462 26.4615 17.2308 23.6923 17.2308 15.3846C17.2308 15.3846 15.8462 14 10.3077 14C4.76923 14 3.38461 15.3846 3.38461 15.3846Z" stroke="#0E1829" stroke-width="2.76923" stroke-linecap="round" stroke-linejoin="round"/>
<path d="M36.6154 15.3846C36.6154 23.6923 35.2308 26.4615 29.6923 26.4615C24.1538 26.4615 22.7692 23.6923 22.7692 15.3846C22.7692 15.3846 24.1538 14 29.6923 14C35.2308 14 36.6154 15.3846 36.6154 15.3846Z" stroke="#0E1829" stroke-width="2.76923" stroke-linecap="round" stroke-linejoin="round"/>
</svg>
