<svg width="69" height="42" viewBox="0 0 69 42" fill="none" xmlns="http://www.w3.org/2000/svg">
<mask id="mask0_342_4648" style="mask-type:luminance" maskUnits="userSpaceOnUse" x="0" y="0" width="69" height="42">
<path d="M69 0H0V42H69V0Z" fill="white"/>
</mask>
<g mask="url(#mask0_342_4648)">
<path d="M11.6196 0.310303V19.1255H8.4801V3.01887H3.1395V19.1255H0V0.310303H11.6196Z" fill="#1928DC"/>
<path d="M17.2925 18.388C16.3541 17.5265 15.671 16.4169 15.3122 15.197C14.7947 13.474 14.5532 11.6889 14.5877 9.89012C14.5532 8.04306 14.8016 6.20289 15.3122 4.43164C15.6572 3.16351 16.3403 2.01943 17.2925 1.10968C18.1205 0.399803 19.1762 0.00695801 20.2664 0.00695801C21.3566 0.00695801 22.4123 0.399803 23.2403 1.10968C24.1925 2.01254 24.8756 3.15661 25.2068 4.42475C25.7243 6.20289 25.9658 8.04306 25.9313 9.89012C25.9658 11.6889 25.7174 13.4809 25.2068 15.2039C24.8618 16.4307 24.1856 17.5334 23.2472 18.3949C22.4054 19.0772 21.3497 19.4494 20.2664 19.4494C19.1831 19.4494 18.1274 19.0772 17.2856 18.3949L17.2925 18.388ZM18.0653 13.6256C18.1895 14.4457 18.4931 15.2314 18.9554 15.9206C19.1003 16.1412 19.2935 16.3204 19.5212 16.4444C19.7489 16.5685 20.0042 16.6374 20.2664 16.6443C21.0461 16.6443 21.6533 16.0792 22.1018 14.9489C22.6262 13.3086 22.847 11.5856 22.7711 9.86944C22.7918 8.55996 22.6883 7.25048 22.4675 5.96167C22.3502 5.11395 22.0535 4.30069 21.5912 3.58392C21.4601 3.34959 21.2738 3.14972 21.0392 3.01188C20.8046 2.87404 20.5424 2.80512 20.2733 2.80512C20.0042 2.80512 19.742 2.88093 19.5074 3.01188C19.2728 3.14972 19.0865 3.34959 18.9554 3.58392C18.5 4.30758 18.1964 5.11395 18.0653 5.95478C17.8376 7.24358 17.7341 8.54618 17.7548 9.85566C17.7272 11.11 17.8307 12.3781 18.0653 13.6256Z" fill="#1928DC"/>
<path d="M36.305 0.310303V7.52625H34.6421C34.0418 7.56071 33.4346 7.45044 32.8826 7.20922C32.4479 6.97489 32.1098 6.58894 31.9442 6.12717C31.7234 5.47932 31.6199 4.79701 31.6475 4.1147V0.310303H28.508V4.10092C28.4183 5.73433 28.9082 7.34706 29.888 8.65654C30.4055 9.22858 31.0472 9.67657 31.7579 9.96603C32.4755 10.2555 33.2414 10.3796 34.0142 10.3244H36.305V19.1255H39.4445V0.310303H36.305Z" fill="#1928DC"/>
<path d="M53.2211 3.01887H49.5365V19.1255H46.397V3.01887H42.7124V0.310303H53.2211V3.01887Z" fill="#1928DC"/>
<path d="M59.5464 0.310359H62.058C63.093 0.255223 64.1211 0.510228 65.0181 1.03402C65.7978 1.55092 66.405 2.29526 66.7569 3.16366C67.1916 4.23881 67.4607 5.36911 67.5642 6.52697L69.0201 19.0911H65.8806L64.8594 10.3107H59.5326V19.1256H56.3931V0.310359H59.5464ZM59.5464 7.64347H64.5627L64.4316 6.56143C64.3764 5.86533 64.2315 5.18302 64.0038 4.52139C63.8451 4.0803 63.5346 3.70124 63.1275 3.46691C62.6031 3.2119 62.0166 3.10163 61.437 3.13609H59.5464V7.64347Z" fill="#1928DC"/>
<path d="M3.4569 22.8747C4.5057 22.8472 5.5338 23.116 6.4377 23.6535C7.3209 24.2118 8.0109 25.0319 8.4042 25.9968C8.9148 27.2236 9.1632 28.5469 9.1287 29.8839C9.1632 31.1452 8.9355 32.3926 8.4663 33.5643C8.1213 34.4602 7.5555 35.2597 6.831 35.8938C6.3411 36.3555 5.6994 36.6312 5.0301 36.6795C4.6782 36.707 4.3332 36.6519 4.002 36.5278C3.6777 36.4038 3.381 36.2039 3.1395 35.9558V41.6968H0V22.8816H3.4569V22.8747ZM3.3189 32.6201C3.3948 32.9578 3.5535 33.2679 3.7812 33.5298C3.8571 33.6194 3.9468 33.6952 4.0503 33.7503C4.1538 33.8055 4.2711 33.833 4.3884 33.8399C4.6644 33.8262 4.9266 33.7021 5.1129 33.5091C5.4096 33.2059 5.6166 32.8268 5.7201 32.4202C5.8995 31.793 5.9754 31.1452 5.9616 30.4973C5.9616 28.7398 5.7477 27.4993 5.313 26.7756C5.1336 26.4379 4.8645 26.1622 4.5402 25.9692C4.209 25.7763 3.8364 25.6798 3.4569 25.6936H3.1395V31.1796C3.1395 31.6552 3.1947 32.1445 3.3189 32.6201Z" fill="#1928DC"/>
<path d="M12.5971 40.9389C11.6518 40.0774 10.9687 38.9678 10.6237 37.7341C10.1062 36.0111 9.86473 34.2261 9.89923 32.4272C9.86473 30.5871 10.1131 28.7469 10.6237 26.9756C10.9687 25.7075 11.6518 24.5634 12.5971 23.6606C13.4251 22.9507 14.4808 22.5579 15.571 22.5579C16.6612 22.5579 17.7169 22.9507 18.5449 23.6606C19.4902 24.5634 20.1733 25.7075 20.5114 26.9688C21.0289 28.7469 21.2704 30.5871 21.2359 32.4341C21.2842 34.233 21.0496 36.0249 20.5459 37.7479C20.2078 38.9747 19.5247 40.0843 18.5863 40.9389C17.7445 41.6212 16.6888 42.0003 15.6055 42.0003C14.5153 42.0003 13.4665 41.6281 12.6247 40.9389H12.5971ZM13.3768 36.1834C13.501 36.9829 13.8046 37.7479 14.2531 38.4164C14.398 38.6301 14.5912 38.8093 14.8189 38.9333C15.0466 39.0574 15.295 39.1332 15.5572 39.1401C16.33 39.1401 16.9441 38.5749 17.3857 37.4446C17.917 35.8043 18.1447 34.0813 18.0619 32.3652C18.0826 31.0557 17.9791 29.7462 17.7583 28.4574C17.641 27.6166 17.3374 26.8102 16.882 26.0935C16.7509 25.8591 16.5646 25.6593 16.33 25.5214C16.0954 25.3836 15.8332 25.3147 15.5641 25.3147C15.295 25.3147 15.0328 25.3905 14.7982 25.5214C14.5636 25.6593 14.3773 25.8591 14.2462 26.0935C13.7908 26.8378 13.4941 27.6649 13.3837 28.5332C13.156 29.8221 13.0525 31.1246 13.0732 32.4341C13.0456 33.6885 13.1491 34.9428 13.3768 36.1834Z" fill="#1928DC"/>
<path d="M23.396 27.1271C24.1619 25.7073 25.3694 24.577 26.8322 23.9016C28.5503 23.1573 30.4064 22.8058 32.2763 22.8678V25.6936C30.0407 25.6936 28.3295 26.2518 27.1427 27.3821C25.9559 28.5124 25.3625 30.194 25.3625 32.4615C25.3625 34.729 25.949 36.2384 27.1358 37.2928C28.3226 38.3542 30.0407 38.8918 32.2763 38.8918V41.6762C29.0609 41.6762 26.5838 40.9043 24.8381 39.3535C23.0924 37.8028 22.223 35.494 22.223 32.4202C22.154 30.5938 22.5542 28.7674 23.396 27.1271Z" fill="#1928DC"/>
<path d="M33.9604 27.1271C34.7263 25.7073 35.9338 24.577 37.4035 23.9016C39.1078 23.1504 40.957 22.792 42.82 22.8402V25.666C40.5913 25.666 38.8801 26.2242 37.6864 27.3545C36.4927 28.4848 35.9062 30.194 35.9062 32.427C35.9062 34.6601 36.4927 36.2039 37.6795 37.2583C38.8663 38.3197 40.5844 38.8573 42.8131 38.8573V41.683C39.5977 41.683 37.1206 40.9111 35.3749 39.3604C33.6292 37.8097 32.7598 35.5009 32.7598 32.427C32.7046 30.5938 33.1117 28.7674 33.9604 27.1271Z" fill="#1928DC"/>
<path d="M47.4399 22.8749V29.5877L52.7736 25.0941L55.9131 22.4545V41.6901H52.7736V28.8847L47.4399 33.3783V41.6901H44.2935V22.8749H47.4399Z" fill="#1928DC"/>
<path d="M60.5252 22.8679V29.5808L65.8589 25.0872L68.9846 22.4613V41.6832H65.8451V28.8778L60.5114 33.3714V41.6832H57.3857V22.8679H60.5252Z" fill="#1928DC"/>
</g>
</svg>
