<svg width="59" height="42" viewBox="0 0 59 42" fill="none" xmlns="http://www.w3.org/2000/svg">
<path d="M17.0087 20.9055C17.0593 9.38532 26.342 0 38.0035 0C49.5642 0 59.1317 9.43671 58.9986 21C58.9986 32.5634 49.5642 42 38.0035 42C26.4742 42 17.0596 32.7465 17.0087 21.0949V36.6836H9.56739L0 6.11391H17.0087V20.9055ZM30.1637 21C30.1637 25.2531 33.7514 28.8418 38.0035 28.8418C42.3887 28.8418 45.8436 25.2531 45.8436 21C45.8436 16.7469 42.2558 13.1582 38.0035 13.1582C33.7514 13.1582 30.1637 16.7469 30.1637 21Z" fill="#0076EB"/>
</svg>
