<svg width="40" height="42" viewBox="0 0 40 42" fill="none" xmlns="http://www.w3.org/2000/svg">
<mask id="mask0_342_4623" style="mask-type:luminance" maskUnits="userSpaceOnUse" x="0" y="0" width="40" height="42">
<path d="M20 0C31.0457 0 40 8.8542 40 19.7764V22.2236C40 33.1458 31.0457 42 20 42C8.95431 42 0 33.1458 0 22.2236V19.7764C0 8.8542 8.95431 0 20 0Z" fill="white"/>
</mask>
<g mask="url(#mask0_342_4623)">
<path d="M20 0C31.0457 0 40 8.8542 40 19.7764V22.2236C40 33.1458 31.0457 42 20 42C8.95431 42 0 33.1458 0 22.2236V19.7764C0 8.8542 8.95431 0 20 0Z" fill="#E6E6E6"/>
<mask id="mask1_342_4623" style="mask-type:luminance" maskUnits="userSpaceOnUse" x="-2" y="2" width="36" height="38">
<path d="M33.6035 2.72998H-1.39648V39.48H33.6035V2.72998Z" fill="white"/>
</mask>
<g mask="url(#mask1_342_4623)">
<path d="M-1.39648 9.34498L16.1032 2.72998L33.6029 9.34498V32.865L16.1032 39.4799L-1.39648 32.865V9.34498Z" fill="#FF7751"/>
<path d="M-1.39648 9.34497L16.1032 15.9599V39.4799L-1.39648 32.8649V9.34497Z" fill="#E13100"/>
<path d="M33.6008 9.34497L16.1011 15.9599V39.4799L33.6008 32.8649V9.34497Z" fill="#FC4714"/>
<path d="M31.6716 28.6506C27.9154 32.4722 21.8882 34.6582 18.0229 33.8679V31.7994C21.8103 32.6107 27.8871 30.6297 31.6716 26.5835V28.6506ZM23.9171 22.6145L22.6768 23.0904V28.6356L19.5733 29.821V24.277L18.3316 24.7487L21.125 16.748L23.9171 22.6145ZM31.3629 19.7694L30.1212 20.2452V25.7892L27.0192 26.9745V21.4291L25.7789 21.9036L28.5709 13.9028L31.3629 19.7694Z" fill="white"/>
</g>
</g>
</svg>
