<svg width="42" height="42" viewBox="0 0 42 42" fill="none" xmlns="http://www.w3.org/2000/svg">
<path d="M21 0C32.598 0 42 9.40202 42 21C42 32.598 32.598 42 21 42C9.40202 42 0 32.598 0 21C0 9.40202 9.40202 0 21 0Z" fill="#F8604A"/>
<path d="M23.9581 33.6209H28.3454V8.4209H21.9638C15.546 8.4209 12.1739 11.7204 12.1739 16.5791C12.1739 20.4589 14.0231 22.7432 17.3227 25.1L11.5938 33.6209H16.3436L22.7253 24.0848L20.5134 22.5982C17.8303 20.7852 16.5249 19.3711 16.5249 16.3254C16.5249 13.6422 18.4104 11.8293 22.0001 11.8293H23.9581V33.6209Z" fill="white" fill-opacity="0.98"/>
</svg>
