<svg width="157" height="173" viewBox="0 0 157 173" fill="none" xmlns="http://www.w3.org/2000/svg">
<path d="M62.6283 52.0006C59.5495 34.5891 61.6216 16.2858 68.5234 0C79.365 15.9057 87.3612 33.7558 92.0159 52.4538C97.4149 39.0918 105.148 26.6801 114.764 15.9496C120.455 36.6212 113.903 58.4769 107.396 78.9146C121.52 72.4383 135.645 65.962 149.77 59.5003C151.506 58.6962 153.739 57.9653 155.183 59.2225C157.08 60.8745 155.636 63.9738 154.03 65.9327C145.582 76.2978 135.12 84.9962 123.403 91.3994C133.471 102.773 142.985 114.629 151.886 126.939C154.045 129.921 156 134.526 153.111 136.807C150.762 138.663 147.347 137.055 144.838 135.418C130.523 126.149 116.209 116.881 101.895 107.612C105.44 126.719 106.462 146.28 104.915 165.651C104.725 168.063 104.127 170.957 101.851 171.761C99.2826 172.653 96.8895 170.153 95.3719 167.902C83.3192 150.154 74.8561 129.98 70.6245 108.943C64.5836 123.766 56.996 137.962 48.0221 151.207C45.7896 154.525 42.0395 158.195 38.4354 156.484C34.7437 154.715 35.3712 149.306 36.6698 145.417C41.8353 129.965 48.2265 114.936 55.7849 100.522C43.2069 109.644 27.2727 114.893 11.9807 112.203C8.53707 111.603 4.4952 109.834 4.24714 106.34C3.99908 102.788 7.83671 100.507 11.1052 99.1184C26.3389 92.5982 41.5726 86.078 56.8063 79.5725C38.5667 80.0549 20.2251 74.061 5.76473 62.9066C2.35029 60.2751 -1.1809 56.1671 0.380409 52.1468C1.73743 48.6528 6.08569 47.5856 9.80656 47.1324C32.1756 44.4571 55.0991 46.65 76.5634 53.4918" fill="#F1BE56"/>
<path d="M115.913 54.239L76.5801 69.3823C62.4482 74.8234 58.9644 93.4318 70.3149 102.844L102.053 129.159C113.404 138.571 131.047 131.697 133.773 116.807L141.368 75.3478C144.083 60.523 130.523 48.62 115.923 54.2484" fill="#5690F4"/>
<path d="M115.913 54.2387L76.5801 69.382C62.4482 74.8231 58.9644 93.4315 70.3149 102.843L102.053 129.159C113.404 138.571 131.047 131.697 133.773 116.807L141.368 75.3475C144.083 60.5227 130.523 48.6197 115.923 54.2481L115.913 54.2387Z" stroke="black" stroke-width="1.78873" stroke-linejoin="round"/>
<path d="M54.7416 71.4238C58.7123 80.0771 62.6831 88.7305 66.6539 97.3838C67.3375 98.8728 68.0867 100.437 69.4353 101.373C70.7838 102.3 72.9379 102.272 73.8088 100.886C74.5299 99.7344 74.1084 98.2454 73.6496 96.9717C70.5778 88.4589 66.6632 80.2738 62.2523 72.3697C61.4937 71.0211 60.5759 69.5602 59.0869 69.1575C57.4293 68.708 55.753 69.7569 54.4231 70.8432" fill="white"/>
<path d="M54.7416 71.4238C58.7123 80.0771 62.6831 88.7305 66.6539 97.3838C67.3375 98.8728 68.0867 100.437 69.4353 101.373C70.7838 102.3 72.9379 102.272 73.8088 100.886C74.5299 99.7344 74.1084 98.2454 73.6496 96.9717C70.5778 88.4589 66.6632 80.2738 62.2523 72.3697C61.4937 71.0211 60.5759 69.5602 59.0869 69.1575C57.4293 68.708 55.753 69.7569 54.4231 70.8432" stroke="black" stroke-width="1.78873" stroke-miterlimit="10" stroke-linecap="round"/>
<path d="M69.2663 104.857C63.1415 112.152 57.0261 119.448 51.3603 127.249C60.332 121.667 68.7231 115.168 76.2339 107.695C76.0372 106.196 74.9415 104.848 73.518 104.342C72.0946 103.836 70.3995 104.192 69.2944 105.232" fill="white"/>
<path d="M69.2663 104.857C63.1415 112.152 57.0261 119.448 51.3603 127.249C60.332 121.667 68.7231 115.168 76.2339 107.695C76.0372 106.196 74.9415 104.848 73.518 104.342C72.0946 103.836 70.3995 104.192 69.2944 105.232" stroke="black" stroke-width="1.78873" stroke-linecap="round" stroke-linejoin="round"/>
<path d="M74.1458 110.504C80.6358 115.832 87.1352 121.161 93.5783 126.04C94.3463 125.057 95.1142 124.074 95.7791 123.175C89.158 118.445 82.8179 113.332 76.6182 107.844C75.8035 108.649 74.9794 109.455 74.1646 110.26" fill="white"/>
<path d="M74.1458 110.504C80.6358 115.832 87.1352 121.161 93.5783 126.04C94.3463 125.057 95.1142 124.074 95.7791 123.175C89.158 118.445 82.8179 113.332 76.6182 107.844C75.8035 108.649 74.9794 109.455 74.1646 110.26" stroke="black" stroke-width="1.78873" stroke-linecap="round" stroke-linejoin="round"/>
<path d="M73.4055 111.197C73.9205 113.688 74.445 116.179 75.2691 119.176C76.5896 119.56 77.8632 120.056 79.0901 120.674C78.7904 118.333 78.2565 116.029 77.1983 113.585C76.3461 112.33 75.138 111.319 73.752 110.691" fill="white"/>
<path d="M73.4055 111.197C73.9205 113.688 74.445 116.179 75.2691 119.176C76.5896 119.56 77.8632 120.056 79.0901 120.674C78.7904 118.333 78.2565 116.029 77.1983 113.585C76.3461 112.33 75.138 111.319 73.752 110.691" stroke="black" stroke-width="1.78873" stroke-linecap="round" stroke-linejoin="round"/>
<path d="M80.1674 142.973C78.6783 145.848 77.0956 148.676 75.3631 151.757C76.3839 151.86 77.4047 151.963 78.4255 152.066C80.2517 149.519 81.8718 146.831 83.2672 144.022C82.2183 143.497 81.1694 142.973 80.1206 142.448" fill="white"/>
<path d="M80.1674 142.973C78.6783 145.848 77.0956 148.676 75.3631 151.757C76.3839 151.86 77.4047 151.963 78.4255 152.066C80.2517 149.519 81.8718 146.831 83.2672 144.022C82.2183 143.497 81.1694 142.973 80.1206 142.448" stroke="black" stroke-width="1.78873" stroke-linecap="round" stroke-linejoin="round"/>
<path d="M75.5513 151.607C73.21 151.645 70.8781 151.673 68.3964 151.72C68.3964 153.04 68.5275 154.361 68.8272 156.084C72.5451 155.859 76.2443 155.447 79.9903 154.754C80.0372 153.686 79.9529 152.619 79.5596 151.504C77.7615 151.579 75.9728 151.654 74.1747 151.729" fill="white"/>
<path d="M75.5513 151.607C73.21 151.645 70.8781 151.673 68.3964 151.72C68.3964 153.04 68.5275 154.361 68.8272 156.084C72.5451 155.859 76.2443 155.447 79.9903 154.754C80.0372 153.686 79.9529 152.619 79.5596 151.504C77.7615 151.579 75.9728 151.654 74.1747 151.729" stroke="black" stroke-width="1.78873" stroke-linecap="round" stroke-linejoin="round"/>
<path d="M62.6359 125.039C69.4162 131.416 76.1965 137.794 83.2109 144.396C83.8571 143.535 84.6063 142.748 85.3555 141.793C79.4648 134.806 73.0686 128.232 65.9698 122.032C64.4527 122.407 63.076 123.372 62.2144 124.683" fill="white"/>
<path d="M62.6359 125.039C69.4162 131.416 76.1965 137.794 83.2109 144.396C83.8571 143.535 84.6063 142.748 85.3555 141.793C79.4648 134.806 73.0686 128.232 65.9698 122.032C64.4527 122.407 63.076 123.372 62.2144 124.683" stroke="black" stroke-width="1.78873" stroke-linecap="round" stroke-linejoin="round"/>
<path d="M66.0728 122.041C68.0207 120.871 70.0061 119.681 72.2256 119.166C74.4358 118.661 76.9644 118.932 78.6688 120.431C79.9143 121.517 80.5886 123.137 80.8508 124.776C81.113 126.405 80.9913 128.072 80.9539 129.646C80.7666 129.337 80.9351 128.906 81.2348 128.7C81.5345 128.503 81.9278 128.484 82.2837 128.55C83.0048 128.681 83.651 129.084 84.241 129.515C85.6926 130.582 86.9381 131.893 88.193 133.186C88.193 133.195 88.193 133.214 88.3054 133.336C87.4251 135.602 86.1796 137.728 84.4751 139.91C79.418 132.961 73.0778 126.939 65.8855 122.247" fill="white"/>
<path d="M66.0728 122.041C68.0207 120.871 70.0061 119.681 72.2256 119.166C74.4358 118.661 76.9644 118.932 78.6688 120.431C79.9143 121.517 80.5886 123.137 80.8508 124.776C81.113 126.405 80.9913 128.072 80.9539 129.646C80.7666 129.337 80.9351 128.906 81.2348 128.7C81.5345 128.503 81.9278 128.484 82.2837 128.55C83.0048 128.681 83.651 129.084 84.241 129.515C85.6926 130.582 86.9381 131.893 88.193 133.186C88.193 133.195 88.193 133.214 88.3054 133.336C87.4251 135.602 86.1796 137.728 84.4751 139.91C79.418 132.961 73.0778 126.939 65.8855 122.247" stroke="black" stroke-width="1.78873" stroke-linecap="round" stroke-linejoin="round"/>
<path d="M79.9993 142.252C79.1003 144.612 78.0607 146.915 76.8807 149.144C76.5623 149.753 76.2158 150.381 75.6539 150.774C74.989 151.261 74.1274 151.355 73.3033 151.429C68.8174 151.804 64.3129 151.832 59.827 151.486C59.1621 151.439 58.4222 151.336 58.0102 150.821C57.3546 150.006 58.0944 145.258 57.5138 144.387C62.4679 142.757 65.7082 140.669 68.6957 136.155C70.8684 138.169 73.8559 142.42 75.8131 144.743C75.6165 144.368 75.4198 143.984 75.2231 143.61C76.5998 142.767 78.0607 142.055 79.5685 141.493" fill="white"/>
<path d="M79.9993 142.252C79.1003 144.612 78.0607 146.915 76.8807 149.144C76.5623 149.753 76.2158 150.381 75.6539 150.774C74.989 151.261 74.1274 151.355 73.3033 151.429C68.8174 151.804 64.3129 151.832 59.827 151.486C59.1621 151.439 58.4222 151.336 58.0102 150.821C57.3546 150.006 58.0944 145.258 57.5138 144.387C62.4679 142.757 65.7082 140.669 68.6957 136.155C70.8684 138.169 73.8559 142.42 75.8131 144.743C75.6165 144.368 75.4198 143.984 75.2231 143.61C76.5998 142.767 78.0607 142.055 79.5685 141.493" stroke="black" stroke-width="1.78873" stroke-linecap="round" stroke-linejoin="round"/>
<path d="M85.5709 142.505C85.4585 145.427 85.3462 148.348 85.2244 151.27C83.4732 151.411 81.7031 151.373 79.8208 151.046C81.1974 147.993 82.9487 145.108 85.0184 142.477" fill="white"/>
<path d="M85.5709 142.505C85.4585 145.427 85.3462 148.348 85.2244 151.27C83.4732 151.411 81.7031 151.373 79.8208 151.046C81.1974 147.993 82.9487 145.108 85.0184 142.477" stroke="black" stroke-width="1.78873" stroke-linecap="round" stroke-linejoin="round"/>
<path d="M117.001 105.466C109.509 105.26 102.241 102.928 95.2736 100.146C88.3154 97.3742 81.507 94.1339 74.324 92.008C70.8496 90.9779 67.0755 90.2193 63.6385 91.3806C62.3087 91.8301 61.0256 92.6168 60.3045 93.8155C59.5834 95.0236 59.5553 96.6999 60.548 97.9267C61.934 96.5969 63.5448 95.5012 65.2961 94.6958C63.4793 95.1547 61.8966 96.4658 61.0912 98.1515C60.7259 98.9194 60.5199 99.8185 60.8102 100.624C61.1099 101.42 62.0464 102.01 62.8331 101.691C63.3575 101.476 63.6665 100.961 63.9943 100.502C64.9964 99.1067 66.4386 98.0391 68.0681 97.4866C67.0474 97.9267 66.0453 98.4512 65.2305 99.2004C64.4157 99.9496 63.7883 100.961 63.6666 102.066C63.5448 103.171 63.9944 104.37 64.9215 104.979C65.8486 105.597 67.244 105.484 67.9464 104.613C68.4708 103.977 68.5458 103.096 68.8361 102.319C69.4448 100.689 71.1212 99.5282 72.8162 99.575C78.5477 104.473 85.2343 108.163 92.2206 110.991C99.2069 113.819 106.512 115.805 113.854 117.518" fill="#5690F4"/>
<path d="M117 105.466C101.81 105.025 88.5675 96.2317 74.3232 92.008C70.8488 90.9779 67.0747 90.2193 63.6377 91.3806C60.8844 92.1204 58.4681 95.2577 60.5472 97.9361C61.9332 96.6063 63.544 95.5105 65.2953 94.7051C63.4785 95.164 61.8958 96.4751 61.0904 98.1609C60.7251 98.9288 60.5191 99.8278 60.8094 100.633C61.1091 101.429 62.0456 102.019 62.8323 101.701C63.3567 101.485 63.6657 100.97 63.9935 100.511C64.9956 99.1161 66.4378 98.0485 68.0674 97.4959C66.0726 98.3107 63.928 99.7716 63.6658 102.085C63.3005 104.492 66.0913 106.58 67.9456 104.632C68.47 103.995 68.545 103.115 68.8353 102.338C69.444 100.708 71.1204 99.5469 72.8154 99.5937C84.3719 109.464 99.2624 114.156 113.853 117.537" stroke="black" stroke-width="1.78873" stroke-linecap="round" stroke-linejoin="round"/>
<path d="M95.8534 64.1002C96.3872 61.1034 95.0199 57.9474 92.7348 55.9433C90.4498 53.9392 87.3593 52.9933 84.3157 52.9184C79.2211 52.7873 74.2014 54.9974 70.4835 58.4906C66.7656 61.9837 64.3025 66.6756 63.0102 71.6017C63.0102 71.0117 62.5606 70.4872 62.0175 70.2437C61.4743 70.0002 60.8656 69.9815 60.2756 70.0283C57.7751 70.2156 55.3683 71.3675 53.6545 73.2031C52.9147 73.9991 52.2778 75.0105 52.3809 76.0875C52.4839 77.1645 53.6545 78.1478 54.6378 77.7077C55.7242 77.2301 56.0426 75.4132 57.2319 75.4226C56.2205 76.2655 55.1435 77.1926 54.8345 78.4756C54.5348 79.7586 55.49 81.3881 56.8011 81.2008C57.8219 81.051 58.4026 79.9834 58.8146 79.0375C57.5691 80.3954 57.0915 82.3995 57.5878 84.1695C57.9999 85.6305 59.3765 87.0165 60.8562 86.67C61.8396 86.4453 62.5138 85.5369 62.9634 84.6285C63.4129 83.72 63.7407 82.7273 64.4431 81.9969C65.1454 81.2664 66.3816 80.9011 67.1683 81.538C68.0111 82.2123 67.88 83.5702 68.5636 84.4037C69.3222 85.3308 70.8862 85.2372 71.7758 84.4318C72.6655 83.6358 72.984 82.3621 72.984 81.1634C72.984 79.9646 72.703 78.7846 72.6094 77.5953C72.3378 73.9804 73.9298 70.2905 76.7206 67.9867C77.3481 67.4717 78.0879 67.0128 78.8933 67.0596C79.9516 67.1252 80.7383 68.0523 81.3095 68.9513C81.8714 69.8504 82.0025 69.6163 83.22 70.1313C87.6777 68.4269 92.276 66.4509 96.0126 63.4915" fill="#5690F4"/>
<path d="M95.8539 64.0999C96.9215 57.5724 90.366 52.815 84.3162 52.918C73.7149 52.6464 65.3332 61.7867 63.0107 71.6013C63.0107 71.0113 62.5611 70.4869 62.018 70.2434C58.7589 69.1477 52.3533 72.3599 52.3813 76.0778C52.4844 77.1548 53.655 78.1381 54.6383 77.6979C55.7246 77.2203 56.0431 75.4035 57.2324 75.4129C56.221 76.2557 55.144 77.1829 54.835 78.4659C54.5353 79.7489 55.4905 81.3784 56.8016 81.1911C57.8224 81.0413 58.4031 79.9736 58.8151 79.0278C57.5696 80.3857 57.092 82.3898 57.5883 84.1598C58.0004 85.6208 59.377 87.0068 60.8567 86.6603C62.9732 86.1078 63.1137 83.3825 64.4435 81.9871C65.1459 81.2567 66.3821 80.8914 67.1688 81.5283C68.0116 82.2025 67.8805 83.5605 68.5641 84.394C69.3227 85.3211 70.8867 85.2275 71.7763 84.4221C73.6494 82.6614 72.8065 79.8332 72.6098 77.5856C72.3383 73.9707 73.9303 70.2808 76.7211 67.977C77.3486 67.4619 78.0884 67.0031 78.8938 67.0499C79.9521 67.1154 80.7388 68.0426 81.31 68.9416C81.8719 69.8407 82.003 69.6065 83.2205 70.1216C87.6782 68.4172 92.2765 66.4412 96.0131 63.4818" stroke="black" stroke-width="1.78873" stroke-linecap="round" stroke-linejoin="round"/>
<path d="M110.453 77.3515C109.639 79.7209 109.601 82.3525 110.341 84.7499C111.09 87.1474 112.607 89.292 114.63 90.781C117.206 92.6821 120.652 93.4781 123.724 92.5791C126.861 91.6613 129.352 89.0579 130.541 86.0048C131.74 82.9331 131.675 79.365 130.251 76.3869C128.837 73.4088 126.056 71.0863 122.843 70.3277C119.631 69.5692 116.054 70.4401 113.684 72.8282C113.16 72.3412 112.635 71.8449 112.036 71.283C113.993 68.8106 114.443 65.2612 113.272 62.3206C112.102 59.3894 109.386 57.1511 106.305 56.4487C103.224 55.7463 99.8615 56.5517 97.361 58.4809C94.8605 60.4101 93.2404 63.407 92.8752 66.5442C92.5568 69.2882 93.2029 72.1914 94.9542 74.336C96.6961 76.4712 99.5899 77.7261 102.296 77.2017C104.282 76.8177 105.986 75.9936 107.766 74.8698C108.683 75.8437 109.227 76.0311 110.35 76.7522" fill="#F4C156"/>
<path d="M110.454 77.3519C106.118 90.6596 124.567 99.9778 130.542 86.0145C133.145 79.7493 129.605 71.8639 122.844 70.3468C119.631 69.5882 116.054 70.4592 113.685 72.8473C113.16 72.3603 112.636 71.8639 112.036 71.302C113.994 68.8296 114.443 65.2803 113.273 62.3397C110.791 56.0651 102.503 54.37 97.3613 58.5094C92.66 62.0681 91.1523 69.6444 94.9545 74.3644C98.4851 78.6442 103.608 77.7077 107.775 74.8982C108.693 75.8722 109.236 76.0595 110.36 76.7806" stroke="black" stroke-width="1.78873" stroke-linecap="round" stroke-linejoin="round"/>
<path d="M32.5834 126.509C32.5834 115.739 41.2367 107.001 51.9035 107.001C62.5703 107.001 71.2236 115.739 71.2236 126.509C71.2236 137.279 62.5703 146.016 51.9035 146.016C41.2367 146.016 32.5834 137.279 32.5834 126.509Z" fill="black"/>
<path d="M37.0792 127.258C37.0792 119.232 43.719 112.723 51.9041 112.723C60.0891 112.723 66.729 119.232 66.729 127.258C66.729 135.284 60.0891 141.793 51.9041 141.793C43.719 141.793 37.0792 135.284 37.0792 127.258Z" fill="white"/>
<path d="M51.9041 141.793C60.0916 141.793 66.729 135.285 66.729 127.258C66.729 119.231 60.0916 112.723 51.9041 112.723C43.7165 112.723 37.0792 119.231 37.0792 127.258C37.0792 135.285 43.7165 141.793 51.9041 141.793Z" stroke="black" stroke-width="1.78873" stroke-miterlimit="10"/>
<path d="M86.7043 152.871C86.7043 142.102 95.3577 133.364 106.025 133.364C116.691 133.364 125.345 142.102 125.345 152.871C125.345 163.641 116.691 172.379 106.025 172.379C95.3577 172.379 86.7043 163.641 86.7043 152.871Z" fill="black"/>
<path d="M91.1995 153.798C91.1995 145.773 97.8394 139.264 106.024 139.264C114.209 139.264 120.849 145.773 120.849 153.798C120.849 161.824 114.209 168.333 106.024 168.333C97.8394 168.333 91.1995 161.824 91.1995 153.798Z" fill="white"/>
<path d="M106.015 168.333C114.203 168.333 120.84 161.826 120.84 153.798C120.84 145.771 114.203 139.264 106.015 139.264C97.8279 139.264 91.1905 145.771 91.1905 153.798C91.1905 161.826 97.8279 168.333 106.015 168.333Z" stroke="black" stroke-width="1.78873" stroke-miterlimit="10"/>
<path d="M101.042 152.516C101.042 150.081 103.177 148.105 105.818 148.105C108.459 148.105 110.594 150.081 110.594 152.516C110.594 154.951 108.459 156.936 105.818 156.936C103.177 156.936 101.042 154.96 101.042 152.516Z" fill="white"/>
<path d="M101.042 152.516C101.042 150.081 103.177 148.105 105.818 148.105C108.459 148.105 110.594 150.081 110.594 152.516C110.594 154.951 108.459 156.936 105.818 156.936C103.177 156.936 101.042 154.96 101.042 152.516Z" stroke="black" stroke-width="1.78873" stroke-miterlimit="10"/>
<path d="M47.4649 126.04C47.4649 123.605 49.6001 121.629 52.2411 121.629C54.882 121.629 57.0173 123.605 57.0173 126.04C57.0173 128.475 54.882 130.46 52.2411 130.46C49.6001 130.46 47.4649 128.484 47.4649 126.04Z" fill="white"/>
<path d="M47.4649 126.04C47.4649 123.605 49.6001 121.629 52.2411 121.629C54.882 121.629 57.0173 123.605 57.0173 126.04C57.0173 128.475 54.882 130.46 52.2411 130.46C49.6001 130.46 47.4649 128.484 47.4649 126.04Z" stroke="black" stroke-width="1.78873" stroke-miterlimit="10"/>
<path d="M113.516 81.1816C113.516 77.7447 116.485 74.9539 120.156 74.9539C123.827 74.9539 126.796 77.7447 126.796 81.1816C126.796 84.6186 123.827 87.4094 120.156 87.4094C116.485 87.4094 113.516 84.6186 113.516 81.1816Z" fill="black"/>
<path d="M96.0783 67.2556C96.0783 63.8186 99.0471 61.0278 102.718 61.0278C106.389 61.0278 109.358 63.8186 109.358 67.2556C109.358 70.6926 106.389 73.4834 102.718 73.4834C99.0471 73.4834 96.0783 70.6926 96.0783 67.2556Z" fill="black"/>
<path d="M100.265 125.122C102.653 134.085 104.76 143.113 106.567 152.206C99.0658 148.179 91.939 144.527 84.6905 141.109C87.987 134.853 91.7517 129.028 96.1533 123.465C97.6143 123.624 99.0378 124.205 100.199 125.104" stroke="black" stroke-width="1.78873" stroke-linecap="round" stroke-linejoin="round"/>
<path d="M97.184 126.611C93.7564 130.741 90.6566 135.152 87.9501 140.191C92.9136 142.729 97.8771 145.257 103.018 147.636C101.361 140.528 99.441 133.476 97.2402 126.508" stroke="black" stroke-width="1.78873" stroke-linecap="round" stroke-linejoin="round"/>
<path d="M100.63 81.1815C101.004 83.3074 102.241 85.8827 104.629 86.6226C105.855 87.0066 107.251 86.9504 108.318 87.6715C109.292 88.3177 109.789 89.4695 110.107 90.584C110.444 91.7733 110.613 93.0657 110.257 94.2457C109.63 96.3154 107.55 97.6078 105.49 98.2914C101.791 99.5276 97.586 99.3778 94.1397 97.561C90.6934 95.7441 88.1274 92.1948 87.8277 88.3083C87.528 84.4218 89.6726 80.3761 93.2126 78.7278C94.7016 78.0348 96.4622 77.7726 98.0075 78.3345C99.5527 78.8964 100.798 80.4135 100.751 82.0618" fill="black"/>
<path d="M89.851 92.008C92.2017 90.9404 94.9644 90.8093 97.4086 91.6428C99.8529 92.4763 101.951 94.265 103.159 96.5501C103.327 96.8685 103.487 97.2524 103.337 97.5802C103.224 97.8518 102.934 98.0016 102.662 98.1047C101.876 98.3856 101.014 98.3575 100.181 98.292C98.0548 98.114 95.9196 97.6739 94.0372 96.6812C92.1454 95.6885 90.5253 94.0964 89.7855 92.1017" fill="white"/>
<path d="M100.359 83.4861C99.8624 84.1791 99.1319 84.6754 98.5326 85.2842C97.9332 85.8929 97.4462 86.7357 97.6242 87.5692C97.7365 88.103 98.1018 88.5432 98.5045 88.9085C99.0477 89.4048 99.6657 89.8168 100.34 90.1165C100.733 90.2945 101.155 90.4256 101.576 90.3694C101.988 90.3132 102.353 90.0697 102.634 89.77C102.915 89.4703 103.131 89.1051 103.337 88.7492C103.505 88.4496 103.693 88.1124 103.608 87.7846C103.534 87.4943 103.281 87.2883 103.056 87.0916C101.96 86.1739 101.089 84.9845 100.527 83.6734" fill="white"/>
<path d="M123.518 78.0723C120.849 79.2335 118.189 80.3854 115.52 81.5467" stroke="white" stroke-width="1.78873" stroke-miterlimit="10" stroke-linecap="round"/>
<path d="M118.405 83.2423C119.744 82.5867 121.139 82.0529 122.563 81.6409" stroke="white" stroke-width="1.78873" stroke-miterlimit="10" stroke-linecap="round"/>
<path d="M98.5322 68.0894C100.958 67.003 103.458 66.104 106.024 65.4016" stroke="white" stroke-width="1.78873" stroke-miterlimit="10" stroke-linecap="round"/>
<path d="M101.249 70.272C102.691 69.4854 104.227 68.8579 105.819 68.4177" stroke="white" stroke-width="1.78873" stroke-miterlimit="10" stroke-linecap="round"/>
<path d="M68.2086 102.74C68.2086 100.287 70.1846 98.3013 72.6195 98.3013C75.0544 98.3013 77.0305 100.287 77.0305 102.74C77.0305 105.194 75.0544 107.179 72.6195 107.179C70.1846 107.179 68.2086 105.194 68.2086 102.74Z" fill="black"/>
<path d="M60.8846 69.8507C61.1749 69.0734 60.8096 68.1556 60.1541 67.6499C59.4985 67.1442 58.6088 67.0224 57.794 67.1348C56.9793 67.2565 56.202 67.5937 55.4622 67.9589C54.8815 68.2399 54.3009 68.5489 53.8514 69.0078C53.4019 69.4667 53.1022 70.1222 53.2052 70.7497C53.3082 71.3865 53.8982 71.9484 54.5444 71.8829" fill="black"/>
<path d="M83.0611 129.684C83.5574 130.835 83.6136 132.175 83.2109 133.373" stroke="black" stroke-width="1.78873" stroke-linecap="round" stroke-linejoin="round"/>
<path d="M81.3098 128.925C81.6189 130.105 81.5814 131.378 81.2161 132.54" stroke="black" stroke-width="1.78873" stroke-linecap="round" stroke-linejoin="round"/>
<path d="M50.8358 112.649C50.7235 112.255 50.6111 111.862 50.4987 111.469C50.9014 114.84 51.3135 118.212 51.7162 121.583" stroke="black" stroke-width="1.78873" stroke-linecap="round" stroke-linejoin="round"/>
<path d="M47.0809 125.339C43.7094 125.133 40.3287 124.927 36.9572 124.721" stroke="black" stroke-width="1.78873" stroke-linecap="round" stroke-linejoin="round"/>
<path d="M49.0376 129.468C46.8181 132.352 44.7484 135.349 42.8286 138.44" stroke="black" stroke-width="1.78873" stroke-linecap="round" stroke-linejoin="round"/>
<path d="M54.6576 130.18C56.7179 133.299 58.619 136.521 60.3516 139.826" stroke="black" stroke-width="1.78873" stroke-linecap="round" stroke-linejoin="round"/>
<path d="M57.0261 126.003C60.1821 125.891 63.3476 125.769 66.5036 125.657" stroke="black" stroke-width="1.78873" stroke-linecap="round" stroke-linejoin="round"/>
<path d="M117.131 143.366C114.79 145.604 112.383 147.758 109.901 149.846" stroke="black" stroke-width="1.78873" stroke-linecap="round" stroke-linejoin="round"/>
<path d="M110.791 154.913C113.778 156.505 116.653 158.303 119.388 160.298" stroke="black" stroke-width="1.78873" stroke-linecap="round" stroke-linejoin="round"/>
<path d="M106.109 157.385C106.68 161.038 107.073 164.709 107.289 168.399" stroke="black" stroke-width="1.78873" stroke-linecap="round" stroke-linejoin="round"/>
<path d="M101.033 155.109C98.1857 156.214 95.348 157.319 92.501 158.415L101.033 155.109Z" fill="white"/>
<path d="M101.033 155.109C98.1857 156.214 95.348 157.319 92.501 158.415" stroke="black" stroke-width="1.78873" stroke-linecap="round" stroke-linejoin="round"/>
<path d="M84.4378 139.938C78.9312 133.223 72.3195 127.417 64.9398 122.847C67.2342 121.47 69.5849 120.075 72.2071 119.55C74.8293 119.026 77.8167 119.531 79.6242 121.498C80.7199 122.687 81.2818 124.298 81.4036 125.918C81.5253 127.529 81.235 129.149 80.8229 130.929C80.8791 130.058 81.0196 129.028 81.7969 128.625C82.4431 128.288 83.2298 128.559 83.876 128.887C85.8614 129.889 87.6032 131.378 88.8769 133.204L84.3723 140.153" fill="white"/>
<path d="M84.4378 139.938C78.9312 133.223 72.3195 127.417 64.9398 122.847C67.2342 121.47 69.5849 120.075 72.2071 119.55C74.8293 119.026 77.8167 119.531 79.6242 121.498C80.7199 122.687 81.2818 124.298 81.4036 125.918C81.5253 127.529 81.235 129.149 80.8229 130.929C80.8791 130.058 81.0196 129.028 81.7969 128.625C82.4431 128.288 83.2298 128.559 83.876 128.887C85.8614 129.889 87.6032 131.378 88.8769 133.204L84.3723 140.153" stroke="black" stroke-width="1.78873" stroke-linecap="round" stroke-linejoin="round"/>
<path d="M64.9774 122.603C64.1814 123.231 63.3947 123.858 62.5986 124.476C69.2478 130.957 75.9064 137.447 82.5649 143.928C83.0519 142.832 84.5129 142.233 84.5971 141.034C84.644 140.322 84.1664 139.695 83.6981 139.161C78.2477 132.942 70.9804 128.531 65.5112 122.332" fill="white"/>
<path d="M64.9774 122.603C64.1814 123.231 63.3947 123.858 62.5986 124.476C69.2478 130.957 75.9064 137.447 82.5649 143.928C83.0519 142.832 84.5129 142.233 84.5971 141.034C84.644 140.322 84.1664 139.695 83.6981 139.161C78.2477 132.942 70.9804 128.531 65.5112 122.332" stroke="black" stroke-width="1.78873" stroke-linecap="round" stroke-linejoin="round"/>
<path d="M83.2017 129.355C83.7448 130.629 83.8853 132.071 83.5857 133.42" stroke="black" stroke-width="1.78873" stroke-linecap="round" stroke-linejoin="round"/>
<path d="M57.738 148.095C64.1906 148.282 70.6618 148.179 77.105 147.767" stroke="black" stroke-width="1.78873" stroke-linecap="round" stroke-linejoin="round"/>
<path d="M81.5536 147.992C82.5931 147.832 83.6514 147.804 84.7003 147.907" stroke="black" stroke-width="1.78873" stroke-linecap="round" stroke-linejoin="round"/>
<path d="M89.298 117.799L84.7654 128.344C86.1514 129.589 87.528 130.844 88.9141 132.09C90.9088 128.728 92.7631 125.291 94.4769 121.779" fill="black"/>
<path d="M81.4311 117.312C81.1408 120.974 81.3187 124.683 81.9742 128.298C83.1448 128.579 84.3061 128.869 85.4767 129.15C85.6078 126.799 85.6078 124.439 85.4767 122.098C85.4393 121.471 85.3925 120.824 85.1584 120.234C84.5777 118.792 83.0512 118.024 81.6371 117.378" fill="black"/>
<path d="M96.7061 123.961C98.9537 131.575 100.92 139.273 102.587 147.037C102.831 148.17 103.074 149.322 103.674 150.324C104.273 151.326 105.284 152.131 106.446 152.169C105.584 142.607 103.383 133.167 99.9277 124.214C98.8413 124.055 97.7456 123.896 96.4345 123.493C92.0797 128.7 88.3057 134.385 84.9436 140.538C86.0206 141.231 87.0975 141.924 88.1745 142.617C88.8113 140.435 90.0101 138.468 91.2369 136.557C93.8966 132.381 96.678 128.279 99.5811 124.261C98.7851 123.971 97.9797 123.671 97.1369 123.652C96.294 123.634 95.395 123.952 94.9267 124.654" fill="white"/>
<path d="M96.7061 123.961C98.9537 131.575 100.92 139.273 102.587 147.037C102.831 148.17 103.074 149.322 103.674 150.324C104.273 151.326 105.284 152.131 106.446 152.169C105.584 142.607 103.383 133.167 99.9277 124.214C98.8413 124.055 97.7456 123.896 96.4345 123.493C92.0797 128.7 88.3057 134.385 84.9436 140.538C86.0206 141.231 87.0975 141.924 88.1745 142.617C88.8113 140.435 90.0101 138.468 91.2369 136.557C93.8966 132.381 96.678 128.279 99.5811 124.261C98.7851 123.971 97.9797 123.671 97.1369 123.652C96.294 123.634 95.395 123.952 94.9267 124.654" stroke="black" stroke-width="1.78873" stroke-linecap="round" stroke-linejoin="round"/>
<path d="M88.0624 142.692C94.0747 146.298 100.349 149.463 106.821 152.151C105.875 150.962 106.558 149.004 105.575 147.852C105.144 147.356 104.489 147.122 103.871 146.897C98.7292 145.071 93.7938 142.636 89.2236 139.667C88.7273 140.594 88.2216 141.522 87.7253 142.439" fill="white"/>
<path d="M88.0624 142.692C94.0747 146.298 100.349 149.463 106.821 152.151C105.875 150.962 106.558 149.004 105.575 147.852C105.144 147.356 104.489 147.122 103.871 146.897C98.7292 145.071 93.7938 142.636 89.2236 139.667C88.7273 140.594 88.2216 141.522 87.7253 142.439" stroke="black" stroke-width="1.78873" stroke-linecap="round" stroke-linejoin="round"/>
<path d="M69.1257 104.791C63.0572 112.133 56.998 119.466 50.9294 126.809C60.4162 121.817 68.8541 115.065 77.2171 108.359C76.7208 107.535 76.2338 106.702 75.7374 105.878C75.0632 107.067 73.6771 107.797 72.3098 107.694C70.9425 107.591 69.6876 106.646 69.21 105.363" fill="white"/>
<path d="M69.1257 104.791C63.0572 112.133 56.998 119.466 50.9294 126.809C60.4162 121.817 68.8541 115.065 77.2171 108.359C76.7208 107.535 76.2338 106.702 75.7374 105.878C75.0632 107.067 73.6771 107.797 72.3098 107.694C70.9425 107.591 69.6876 106.646 69.21 105.363" stroke="black" stroke-width="1.78873" stroke-linecap="round" stroke-linejoin="round"/>
</svg>
