<svg width="26" height="26" viewBox="0 0 26 26" fill="none" xmlns="http://www.w3.org/2000/svg">
<path d="M0.666656 0.666687H5.03029L7.95393 15.9695C8.05369 16.4957 8.32692 16.9684 8.7258 17.3047C9.12467 17.6411 9.62378 17.8198 10.1357 17.8095H20.7394C21.2514 17.8198 21.7505 17.6411 22.1493 17.3047C22.5482 16.9684 22.8214 16.4957 22.9212 15.9695L24.6667 6.38097H6.1212M10.4848 23.5238C10.4848 24.155 9.99642 24.6667 9.39393 24.6667C8.79144 24.6667 8.30302 24.155 8.30302 23.5238C8.30302 22.8926 8.79144 22.381 9.39393 22.381C9.99642 22.381 10.4848 22.8926 10.4848 23.5238ZM22.4848 23.5238C22.4848 24.155 21.9964 24.6667 21.3939 24.6667C20.7914 24.6667 20.303 24.155 20.303 23.5238C20.303 22.8926 20.7914 22.381 21.3939 22.381C21.9964 22.381 22.4848 22.8926 22.4848 23.5238Z" stroke="white" stroke-width="1.33333" stroke-linecap="round" stroke-linejoin="round"/>
</svg>
