<svg width="40" height="22" viewBox="0 0 40 22" fill="none" xmlns="http://www.w3.org/2000/svg">
<path d="M0.0159774 8.9874C-6.33203e-05 9.55598 0.246728 9.77987 0.444871 9.95995C0.508113 10.0181 0.563335 10.0679 0.605147 10.1269C0.698367 10.2588 0.764765 10.4228 0.802369 10.6144C1.619 14.7791 1.80281 15.3468 3.87496 16.2651C4.86686 16.705 6.9064 17 8.9495 17C10.5427 17 12.8439 16.8236 14.7576 15.9838C17.5456 14.7598 18.5845 10.5348 18.6332 10.3222C18.636 10.3008 18.7183 9.79668 19.9921 9.79668H19.9934L20.0714 9.79613C21.2797 9.79613 21.3629 10.3008 21.3717 10.3552C21.4146 10.5348 22.4537 14.7591 25.2416 15.9838C27.1555 16.8241 29.4567 17 31.0499 17C33.0929 17 35.1321 16.7043 36.1241 16.2651C38.1965 15.3468 38.3803 14.7786 39.1966 10.6138C39.2341 10.4228 39.3008 10.259 39.3941 10.1264C39.4356 10.0675 39.4907 10.0176 39.5541 9.9594C39.7522 9.77931 39.9994 9.55476 39.9831 8.98685C39.9803 8.89172 39.9852 8.72247 39.9899 8.53697C39.9981 8.25367 40.0056 7.93465 39.994 7.76275C39.9355 6.9204 39.0496 6.57737 38.6037 6.51631C35.7531 6.02373 32.3306 5.88103 28.7175 6.09928L28.5288 6.11057C26.3249 6.24176 25.1111 6.31388 23.6644 6.85889C23.3287 6.98555 22.9835 7.12869 22.6778 7.26077C22.1338 7.4965 21.3482 7.75224 20.926 7.83012C20.7562 7.86198 20.5839 7.89317 20.4314 7.91894C20.2118 7.95644 19.787 7.95644 19.5674 7.91894C19.4149 7.89262 19.2427 7.86198 19.0724 7.83012C18.6513 7.75224 17.8657 7.4965 17.3213 7.26077C17.0159 7.1288 16.6708 6.98555 16.3348 6.85889C14.8881 6.31388 13.6746 6.24176 11.4707 6.11057L11.2817 6.09928C7.66755 5.8817 4.24022 6.02484 1.40968 6.51454C0.950417 6.57781 0.0650201 6.92095 0.00651076 7.76331C-0.00611148 7.93509 0.00217187 8.25423 0.00992928 8.53741C0.0138737 8.72358 0.0186071 8.89315 0.0159774 8.9874ZM39.1624 7.95257V8.57579L38.2398 8.26429L39.1624 7.95257ZM23.1645 8.8467C23.3041 8.55511 24.183 7.58377 29.6351 7.31674C30.591 7.27006 31.4018 7.24716 32.1141 7.24716C35.3289 7.24716 36.3521 7.73344 36.9607 8.51761C37.3251 8.98674 37.5728 9.96814 37.5755 10.5903C37.5824 11.9489 37.2576 14.3638 35.0185 15.2768C33.9924 15.6949 32.4538 15.9447 30.9035 15.9447C27.9276 15.9447 25.5488 15.0935 24.5418 13.6684C22.4229 10.6742 23.1385 8.89659 23.1645 8.8467ZM3.03677 8.51717C3.64619 7.73266 4.66911 7.24672 7.88358 7.24672C8.59607 7.24672 9.40692 7.26962 10.3628 7.3163C15.8138 7.58377 16.6935 8.55522 16.8497 8.88066C16.8581 8.89669 17.574 10.675 15.4574 13.6686C14.4494 15.0937 12.0714 15.9449 9.09584 15.9449C7.54488 15.9449 6.00615 15.6952 4.9798 15.277C2.74054 14.364 2.41617 11.9491 2.42262 10.5905C2.42538 9.96748 2.67283 8.9863 3.03677 8.51717ZM0.834582 7.95257L1.75679 8.26418L0.834582 8.57568V7.95257Z" fill="#5691f5"/>
</svg>
