<svg width="40" height="22" viewBox="0 0 40 22" fill="none" xmlns="http://www.w3.org/2000/svg">
<path fill-rule="evenodd" clip-rule="evenodd" d="M6.41425 3.45783L5.56793 3.90632L3.54824 3.91099L1.52846 3.91566L0.764276 4.78536L0 5.65514V7.57199V9.48883L0.796882 10.2442L1.59385 10.9996L1.5429 11.5605L1.49194 12.1214L2.54058 13.8559C3.11733 14.8098 3.67367 15.6762 3.77684 15.7812C3.90334 15.9101 5.44276 16.4547 8.5078 17.4551L13.0512 18.9381L13.5015 18.9352C14.03 18.932 14.7663 18.5928 15.0759 18.2099C15.1873 18.072 15.7595 17.0202 16.3474 15.8724C17.5349 13.5545 17.912 13.0345 18.6902 12.6425L19.1982 12.3865L19.9555 12.386L20.7127 12.3855L21.2204 12.6418C22.0755 13.0734 22.3874 13.493 23.5939 15.8361L24.6933 17.9711L25.0747 18.3543L25.4562 18.7375L25.9687 18.8906C26.3027 18.9905 26.6093 19.023 26.8486 18.984C27.3174 18.9077 35.8868 16.1142 36.1247 15.9602C36.2227 15.8967 36.8173 14.996 37.4459 13.9584L38.589 12.0721L38.4821 11.5818L38.3754 11.0914L38.9398 10.5481C39.2502 10.2493 39.6158 9.89465 39.7521 9.76005L40 9.51529V7.64698V5.77876L39.3742 4.91987C39.03 4.44748 38.6992 4.02893 38.6392 3.98974C38.5792 3.95055 37.6607 3.91786 36.598 3.91703L34.666 3.91566L33.7552 3.45783L32.8443 3L20.0525 3.00467L7.26058 3.00934L6.41425 3.45783ZM6.63697 4.65222L5.7461 5.09796L3.87528 5.10474L2.00445 5.11151L1.58129 5.61906L1.15813 6.12671L1.15884 7.47062L1.15955 8.81445L1.92062 9.5347C2.33915 9.93082 2.69399 10.2399 2.70904 10.2214C2.7241 10.203 2.84027 9.86645 2.96722 9.47345L3.19804 8.75886L2.9037 8.42044C2.36463 7.80072 2.27519 7.43738 2.58352 7.12047L2.76169 6.93734L4.5657 6.93661L6.36971 6.93588L7.34414 6.47878L8.31866 6.02168H13.8698H19.4209V5.10602V4.19036L13.4744 4.19842L7.52784 4.20647L6.63697 4.65222ZM20.6682 5.1518V6.11325L26.2584 6.11471L31.8486 6.11618L32.7316 6.52676L33.6146 6.93734H35.3769H37.1392L37.3597 7.14336C37.4811 7.25672 37.6047 7.43729 37.6347 7.5447L37.6891 7.73992L37.3755 8.13988C37.2029 8.35982 37.0166 8.62875 36.9613 8.73744L36.8608 8.93513L37.1221 9.64055L37.3833 10.3461L38.1572 9.59312L38.931 8.84027V7.51641V6.19254L38.5183 5.70138L38.1057 5.21013L36.1798 5.18101L34.2539 5.1518L33.3424 4.67108L32.4308 4.19036H26.5495H20.6682V5.1518ZM20.7572 9.21999V11.1364L21.2249 11.2765C21.4821 11.3536 21.9131 11.5527 22.1826 11.7191L22.6726 12.0215L23.8753 11.9585C24.5367 11.9238 25.1653 11.9168 25.2721 11.9428C25.4396 11.9835 26.3771 13.194 26.9478 14.1061L27.1077 14.3617L27.0058 14.5914C26.9498 14.7178 26.5997 15.2341 26.2279 15.7388L25.5518 16.6564L25.6062 16.8795C25.7033 17.277 26.1137 17.6573 26.5033 17.7108L26.8597 17.7598L31.171 16.3337C33.5423 15.5494 35.4913 14.8964 35.5022 14.8827C35.5131 14.869 35.9219 14.2155 36.4104 13.4305L37.2988 12.003L37.0235 11.9196L36.7483 11.8361L36.1909 10.4169L35.6336 8.99758L35.6677 8.60842L35.7019 8.21927H34.6092H33.5164L32.5167 7.76144L31.517 7.30361H26.1371H20.7572V9.21999ZM7.57238 7.85492L6.63697 8.30158L5.55412 8.30616L4.47127 8.31083L4.50717 8.6542L4.54307 8.99758L3.98646 10.4169L3.42984 11.8361L3.15644 11.9718L2.88303 12.1075L3.7355 13.4991L4.58797 14.8906L6.36971 15.4837C12.2249 17.4327 13.1953 17.7421 13.4523 17.7421C13.6086 17.7421 13.8491 17.6737 13.9867 17.5901C14.2858 17.4086 14.6502 16.7843 14.5527 16.6208C14.5149 16.5576 14.1917 16.0979 13.8345 15.599C13.4429 15.0523 13.1849 14.6026 13.1849 14.4668C13.1849 14.2501 14.4527 12.3494 14.7759 12.0813L14.922 11.9602L16.1693 12.0197L17.4165 12.0792L18.1022 11.711C18.4793 11.5083 18.9303 11.3152 19.1044 11.2816L19.4209 11.2205V9.3079V7.39517L13.9644 7.40176L8.5078 7.40836L7.57238 7.85492ZM14.9713 13.7703C14.7083 14.1273 14.5514 14.4219 14.5897 14.4863C14.7525 14.7603 15.1938 15.3576 15.2339 15.3584C15.3273 15.3603 16.3956 13.3356 16.3453 13.2519C16.3162 13.2035 16.0957 13.1638 15.8552 13.1638H15.418L14.9713 13.7703ZM23.7456 13.2489C23.6878 13.3449 24.7472 15.3614 24.8554 15.3614C24.9194 15.3614 25.5431 14.5722 25.5915 14.43C25.603 14.3961 25.4189 14.0974 25.1822 13.7662L24.7519 13.1638H24.2743C24.0117 13.1638 23.7737 13.2021 23.7456 13.2489Z" fill="#0E1829"/>
</svg>
