<svg width="40" height="22" viewBox="0 0 40 22" fill="none" xmlns="http://www.w3.org/2000/svg">
<g clip-path="url(#clip0_587_9275)">
<path fill-rule="evenodd" clip-rule="evenodd" d="M34.0879 6.00684C36.1157 6.03314 38.146 6.12301 39.3984 6.19824L40.5156 6.26563L39.9033 7.20313L39.0254 8.54785C38.3327 9.71979 37.0455 11.4437 35.3838 12.8867C33.7187 14.3326 31.5949 15.5684 29.2607 15.5684C26.5462 15.5683 24.6301 14.992 23.3779 14.0332C22.3168 13.2205 21.781 12.1674 21.6318 11.084H18.8838C18.7345 12.1675 18.1989 13.2204 17.1377 14.0332C15.8855 14.992 13.9694 15.5683 11.2549 15.5684C8.92069 15.5684 6.79691 14.3326 5.13184 12.8867C3.47011 11.4437 2.18289 9.71979 1.49023 8.54785L0.612305 7.20313L0 6.26563L1.11719 6.19824C2.36967 6.12301 4.39996 6.03314 6.42773 6.00684C8.44099 5.98072 10.5006 6.0165 11.7871 6.2041C13.7606 6.492 15.4961 6.83828 16.7461 7.42871C17.3785 7.72743 17.9276 8.10657 18.3193 8.60938C18.5905 8.95747 18.7709 9.35041 18.8613 9.78418H21.6543C21.7448 9.35054 21.9251 8.9575 22.1963 8.60938C22.588 8.10657 23.1371 7.72743 23.7695 7.42871C25.0195 6.83828 26.755 6.492 28.7285 6.2041C30.015 6.0165 32.0746 5.98072 34.0879 6.00684ZM6.44434 7.30664C4.96759 7.3258 3.48809 7.38002 2.31738 7.43652L2.5791 7.83692L2.58691 7.84961L2.59473 7.86328C3.22306 8.93268 4.43165 10.5569 5.98438 11.9053C7.54633 13.2615 9.37424 14.2676 11.2549 14.2676C13.8084 14.2675 15.4046 13.7232 16.3477 13.001C17.2701 12.2944 17.6298 11.372 17.6299 10.4346C17.6298 10.0135 17.5104 9.68608 17.2939 9.4082C17.0683 9.11859 16.7104 8.8501 16.1904 8.60449C15.1354 8.10619 13.5774 7.77876 11.5996 7.49024C10.4273 7.31927 8.46259 7.28046 6.44434 7.30664ZM34.0713 7.30664C32.053 7.28046 30.0883 7.31927 28.916 7.49024C26.9382 7.77876 25.3803 8.10619 24.3252 8.60449C23.8053 8.8501 23.4473 9.11859 23.2217 9.4082C23.0052 9.68608 22.8858 10.0135 22.8857 10.4346C22.8858 11.372 23.2455 12.2944 24.168 13.001C25.1111 13.7232 26.7072 14.2675 29.2607 14.2676C31.1414 14.2676 32.9693 13.2615 34.5312 11.9053C36.084 10.5569 37.2926 8.93268 37.9209 7.86328L37.9287 7.84961L37.9365 7.83692L38.1982 7.43652C37.0275 7.38002 35.548 7.3258 34.0713 7.30664Z" fill="#0E1829"/>
</g>
<defs>
<clipPath id="clip0_587_9275">
<rect width="40" height="22" fill="white"/>
</clipPath>
</defs>
</svg>
