<svg width="40" height="22" viewBox="0 0 40 22" fill="none" xmlns="http://www.w3.org/2000/svg">
<g clip-path="url(#clip0_587_9304)">
<path d="M10.7314 16.3389L10.8086 16.9844C10.3096 17.0445 9.7973 17.0752 9.27539 17.0752C8.75346 17.0752 8.24119 17.0445 7.74219 16.9844L7.81934 16.3389L7.89746 15.6934C8.34478 15.7473 8.8052 15.7754 9.27539 15.7754C9.74558 15.7754 10.206 15.7473 10.6533 15.6934L10.7314 16.3389ZM32.208 16.3389L32.2852 16.9844C31.7862 17.0445 31.2739 17.0752 30.752 17.0752C30.23 17.0752 29.7178 17.0445 29.2188 16.9844L29.2959 16.3389L29.374 15.6934C29.8213 15.7473 30.2818 15.7754 30.752 15.7754C31.2221 15.7754 31.6826 15.7473 32.1299 15.6934L32.208 16.3389ZM2.95312 13.627C3.57329 14.1801 4.35009 14.6564 5.24512 15.0195L5 15.6221L4.75586 16.2246C3.73875 15.812 2.83135 15.2598 2.08789 14.5967L2.52051 14.1123L2.95312 13.627ZM16.0303 14.1123L16.4629 14.5967C15.7194 15.2598 14.8121 15.812 13.7949 16.2246L13.5508 15.6221L13.3057 15.0195C14.2007 14.6564 14.9775 14.1801 15.5977 13.627L16.0303 14.1123ZM24.4297 13.627C25.0499 14.1801 25.8267 14.6564 26.7217 15.0195L26.4766 15.6221L26.2324 16.2246C25.2153 15.812 24.3079 15.2598 23.5645 14.5967L23.9971 14.1123L24.4297 13.627ZM37.5068 14.1123L37.9395 14.5967C37.196 15.2598 36.2886 15.812 35.2715 16.2246L35.0273 15.6221L34.7822 15.0195C35.6773 14.6564 36.4541 14.1801 37.0742 13.627L37.5068 14.1123ZM30.752 4C33.2531 4 35.5452 4.71937 37.2285 5.91406C38.7738 7.01091 39.8414 8.54314 40.0049 10.3027H40.0293L40.0244 10.5146C40.0239 10.5267 40.0221 10.5387 40.0215 10.5508C40.0247 10.6247 40.0293 10.6988 40.0293 10.7734H40.0049C39.9676 11.1743 39.8854 11.5657 39.7578 11.9434L38.5254 11.5273C38.6351 11.2027 38.6993 10.8677 38.7197 10.5254C38.631 9.19263 37.8321 7.93637 36.4756 6.97363C35.0366 5.95254 33.015 5.30078 30.752 5.30078C28.4889 5.30079 26.4673 5.95251 25.0283 6.97363C23.8093 7.83878 23.0427 8.94138 22.835 10.123H22.9014V11.2666C22.9244 11.354 22.9494 11.4413 22.9785 11.5273L22.3623 11.7354L21.7471 11.9434C21.6895 11.7729 21.6414 11.5994 21.6016 11.4238H18.4238C18.3842 11.5992 18.3387 11.7731 18.2812 11.9434L17.0488 11.5273C17.1585 11.2027 17.2227 10.8677 17.2432 10.5254C17.1544 9.19263 16.3555 7.93637 14.999 6.97363C13.5601 5.95254 11.5385 5.30078 9.27539 5.30078C7.01229 5.30079 4.99071 5.95251 3.55176 6.97363C2.19492 7.93662 1.3959 9.19322 1.30762 10.5264L1.31152 10.6162C1.33747 10.927 1.40198 11.2314 1.50195 11.5273L0.885742 11.7354L0.270508 11.9434C0.142908 11.5656 0.0581497 11.1744 0.0205078 10.7734H-0.00195312C-0.00194969 10.7011 0.00185108 10.6292 0.00488281 10.5576C0.00059597 10.473 -0.001949 10.3881 -0.00195312 10.3027H0.0224609C0.185926 8.54317 1.25354 7.0109 2.79883 5.91406C4.48218 4.71938 6.77424 4.00001 9.27539 4C11.7766 4 14.0686 4.71937 15.752 5.91406C17.2444 6.9734 18.2915 8.43892 18.5088 10.123H21.5186C21.7358 8.43894 22.783 6.97339 24.2754 5.91406C25.9587 4.71938 28.2508 4.00001 30.752 4Z" fill="#5691f5"/>
</g>
<defs>
<clipPath id="clip0_587_9304">
<rect width="40" height="22" fill="white"/>
</clipPath>
</defs>
</svg>
