<svg width="22" height="22" viewBox="0 0 22 22" fill="none" xmlns="http://www.w3.org/2000/svg">
<path d="M14.6475 13.6162C16.3514 14.1882 17.711 14.7499 18.6982 15.2783C19.1917 15.5424 19.5821 15.7933 19.873 16.0264C20.1684 16.263 20.336 16.4617 20.416 16.6143L20.4756 16.7285L20.4883 18.8047L20.4971 20.5H2.50293L2.5127 18.8057L2.52441 16.7031L2.55566 16.6289L2.55664 16.6279C2.69665 16.2879 3.10637 15.8616 3.95996 15.3721C4.79688 14.8921 5.98499 14.3931 7.55664 13.8701C7.82092 13.7822 8.06876 13.7022 8.25391 13.6445C8.31158 13.6266 8.36247 13.6115 8.40527 13.5986L8.58984 13.9287H8.59082C8.74377 14.2013 9.06679 14.7844 9.30859 15.2236C9.72674 15.9832 10.0831 16.5531 10.3975 16.9385C10.5546 17.1312 10.7156 17.2962 10.8848 17.416C11.0544 17.5361 11.2622 17.6318 11.5 17.6318C11.7378 17.6318 11.9456 17.5361 12.1152 17.416C12.2844 17.2962 12.4454 17.1312 12.6025 16.9385C12.9169 16.5531 13.2733 15.9832 13.6914 15.2236C13.9333 14.7843 14.2576 14.2004 14.4111 13.9268L14.5947 13.5977L14.6475 13.6162ZM2.50293 16.6064H2.50586H2.50293ZM13.0674 12.4727C13.0748 12.4799 13.0813 12.4874 13.0869 12.4941C13.0888 12.5191 13.0923 12.5624 13.0947 12.627C13.0987 12.731 13.1006 12.8602 13.1006 12.9912C13.1006 13.1223 13.0987 13.2515 13.0947 13.3555C13.0923 13.4196 13.0888 13.4623 13.0869 13.4873V13.4883C13.0812 13.495 13.0742 13.5024 13.0664 13.5098C13.0598 13.516 13.0519 13.5197 13.0459 13.5244L13.0303 13.5176C13.0411 13.5226 13.0358 13.521 13.0107 13.5039C12.9887 13.4888 12.9603 13.4675 12.9277 13.4414C12.8619 13.3886 12.7911 13.325 12.7344 13.2666L12.4707 12.9941L12.4502 12.9736C12.5122 12.9315 12.5739 12.8854 12.6152 12.8506C12.6924 12.7855 12.7795 12.7063 12.8604 12.627C12.9634 12.5257 13.0239 12.4821 13.0557 12.4629C13.0593 12.4662 13.0637 12.469 13.0674 12.4727ZM9.94824 12.459C10.0007 12.5011 10.0706 12.5609 10.1436 12.6289C10.2342 12.7135 10.3278 12.7968 10.4072 12.8633C10.4467 12.8963 10.4859 12.9268 10.5205 12.9531C10.5274 12.9583 10.5384 12.9634 10.5498 12.9717L10.5293 12.9941L10.2656 13.2666C10.2089 13.325 10.1381 13.3886 10.0723 13.4414C10.0397 13.4675 10.0113 13.4888 9.98926 13.5039C9.96423 13.521 9.95891 13.5226 9.96973 13.5176L9.95312 13.5244C9.9473 13.5198 9.93999 13.5158 9.93359 13.5098C9.92584 13.5024 9.91878 13.495 9.91309 13.4883C9.91058 13.4558 9.90846 13.4121 9.90625 13.3594C9.90182 13.2537 9.89844 13.1216 9.89844 12.9912C9.89844 12.8608 9.90182 12.7288 9.90625 12.623C9.90841 12.5716 9.90966 12.5284 9.91211 12.4961C9.91315 12.4947 9.91486 12.4936 9.91602 12.4922C9.92286 12.4836 9.93094 12.4747 9.93945 12.4658C9.94161 12.4636 9.94416 12.4611 9.94629 12.459H9.94824ZM10.7246 1.53906C11.6617 1.43832 12.6599 1.53851 13.3428 1.78223C14.2381 2.10187 14.8747 2.74277 15.1484 3.56641C15.2372 3.83338 15.2738 4.0275 15.2695 4.30762C15.2648 4.61123 15.2116 5.0202 15.0928 5.71875L15.0156 6.16797L14.9736 6.41504L15.1475 6.59766L15.2598 6.71484C15.3212 6.77912 15.3274 6.79417 15.3281 6.7959C15.3326 6.80545 15.3446 6.83664 15.3652 6.96191L15.3896 7.11035L15.3447 7.38086C15.3321 7.45731 15.3108 7.55004 15.2871 7.63574C15.2754 7.67807 15.2644 7.71644 15.2539 7.74707C15.2488 7.76212 15.244 7.77466 15.2402 7.78418C15.2384 7.78875 15.2365 7.79226 15.2354 7.79492C15.2348 7.79612 15.2347 7.79716 15.2344 7.79785V7.79883L15.2051 7.85938L15.1445 7.89648C15.0269 7.96663 14.8654 8.07522 14.7744 8.14941L14.6543 8.24707L14.5342 8.3457L14.4902 8.49512L14.3896 8.8418C14.103 9.82724 13.2531 10.6758 12.2012 10.9951L11.9736 11.0645H11.0264L10.7988 10.9951C9.74687 10.6758 8.89704 9.82723 8.61035 8.8418L8.50977 8.49512L8.46582 8.3457L8.3457 8.24707L8.22559 8.14941C8.13463 8.07522 7.97307 7.96663 7.85547 7.89648L7.79395 7.85938L7.76562 7.79883V7.79785C7.76532 7.79716 7.76516 7.79612 7.76465 7.79492C7.76351 7.79226 7.76156 7.78875 7.75977 7.78418C7.75604 7.77466 7.75123 7.76212 7.74609 7.74707C7.73564 7.71644 7.7246 7.67807 7.71289 7.63574L7.65527 7.38086L7.60938 7.11035L7.63477 6.96191C7.65536 6.83664 7.66745 6.80545 7.67188 6.7959C7.67262 6.79417 7.67875 6.77913 7.74023 6.71484L7.85254 6.59766L8.02637 6.41504L7.98438 6.16797L7.90723 5.71875C7.78837 5.0202 7.73516 4.61123 7.73047 4.30762C7.72617 4.0275 7.76282 3.83338 7.85156 3.56641C8.12534 2.74277 8.76192 2.10188 9.65723 1.78223C9.9492 1.67804 10.4073 1.57324 10.7246 1.53906Z" stroke="#5691f5"/>
</svg>
