<svg width="22" height="22" viewBox="0 0 22 22" fill="none" xmlns="http://www.w3.org/2000/svg">
<path d="M14.6738 14.3525C15.5035 14.8206 15.8893 15.0076 16.6523 15.3105C17.4718 15.6358 18.1259 15.9521 18.6064 16.2471C19.1025 16.5516 19.357 16.7996 19.4512 16.9648L19.499 17.0488L19.5 18.959V20.5H3.5V17.0488L3.54883 16.9648C3.64301 16.7996 3.89756 16.5516 4.39355 16.2471C4.87405 15.9522 5.52818 15.6358 6.34766 15.3105C7.08523 15.0178 7.57586 14.781 8.28809 14.374C8.40735 14.3059 8.52916 14.238 8.62793 14.1846C8.6496 14.1728 8.66967 14.1614 8.68848 14.1514C8.72341 14.2147 8.76692 14.2929 8.81543 14.3848C8.94796 14.6357 9.12078 14.9734 9.30078 15.3369C10.0021 16.7533 10.3603 17.3905 10.7373 17.7793C10.8973 17.9443 11.1507 18.1768 11.5 18.1768C11.8493 18.1768 12.1027 17.9443 12.2627 17.7793C12.6397 17.3905 12.9979 16.7533 13.6992 15.3369C13.8792 14.9735 14.0519 14.6343 14.1855 14.3818C14.234 14.2903 14.2773 14.2121 14.3125 14.1484L14.6738 14.3525ZM8.61133 14.0127C8.61192 14.0136 8.61264 14.0146 8.61328 14.0156C8.61106 14.0127 8.60916 14.0108 8.6084 14.0098C8.60897 14.0107 8.61047 14.0113 8.61133 14.0127ZM10.7676 1.55371C12.2735 1.33274 13.6605 1.79713 14.6445 2.82617C15.4673 3.6867 15.8516 4.69686 15.8516 6.13184C15.8516 7.01078 15.9755 8.16981 16.1592 8.99805C16.3756 9.97373 16.6321 10.6402 17.1299 11.5215C17.1516 11.56 17.1702 11.5997 17.1904 11.6367C16.9157 11.6562 16.1682 11.6884 15.4609 11.708L14.0986 11.7461L13.9688 11.749L13.8564 11.8164L13.627 11.9521C13.3525 12.1158 12.9569 12.27 12.4961 12.3789L12.1221 12.4678H10.8779L10.5039 12.3789C10.0431 12.27 9.64754 12.1158 9.37305 11.9521L9.14355 11.8164L9.03125 11.749L8.90137 11.7461L7.53906 11.708C6.83094 11.6884 6.0825 11.6562 5.80859 11.6367C5.82886 11.5996 5.84829 11.5601 5.87012 11.5215C6.36941 10.6375 6.62412 9.97436 6.84277 8.98926C7.02124 8.18494 7.14763 7.00627 7.14844 6.14453C7.14892 5.57423 7.20461 5.08409 7.30566 4.69629C7.73057 3.06565 9.14052 1.79255 10.7676 1.55371Z" stroke="#0E1829"/>
</svg>
