<svg width="22" height="22" viewBox="0 0 22 22" fill="none" xmlns="http://www.w3.org/2000/svg">
<path fill-rule="evenodd" clip-rule="evenodd" d="M9.82739 1.07328C9.70338 1.11363 9.53983 1.18425 9.46399 1.23026C9.25324 1.35803 9.00223 1.64626 8.88721 1.89246L8.78367 2.11413L8.76683 2.42783C8.73888 2.94726 8.9074 3.44907 9.24711 3.85831L9.43004 4.07861L9.17035 4.14263C8.66806 4.26642 7.97379 4.56246 7.4547 4.8742C6.73683 5.30528 5.95948 6.01298 5.48577 6.66662C5.16621 7.10758 4.75699 7.87653 4.58059 8.36756L4.45295 8.72286L4.2627 8.70493C3.73058 8.65473 3.05965 8.90996 2.63929 9.3224C1.79159 10.1541 1.7863 11.4558 2.62718 12.2868C3.07211 12.7264 3.60104 12.9279 4.25565 12.9069L4.62912 12.8949L4.77319 13.2086C5.35925 14.4848 6.30376 15.5511 7.43981 16.219L7.76367 16.4095L7.35565 16.4586C5.46375 16.6861 3.98394 18.067 3.68205 19.8868C3.57301 20.5441 3.61326 20.8352 3.82824 20.9443L3.93796 21H11.0058H18.0735L18.2035 20.8857L18.3336 20.7713L18.3287 20.4072C18.3153 19.3895 17.8745 18.3919 17.1106 17.6505C16.7189 17.2703 16.4567 17.0853 15.9847 16.8559C15.5493 16.6444 14.9896 16.4882 14.5163 16.4461L14.2178 16.4195L14.5512 16.2141C15.0628 15.899 15.3498 15.6715 15.8056 15.2198C16.4195 14.6113 16.8459 13.9942 17.2231 13.1683L17.348 12.8949L17.7213 12.9069C18.4889 12.9315 19.1454 12.624 19.5579 12.0468C19.7854 11.7284 19.8954 11.465 19.9532 11.1002L20 10.8051L19.9532 10.5024C19.8502 9.83628 19.4063 9.2369 18.7929 8.93566C18.4488 8.76668 18.0237 8.67575 17.7142 8.70493L17.5239 8.72286L17.3969 8.37443C16.5395 6.02266 14.5085 4.36477 12.0036 3.9719C11.8503 3.94788 11.472 3.91467 11.1628 3.89815L10.6008 3.86811L10.3384 3.7414C9.88894 3.52426 9.60083 3.1008 9.5646 2.60395L9.54565 2.34428L9.62583 2.19014C9.72372 2.00199 9.81198 1.92062 10.0033 1.84219C10.4991 1.63896 11.0044 1.96601 11.0888 2.5447C11.1074 2.67219 11.1524 2.77605 11.2195 2.84652L11.3218 2.95394H11.4881H11.6544L11.7549 2.85535C11.8793 2.73324 11.9003 2.63227 11.8607 2.34635C11.8146 2.01292 11.6251 1.6702 11.3474 1.41791C11.0586 1.15558 10.7693 1.0389 10.3515 1.01621L10.0529 1L9.82739 1.07328ZM10.4709 4.69616C8.82551 4.89248 7.53985 5.53472 6.4972 6.68123C5.82428 7.42116 5.36128 8.32291 5.12548 9.35275L5.03889 9.73098L5.03797 10.5513L5.03702 11.3715L5.11107 11.7035C5.63964 14.0737 7.41958 15.8125 9.83392 16.3173L10.2519 16.4047H10.9884H11.7249L12.143 16.3173C12.7437 16.1917 13.2106 16.0289 13.7345 15.7624C15.4095 14.9102 16.5691 13.3526 16.8871 11.5278L16.9688 11.059L16.9481 10.3755C16.9254 9.62782 16.8584 9.24483 16.6439 8.63755C16.1323 7.1889 15.0578 5.99149 13.6403 5.29035C13.2338 5.08927 12.4973 4.84994 12.0434 4.77135C11.6876 4.70976 10.7377 4.66433 10.4709 4.69616ZM8.44081 9.42212C7.83386 9.68039 7.82052 10.5041 8.419 10.7708C8.99196 11.0262 9.60676 10.5379 9.46913 9.93682C9.36686 9.4902 8.86783 9.24045 8.44081 9.42212ZM12.9146 9.43462C12.4462 9.64336 12.3322 10.3005 12.7065 10.6346C13.1493 11.0298 13.8181 10.8361 13.9721 10.2681L14.0171 10.1021L13.9721 9.93604C13.8453 9.46821 13.3579 9.23713 12.9146 9.43462ZM3.70558 9.56106L3.44936 9.64063L3.20126 9.88405L2.95312 10.1275L2.86505 10.412L2.77695 10.6966L2.80239 10.9364C2.87254 11.5974 3.39908 12.0817 4.09513 12.1256L4.39204 12.1443L4.36425 12.0118C4.34897 11.9389 4.30876 11.7035 4.27488 11.4887L4.21329 11.0981L4.23164 10.3559C4.24172 9.94776 4.26321 9.58305 4.27934 9.54544L4.30872 9.47708L4.13526 9.47927C4.03987 9.48048 3.84651 9.51727 3.70558 9.56106ZM17.6975 9.54544C17.7137 9.58305 17.7352 9.94776 17.7452 10.3559L17.7636 11.0981L17.702 11.4887C17.6681 11.7035 17.6279 11.9389 17.6126 12.0118L17.5848 12.1443L17.8817 12.1256C18.5778 12.0817 19.1043 11.5974 19.1745 10.9364L19.1999 10.6966L19.1118 10.412L19.0238 10.1275L18.7759 9.88429L18.528 9.6411L18.2574 9.55911C18.1085 9.51399 17.9151 9.47708 17.8275 9.47708H17.6682L17.6975 9.54544ZM9.51543 12.1608C9.39616 12.2036 9.27724 12.3439 9.25304 12.4704C9.23926 12.5425 9.25758 12.729 9.29428 12.8909C9.44509 13.5559 9.98942 14.0581 10.6864 14.1752L10.9486 14.2193L11.2051 14.1762C11.8998 14.0594 12.4246 13.5914 12.5995 12.9326C12.6892 12.5947 12.6789 12.4341 12.5586 12.2938C12.4262 12.1395 12.2316 12.1005 12.0678 12.1954C11.9359 12.2719 11.8835 12.376 11.8466 12.6348C11.7965 12.9859 11.5913 13.2368 11.2495 13.3648C10.7268 13.5607 10.1181 13.1834 10.0503 12.6215C10.0198 12.369 9.96199 12.2568 9.82735 12.1885C9.71544 12.1317 9.62013 12.1233 9.51543 12.1608ZM7.25274 17.2549C6.55895 17.3681 5.98197 17.6703 5.43481 18.2072C4.88243 18.7491 4.57605 19.3155 4.46736 19.9955L4.43169 20.2188H10.9745H17.5174V20.1274C17.5174 19.9529 17.3562 19.4164 17.2171 19.1286C16.7507 18.1627 15.8388 17.4694 14.776 17.2727L14.4432 17.2111H13.5961H12.749L12.7214 17.3576C12.6171 17.912 12.0801 18.4691 11.487 18.6382L11.2556 18.7042L10.8877 18.6885L10.5199 18.6727L10.2267 18.5299C9.73861 18.2923 9.37418 17.8676 9.27095 17.4162L9.22409 17.2111L8.34463 17.2157C7.86093 17.2182 7.36958 17.2358 7.25274 17.2549Z" fill="#0E1829"/>
</svg>
