<svg width="41" height="22" viewBox="0 0 41 22" fill="none" xmlns="http://www.w3.org/2000/svg">
<path d="M29.9004 2.99988C34.1161 2.99991 36.7369 3.66955 38.3057 4.87585C39.9281 6.12363 40.3007 7.84196 40.3008 9.54187C40.3007 11.2772 39.6814 13.6916 38.1992 15.6864C36.6976 17.7072 34.3067 19.2957 30.8291 19.2958C25.4369 19.2958 21.6866 15.0279 20.9697 10.1913H19.3311C18.6141 15.0279 14.8639 19.2958 9.47168 19.2958C5.99408 19.2957 3.60322 17.7072 2.10156 15.6864C0.619365 13.6916 0.000115078 11.2772 0 9.54187C3.56734e-05 7.84196 0.372674 6.12363 1.99512 4.87585C3.56392 3.66955 6.18472 2.99991 10.4004 2.99988C13.8099 2.99988 16.0844 3.67954 17.5088 4.89636C18.774 5.97742 19.2774 7.40321 19.3848 8.89148H20.916C21.0233 7.40319 21.5266 5.97753 22.792 4.89636C24.2163 3.67954 26.4909 2.99988 29.9004 2.99988ZM10.4004 4.30066C6.25949 4.30069 4.00511 4.97045 2.78809 5.90613C1.62508 6.80046 1.30082 8.02872 1.30078 9.54187C1.3009 11.0197 1.84242 13.1573 3.14551 14.911C4.42954 16.6389 6.4496 17.9958 9.47168 17.996C14.2519 17.996 17.6556 14.0628 18.1074 9.50867C18.1018 8.02802 17.7147 6.78236 16.6641 5.88464C15.5811 4.95962 13.6761 4.30066 10.4004 4.30066ZM29.9004 4.30066C26.6247 4.30066 24.7197 4.95962 23.6367 5.88464C22.5861 6.78236 22.199 8.02802 22.1934 9.50867C22.6451 14.0628 26.0489 17.996 30.8291 17.996C33.8512 17.9958 35.8712 16.6389 37.1553 14.911C38.4584 13.1573 38.9999 11.0197 39 9.54187C39 8.02872 38.6757 6.80046 37.5127 5.90613C36.2957 4.97045 34.0413 4.30069 29.9004 4.30066Z" fill="#0E1829"/>
</svg>
