<svg width="40" height="22" viewBox="0 0 40 22" fill="none" xmlns="http://www.w3.org/2000/svg">
<path d="M35.2188 4.37891C36.553 4.58716 38.1488 4.88124 38.7646 5.03223L39.8838 5.30664L39.9424 6.2627L40 7.21875L39.5166 7.67383C39.2511 7.92444 38.8718 8.51041 38.6738 8.97559C38.3199 9.807 37.86 10.2166 37.5439 9.98242C37.4752 9.93191 37.3549 10.0368 37.2295 10.3066C36.7615 14.6366 33.7932 18.0185 30.1436 18.0186C26.4602 18.0186 23.4696 14.574 23.0439 10.1865C23.0165 10.0258 22.9999 9.88274 22.999 9.7627C22.9973 9.5153 22.8283 9.18687 22.623 9.0332C22.4179 8.87949 22.25 8.57378 22.25 8.35352C22.25 7.59551 21.852 7.41602 20.1748 7.41602C18.2962 7.41603 17.958 7.52397 17.958 8.12207C17.9578 8.36082 17.7605 8.77811 17.5195 9.04883L17.1914 9.41602C17.0621 14.1639 13.9423 18.0185 10.0459 18.0186C6.52625 18.0186 3.63875 14.8733 3.01758 10.7656C2.94153 10.4318 2.8734 10.104 2.84277 9.87598H1.78027L1.4375 8.96582C1.24903 8.46477 0.892388 7.86372 0.645508 7.63086C0.356879 7.35885 0.161886 6.89385 0.0986328 6.3291L0 5.45117L1.00195 5.19336C2.37401 4.84061 5.01675 4.31685 5.92188 4.21777C9.91175 3.78139 13.9489 4.36405 16.5762 5.75684L17.6768 6.34082H22.4336L23.7881 5.66699C25.6188 4.7562 27.6296 4.29305 30.4424 4.13379L32.793 4L35.2188 4.37891ZM10.5518 5.13281C7.03012 4.71072 4.41676 5.31431 3.72949 6.70898C3.38208 7.4142 3.23337 8.73352 3.24414 10.1445C3.65244 14.4364 6.56574 17.7188 10.0459 17.7188C13.3712 17.7187 16.1777 14.7217 16.7773 10.7109C16.9029 8.91388 16.4469 7.72668 15.3096 6.73926C14.2794 5.84472 13.0602 5.43341 10.5518 5.13281ZM35.3271 5.68848C33.7135 4.87028 28.4611 4.95545 26.5381 5.83105C24.2393 6.87799 23.2804 8.26295 23.3945 10.5986C23.958 14.6658 26.7872 17.7188 30.1436 17.7188C33.8987 17.7187 36.9961 13.8972 36.9961 9.10938C36.8469 7.13742 36.3669 6.21566 35.3271 5.68848Z" fill="#5691f5"/>
</svg>
