<svg width="40" height="22" viewBox="0 0 40 22" fill="none" xmlns="http://www.w3.org/2000/svg">
<path d="M35.2188 4.37891C36.553 4.58716 38.1488 4.88124 38.7646 5.03223L39.8838 5.30664L39.9424 6.2627L40 7.21875L39.5166 7.67383C39.2511 7.92444 38.8718 8.51041 38.6738 8.97559C38.4355 9.53543 38.1487 9.90306 37.8906 10.0127C37.6107 11.993 36.8019 13.8498 35.666 15.3057C34.2484 17.1225 32.2778 18.3691 30.1436 18.3691C28.0055 18.3691 26.0862 17.1189 24.7217 15.2988C23.4313 13.5774 22.5987 11.3008 22.5088 8.92676C22.3595 8.76254 22.25 8.53073 22.25 8.35352C22.25 7.59551 21.852 7.41602 20.1748 7.41602C18.2962 7.41603 17.958 7.52397 17.958 8.12207C17.9578 8.36082 17.7605 8.77811 17.5195 9.04883L17.5088 9.05957C17.3355 11.4928 16.5715 13.6926 15.4062 15.3574C14.075 17.2593 12.1878 18.5 10.0469 18.5C7.91636 18.5 5.89688 17.2708 4.42871 15.3779C3.2844 13.9024 2.45495 11.9981 2.14062 9.87598H1.78027L1.4375 8.96582C1.24903 8.46477 0.892388 7.86372 0.645508 7.63086C0.356879 7.35885 0.161886 6.89385 0.0986328 6.3291L0 5.45117L1.00195 5.19336C2.37401 4.84061 5.01675 4.31685 5.92188 4.21777C9.91175 3.78139 13.9489 4.36405 16.5762 5.75684L17.6768 6.34082H22.4336L23.7881 5.66699C25.6188 4.7562 27.6296 4.29305 30.4424 4.13379L32.793 4L35.2188 4.37891ZM10.5518 5.13281C7.03012 4.71072 4.41676 5.31431 3.72949 6.70898C3.36051 7.45797 3.21571 8.89965 3.24805 10.4082C3.59966 12.088 4.30339 13.5844 5.21875 14.7646C6.5575 16.4908 8.31152 17.5 10.0469 17.5C11.7719 17.5 13.3847 16.5016 14.5869 14.7842C15.7148 13.1729 16.4523 10.9611 16.5381 8.48535C16.2997 7.81309 15.8965 7.24882 15.3096 6.73926C14.2794 5.84472 13.0602 5.43341 10.5518 5.13281ZM35.3271 5.68848C33.7135 4.87028 28.4611 4.95545 26.5381 5.83105C24.8136 6.61644 23.8428 7.59216 23.5137 9.0166C23.6204 11.1419 24.3767 13.1709 25.5215 14.6982C26.7618 16.3529 28.4143 17.3691 30.1436 17.3691C31.8767 17.3691 33.5842 16.3494 34.8779 14.6914C36.0752 13.157 36.8763 11.1207 36.9854 8.99414C36.8263 7.10138 36.3464 6.20527 35.3271 5.68848Z" fill="#5691f5"/>
</svg>
