<svg width="40" height="22" viewBox="0 0 40 22" fill="none" xmlns="http://www.w3.org/2000/svg">
<path d="M0.0159774 7.34531C-6.33206e-05 8.17233 0.246728 8.49799 0.444871 8.75993C0.508113 8.84456 0.563336 8.91697 0.605147 9.00273C0.698367 9.19468 0.764765 9.43313 0.802369 9.71181C1.619 15.7696 1.80281 16.5954 3.87496 17.931C4.86686 18.5709 6.9064 19 8.9495 19C10.5427 19 12.8439 18.7434 14.7576 17.5218C17.5456 15.7415 18.5845 9.59612 18.6333 9.28687C18.636 9.25566 18.7183 8.52245 19.9921 8.52245H19.9934L20.0714 8.52164C21.2797 8.52164 21.3629 9.25566 21.3718 9.33482C21.4146 9.59612 22.4537 15.7405 25.2417 17.5218C27.1555 18.7442 29.4567 19 31.0499 19C33.0929 19 35.1321 18.5699 36.1241 17.931C38.1965 16.5954 38.3803 15.7688 39.1966 9.711C39.2341 9.43313 39.3009 9.19484 39.3941 9.00209C39.4356 8.91633 39.4907 8.84376 39.5541 8.75913C39.7522 8.49718 39.9994 8.17056 39.9831 7.34451C39.9803 7.20613 39.9852 6.95996 39.9899 6.69013C39.9981 6.27807 40.0056 5.81404 39.994 5.564C39.9355 4.33876 39.0496 3.83981 38.6037 3.751C35.7531 3.03452 32.3306 2.82696 28.7175 3.14441L28.5288 3.16082C26.3249 3.35165 25.1111 3.45655 23.6644 4.2493C23.3287 4.43353 22.9835 4.64173 22.6778 4.83385C22.1338 5.17672 21.3482 5.54872 20.926 5.66199C20.7562 5.70833 20.5839 5.7537 20.4314 5.79119C20.2118 5.84574 19.787 5.84574 19.5674 5.79119C19.4149 5.7529 19.2427 5.70833 19.0724 5.66199C18.6513 5.54872 17.8657 5.17672 17.3213 4.83385C17.0159 4.64189 16.6708 4.43353 16.3348 4.2493C14.8881 3.45655 13.6746 3.35165 11.4707 3.16082L11.2817 3.14441C7.66755 2.82792 4.24022 3.03613 1.40968 3.74842C0.950417 3.84046 0.0650201 4.33957 0.00651076 5.56481C-0.00611148 5.81468 0.00217187 6.27888 0.00992928 6.69078C0.0138737 6.96157 0.0186071 7.20823 0.0159774 7.34531ZM39.1624 5.84011V6.74661L38.2398 6.29352L39.1624 5.84011ZM23.1645 7.14065C23.3041 6.71652 24.183 5.30367 29.6351 4.91526C30.591 4.84736 31.4018 4.81406 32.1141 4.81406C35.3289 4.81406 36.3521 5.52137 36.9607 6.66198C37.3251 7.34435 37.5728 8.77184 37.5755 9.67673C37.5824 11.6529 37.2576 15.1655 35.0185 16.4935C33.9924 17.1017 32.4538 17.465 30.9035 17.465C27.9276 17.465 25.5488 16.2269 24.5418 14.1541C22.4229 9.79885 23.1385 7.21321 23.1645 7.14065ZM3.03677 6.66133C3.64619 5.52024 4.66911 4.81341 7.88358 4.81341C8.59608 4.81341 9.40692 4.84672 10.3628 4.91462C15.8138 5.30367 16.6935 6.71668 16.8497 7.19004C16.8581 7.21337 17.574 9.79998 15.4574 14.1544C14.4494 16.2272 12.0714 17.4654 9.09584 17.4654C7.54488 17.4654 6.00615 17.102 4.9798 16.4938C2.74054 15.1658 2.41617 11.6532 2.42262 9.67705C2.42538 8.77087 2.67283 7.3437 3.03677 6.66133ZM0.834582 5.84011L1.75679 6.29336L0.834582 6.74645V5.84011Z" fill="#5691f5"/>
</svg>
