<svg width="40" height="22" viewBox="0 0 40 22" fill="none" xmlns="http://www.w3.org/2000/svg">
<g clip-path="url(#clip0_3_22289)">
<path fill-rule="evenodd" clip-rule="evenodd" d="M32.7637 3.0309C33.9523 2.99164 35.1159 2.97424 36.1348 3.07289C37.1405 3.1703 38.096 3.38791 38.8115 3.88441C39.5757 4.41492 40.0019 5.2184 40.002 6.29457C40.0019 8.92247 39.1914 12.0705 37.4385 14.5787C35.6714 17.1069 32.9289 19.0015 29.123 19.0016C25.9823 19.0016 23.7976 17.1839 22.4297 14.9196C21.2065 12.8946 20.597 10.4581 20.4873 8.45179H19.5127C19.4029 10.4581 18.7935 12.8947 17.5703 14.9196C16.2024 17.1839 14.0177 19.0016 10.877 19.0016C7.07107 19.0015 4.32859 17.1069 2.56152 14.5787C0.808633 12.0705 -0.00185523 8.92247 -0.00195312 6.29457C-0.00192229 5.2184 0.424287 4.41492 1.18848 3.88441C1.90403 3.38792 2.85947 3.1703 3.86523 3.07289C4.88413 2.97424 6.04769 2.99164 7.23633 3.0309C8.43972 3.07065 9.66833 3.13245 10.877 3.13246C13.3101 3.13247 15.4352 3.25206 16.959 3.87172C17.7397 4.18923 18.3985 4.65149 18.8564 5.32484C19.2092 5.84377 19.4182 6.4533 19.4961 7.15199H20.5039C20.5818 6.45347 20.7908 5.84366 21.1436 5.32484C21.6015 4.65149 22.2603 4.18924 23.041 3.87172C24.5648 3.25206 26.6899 3.13247 29.123 3.13246C30.3317 3.13245 31.5603 3.07065 32.7637 3.0309ZM7.19336 4.3307C6.00581 4.29148 4.91779 4.27715 3.99121 4.36683C3.05179 4.45779 2.36749 4.64897 1.92969 4.95277C1.54069 5.22285 1.29886 5.61284 1.29883 6.29457C1.29893 8.68991 2.04476 11.5708 3.62695 13.8346C5.19528 16.0784 7.56774 17.7008 10.877 17.7008C13.4282 17.7008 15.2465 16.2529 16.458 14.2477C17.6784 12.2274 18.2323 9.70864 18.2324 7.8014C18.2324 7.01988 18.0604 6.46454 17.7822 6.05531C17.5037 5.64578 17.0783 5.32336 16.4697 5.07582C15.214 4.56519 13.3358 4.43325 10.877 4.43324C9.63972 4.43323 8.36633 4.36945 7.19336 4.3307ZM36.0088 4.36683C35.0822 4.27715 33.9942 4.29148 32.8066 4.3307C31.6337 4.36945 30.3603 4.43323 29.123 4.43324C26.6642 4.43325 24.786 4.56519 23.5303 5.07582C22.9217 5.32336 22.4963 5.64578 22.2178 6.05531C21.9396 6.46454 21.7676 7.01988 21.7676 7.8014C21.7677 9.70864 22.3216 12.2274 23.542 14.2477C24.7535 16.2529 26.5718 17.7008 29.123 17.7008C32.4323 17.7008 34.8047 16.0784 36.373 13.8346C37.9552 11.5708 38.7011 8.68991 38.7012 6.29457C38.7011 5.61284 38.4593 5.22286 38.0703 4.95277C37.6325 4.64897 36.9482 4.45779 36.0088 4.36683Z" fill="#5691f5"/>
</g>
<defs>
<clipPath id="clip0_3_22289">
<rect width="40" height="22" fill="white"/>
</clipPath>
</defs>
</svg>
