<svg width="40" height="22" viewBox="0 0 40 22" fill="none" xmlns="http://www.w3.org/2000/svg">
<path d="M38.4872 3.36374C36.6157 3.12235 34.8809 3 33.3346 3C26.8886 3 24.8236 5.0845 23.714 6.20452L23.5359 6.38293C22.7203 7.1872 21.3628 7.30964 20.6244 7.3111L19.9993 7.31188L19.3745 7.3111C18.6368 7.30974 17.2794 7.18729 16.4641 6.38293L16.2862 6.20452C15.1767 5.0845 13.1107 3 6.665 3C5.11793 3 3.38455 3.12225 1.51234 3.36374C0.636059 3.47684 -0.054516 4.38535 0.00339363 5.3471C0.152118 7.80332 0.928211 13.8496 4.91825 16.9389C6.66031 18.2873 8.62819 19 10.6095 19C14.682 19 17.7204 16.0449 18.3507 11.473C18.3597 11.4118 18.588 9.97775 19.9212 9.97775L20.0103 9.97912L20.0791 9.97775C21.4123 9.97775 21.6399 11.4118 21.6493 11.4708C22.2798 16.045 25.3181 19 29.3903 19C31.3717 19 33.3393 18.2873 35.0818 16.9389C39.0715 13.848 39.8477 7.80342 39.9965 5.3471C40.055 4.38535 39.364 3.47616 38.4872 3.36374ZM11.516 17.063C11.2358 17.0837 10.9652 17.0926 10.7043 17.0926C8.47947 17.0926 6.74557 16.3808 5.5503 14.9735C3.63425 12.7202 3.5667 9.24512 3.62661 7.85598C3.63685 7.62062 3.84062 7.29981 4.0391 7.20949C5.05065 6.74647 7.07688 5.96887 9.28326 5.96887C10.1828 5.96887 11.0265 6.10086 11.7906 6.36229C14.9621 7.44718 16.3158 9.00957 16.3158 11.589C16.3165 14.37 14.1175 16.877 11.516 17.063ZM34.449 14.9734C33.2542 16.3808 31.5202 17.0926 29.2966 17.0926C29.0356 17.0926 28.7646 17.0836 28.4844 17.0629C25.8834 16.8769 23.6848 14.3699 23.6848 11.5888C23.6848 9.00938 25.0379 7.4462 28.2103 6.3621C28.9737 6.10076 29.8177 5.96868 30.7175 5.96868C32.924 5.96868 34.9501 6.74628 35.9611 7.20929C36.1594 7.3004 36.364 7.62043 36.3738 7.85656C36.4333 9.24503 36.3658 12.7185 34.449 14.9734Z" fill="#5691f5"/>
</svg>
