<svg width="40" height="22" viewBox="0 0 40 22" fill="none" xmlns="http://www.w3.org/2000/svg">
<path d="M31.2903 2.99988C27.3568 2.99988 24.0278 5.40879 22.9503 8.7036C22.2393 7.93441 21.182 7.44436 20 7.44436C18.818 7.44436 17.76 7.93441 17.0497 8.7036C15.9722 5.40879 12.6432 2.99988 8.70969 2.99988C3.90712 2.99988 0 6.58864 0 10.9999C0 15.4111 3.90712 18.9999 8.70969 18.9999C13.5123 18.9999 17.4194 15.4111 17.4194 10.9999C17.4194 9.69259 18.5768 8.62953 20 8.62953C21.4226 8.62953 22.5806 9.69267 22.5806 10.9999C22.5806 15.4111 26.4877 18.9999 31.2903 18.9999C36.0929 18.9999 40 15.4111 40 10.9999C40 6.58864 36.0929 2.99988 31.2903 2.99988ZM8.70969 17.8146C4.61875 17.8146 1.29031 14.7575 1.29031 10.9998C1.29031 7.24213 4.61867 4.18498 8.70969 4.18498C12.8007 4.18498 16.1291 7.24213 16.1291 10.9998C16.1291 14.7575 12.8006 17.8146 8.70969 17.8146ZM31.2903 17.8146C27.1994 17.8146 23.8709 14.7575 23.8709 10.9998C23.8709 7.24213 27.1993 4.18498 31.2903 4.18498C35.3813 4.18498 38.7097 7.24213 38.7097 10.9998C38.7097 14.7575 35.3813 17.8146 31.2903 17.8146Z" fill="#5691f5"/>
</svg>
