<svg width="105" height="107" viewBox="0 0 105 107" fill="none" xmlns="http://www.w3.org/2000/svg">
<path d="M95.1775 39.661C99.1051 37.7342 98.1794 27.7731 93.104 17.4129C88.0287 7.0527 80.7291 0.208574 76.7954 2.1361C72.8678 4.06292 73.7935 14.0239 78.8688 24.3841C83.9441 34.7443 91.2437 41.5885 95.1775 39.661Z" fill="#5690F4"/>
<path d="M63.2617 62.5427C65.3281 58.6829 58.7593 51.1378 48.5878 45.6882C38.4163 40.2387 28.495 38.9457 26.4286 42.8055C24.3621 46.6653 30.9309 54.2104 41.1024 59.6599C51.2739 65.1095 61.1952 66.4025 63.2617 62.5427Z" stroke="black" stroke-width="4.02175" stroke-linecap="round" stroke-linejoin="round"/>
<path d="M51.6484 95.4518C51.4481 91.0775 41.9421 87.9594 30.4142 88.4903C18.8855 89.015 9.70308 92.9891 9.90264 97.3572C10.1029 101.732 19.6089 104.85 31.1376 104.325C42.6662 103.8 51.8487 99.8261 51.6491 95.458L51.6484 95.4518Z" stroke="black" stroke-width="4.02175" stroke-linecap="round" stroke-linejoin="round"/>
</svg>
