<svg width="155" height="181" viewBox="0 0 155 181" fill="none" xmlns="http://www.w3.org/2000/svg">
<path d="M43.9606 36.5452L15.6306 85.9752C7.30057 100.515 17.7206 118.685 34.4006 118.685H91.0506C107.731 118.685 118.151 100.515 109.821 85.9752L81.4906 36.5452C73.1506 21.9952 54.2606 18.5552 43.9506 36.5452" fill="#5690F4"/>
<path d="M43.9606 36.5452L15.6306 85.9752C7.30057 100.515 17.7206 118.685 34.4006 118.685H91.0506C107.731 118.685 118.151 100.515 109.821 85.9752L81.4906 36.5452C73.1506 21.9952 54.2606 18.5552 43.9506 36.5452H43.9606Z" stroke="black" stroke-width="2.43" stroke-linejoin="round"/>
<path d="M117.55 90.2947C103.18 93.8347 89.11 98.6147 75.54 104.565C76.37 107.255 77.2 109.945 78.03 112.635C78.19 113.165 78.4 113.745 78.9 113.985C79.36 114.205 79.89 114.045 80.37 113.885C92.28 109.855 104.19 105.825 116.1 101.795C117.88 101.195 119.78 100.505 120.86 98.9547C121.87 97.5047 121.92 95.5247 121.25 93.8947C120.58 92.2647 119.25 90.9747 117.74 90.0647" fill="white"/>
<path d="M117.55 90.2949C103.18 93.8349 89.11 98.6149 75.54 104.565C76.37 107.255 77.2 109.945 78.03 112.635C78.35 113.925 79.11 114.395 80.37 113.875C92.28 109.845 104.19 105.815 116.1 101.785C117.88 101.185 119.78 100.495 120.86 98.9449C122.99 95.8049 120.79 91.6849 117.74 90.0549" stroke="black" stroke-width="2.43" stroke-linecap="round" stroke-linejoin="round"/>
<path d="M111.491 108.745C112.041 110.085 113.981 110.355 115.211 109.595C116.441 108.835 117.091 107.405 117.531 106.025C118.421 103.225 118.731 100.245 118.441 97.3154C118.341 96.2954 118.151 95.2354 117.541 94.4054C116.931 93.5754 115.811 93.0554 114.861 93.4354C114.081 93.7554 113.611 94.5854 113.451 95.4254C113.301 96.2554 113.401 97.1154 113.421 97.9654C113.491 100.675 112.731 103.395 111.271 105.665C112.451 103.925 113.681 102.065 113.761 99.9554C113.841 97.8454 112.251 95.5354 110.161 95.6854C108.111 95.8354 106.901 98.0854 106.521 100.115C106.151 102.145 106.171 104.375 104.971 106.045C104.971 104.925 105.381 103.855 105.731 102.795C106.081 101.735 106.391 100.605 106.171 99.5154C105.951 98.4154 105.061 97.3854 103.951 97.3754C103.121 97.3754 102.371 97.9354 101.921 98.6254C101.471 99.3254 101.271 100.145 101.071 100.955C100.711 102.415 100.351 103.875 100.001 105.335C99.6608 106.705 99.3309 108.185 99.8309 109.505C100.321 110.825 102.021 111.775 103.181 110.985C104.061 110.385 104.531 108.965 105.581 109.075C106.191 109.135 106.581 109.715 107.081 110.075C108.361 110.995 110.481 109.985 110.601 108.405" fill="#5690F4"/>
<path d="M111.491 108.745C112.041 110.085 113.981 110.355 115.211 109.595C118.511 107.525 119.571 97.5349 117.551 94.3949C116.191 92.5649 113.801 93.1549 113.461 95.4049C113.311 96.2349 113.411 97.0949 113.431 97.9449C113.501 100.655 112.741 103.375 111.281 105.645C112.461 103.905 113.691 102.045 113.771 99.9349C113.851 97.8249 112.261 95.5149 110.171 95.6649C108.121 95.8149 106.911 98.0649 106.531 100.095C106.161 102.125 106.181 104.355 104.981 106.025C104.981 104.905 105.391 103.835 105.741 102.775C106.091 101.715 106.401 100.585 106.181 99.4949C105.721 97.2149 103.191 96.5649 101.931 98.6049C100.851 100.665 100.661 103.095 100.001 105.315C99.6608 106.685 99.3309 108.165 99.8309 109.485C100.321 110.805 102.021 111.755 103.181 110.965C104.061 110.365 104.531 108.945 105.581 109.055C106.191 109.115 106.581 109.695 107.081 110.055C108.361 110.975 110.481 109.965 110.601 108.385" stroke="black" stroke-width="2.43" stroke-linecap="round" stroke-linejoin="round"/>
<path d="M124.33 87.2751C123.14 85.7851 121.19 84.7851 119.33 85.1751C117.47 85.5651 116.01 87.6651 116.66 89.4551C117.07 90.5651 118.11 91.3051 118.75 92.2951C119.48 93.4451 119.63 94.8751 119.7 96.2351C119.78 97.6051 119.81 99.0151 120.36 100.265C120.91 101.515 122.14 102.585 123.5 102.465C124.57 102.375 125.46 101.575 126.1 100.695C126.73 99.8151 127.21 98.8151 127.93 98.0051C128.65 97.1951 129.73 96.5851 130.78 96.8251C132.41 97.1951 133.26 99.3651 134.92 99.4951C136.26 99.6051 137.29 98.2851 137.75 97.0151C139.06 93.4551 138.05 89.4751 136.62 85.9651C135.95 84.3151 135.11 82.6351 133.65 81.6351C132.18 80.6451 129.91 80.6651 128.88 82.1151C128.08 83.2551 128.26 84.8751 127.46 86.0251C126.49 87.4151 124.11 87.4251 123.13 86.0451" fill="white"/>
<path d="M124.33 87.2751C123.14 85.7851 121.19 84.7851 119.33 85.1751C117.47 85.5651 116.01 87.6651 116.66 89.4551C117.07 90.5651 118.11 91.3051 118.75 92.2951C119.48 93.4451 119.63 94.8751 119.7 96.2351C119.78 97.6051 119.81 99.0151 120.36 100.265C120.91 101.515 122.14 102.585 123.5 102.465C124.57 102.375 125.46 101.575 126.1 100.695C126.73 99.8151 127.21 98.8151 127.93 98.0051C128.65 97.1951 129.73 96.5851 130.78 96.8251C132.41 97.1951 133.26 99.3651 134.92 99.4951C136.26 99.6051 137.29 98.2851 137.75 97.0151C139.06 93.4551 138.05 89.4751 136.62 85.9651C135.95 84.3151 135.11 82.6351 133.65 81.6351C132.18 80.6451 129.91 80.6651 128.88 82.1151C128.08 83.2551 128.26 84.8751 127.46 86.0251C126.49 87.4151 124.11 87.4251 123.13 86.0451" stroke="black" stroke-width="2.43" stroke-linecap="round" stroke-linejoin="round"/>
<path d="M65.0603 103.085C64.2003 99.6549 61.7604 96.7349 58.7304 94.9349C55.7004 93.1349 52.1403 92.3849 48.6203 92.3949C40.6903 92.4149 32.7904 96.4449 28.3904 103.075C23.9904 109.715 23.3804 118.815 27.1704 125.815C30.2804 131.575 35.9704 135.585 42.0704 137.875C47.3604 139.865 53.6603 140.575 58.3703 137.445C61.4103 135.435 63.5004 132.015 66.8904 130.675C70.1704 129.375 73.9904 130.345 77.3204 129.145C81.7204 127.565 84.0404 122.645 84.7704 118.005C85.5604 113.025 85.0104 107.755 82.6704 103.305C80.3404 98.8449 76.1104 95.3049 71.1903 94.3549C67.8004 93.7049 63.6504 94.7049 62.2804 97.8849" fill="white"/>
<path d="M65.0603 103.085C63.2603 95.9454 55.5703 92.2054 48.6203 92.3854C40.6903 92.4054 32.7904 96.4354 28.3904 103.065C19.5804 117.165 27.0104 132.575 42.0704 137.865C47.3604 139.855 53.6603 140.565 58.3703 137.435C61.4103 135.425 63.5004 132.005 66.8904 130.665C70.1704 129.365 73.9904 130.335 77.3204 129.135C81.7204 127.555 84.0404 122.635 84.7704 117.995C85.5604 113.015 85.0104 107.745 82.6704 103.295C80.3404 98.8354 76.1104 95.2954 71.1904 94.3454C67.8004 93.6954 63.6504 94.6954 62.2804 97.8754" stroke="black" stroke-width="2.43" stroke-linecap="round" stroke-linejoin="round"/>
<path d="M58.8506 109.725C58.8506 105.105 62.5906 101.365 67.2006 101.365C71.8106 101.365 75.5505 105.105 75.5505 109.725C75.5505 114.345 71.8106 118.095 67.2006 118.095C62.5906 118.095 58.8506 114.355 58.8506 109.725Z" fill="black"/>
<path d="M74.4209 111.105C89.7109 107.595 100.591 102.935 100.591 102.935" stroke="black" stroke-width="2.43" stroke-linecap="round" stroke-linejoin="round"/>
<path d="M73.2305 108.145C82.5005 105.555 91.6905 102.695 100.78 99.5647" stroke="black" stroke-width="2.43" stroke-linecap="round" stroke-linejoin="round"/>
<path d="M119.071 82.2747C119.841 84.6347 120.611 87.0047 121.371 89.3647" stroke="black" stroke-width="2.43" stroke-linecap="round" stroke-linejoin="round"/>
<path d="M124.44 97.6848C124.76 100.515 125.34 103.325 126.18 106.045" stroke="black" stroke-width="2.43" stroke-linecap="round" stroke-linejoin="round"/>
<path d="M134.411 95.7356C135.241 98.5256 135.901 101.356 136.401 104.226C136.391 103.936 136.371 103.646 136.361 103.366" stroke="black" stroke-width="2.43" stroke-linecap="round" stroke-linejoin="round"/>
<path d="M127.911 77.0754C128.751 79.6254 129.501 82.2054 130.161 84.8054" stroke="black" stroke-width="2.43" stroke-linecap="round" stroke-linejoin="round"/>
<path d="M44.6207 116.285C41.4307 117.085 38.1907 117.685 34.9307 118.095" stroke="black" stroke-width="2.43" stroke-linecap="round" stroke-linejoin="round"/>
<path d="M49.6906 119.656L35.5605 121.976" stroke="black" stroke-width="2.43" stroke-linecap="round" stroke-linejoin="round"/>
<path d="M52.4213 122.505C47.3313 123.695 42.1812 124.605 36.9912 125.215" stroke="black" stroke-width="2.43" stroke-linecap="round" stroke-linejoin="round"/>
<path d="M36.7206 117.155C36.5306 116.525 36.3405 115.885 35.9905 115.335C35.6405 114.775 35.1206 114.305 34.4806 114.165C33.6406 113.985 32.7606 114.445 32.2306 115.125C31.7006 115.805 31.4706 116.675 31.3606 117.535C30.8806 121.015 32.1206 124.685 34.6006 127.155C35.0106 127.565 35.4806 127.955 36.0306 128.145C36.5806 128.335 37.2505 128.275 37.6805 127.875C38.1005 127.485 38.2106 126.875 38.2706 126.305C38.6406 122.995 38.0506 119.575 36.5906 116.585" stroke="black" stroke-width="2.43" stroke-linecap="round" stroke-linejoin="round"/>
<path d="M83.4813 101.285C79.7313 102.765 75.9812 104.245 72.2412 105.725C73.1612 108.475 73.7213 111.345 73.9113 114.245C78.4713 113.635 82.9912 112.735 87.4312 111.545" stroke="black" stroke-width="2.43" stroke-linecap="round" stroke-linejoin="round"/>
<path d="M36.0006 84.5252C34.5706 87.6452 35.7006 91.4652 37.8906 94.1052C40.0806 96.7452 43.1606 98.4452 46.1606 100.075C49.1606 101.715 52.2406 103.405 54.4506 106.025C53.9306 105.525 53.4106 105.025 52.8906 104.525C54.3806 103.455 54.9506 101.525 55.2506 99.7052C55.5506 97.8952 55.7006 95.9752 56.6906 94.4252C57.6706 92.8752 59.8506 91.8852 61.3706 92.9052C62.3306 93.5452 62.7706 94.7452 62.9206 95.8952C63.7306 102.065 62.5806 102.855 60.5306 105.575C63.3606 105.595 64.9206 105.295 67.1806 107.015C68.7306 108.205 68.9906 108.985 68.8306 110.005C68.7306 110.615 67.4606 111.945 66.9106 112.215C64.0206 113.595 62.8106 113.245 59.8706 111.995C61.8406 113.215 63.7806 114.655 64.9306 116.675C66.0706 118.685 64.5606 121.165 62.2706 120.985C60.4106 120.845 58.3106 120.475 56.8106 119.355C58.2406 120.435 59.7306 121.595 60.4306 123.245C61.1306 124.895 60.7006 127.185 59.0606 127.905C57.6506 128.525 55.9806 127.745 54.9606 126.595C53.9306 125.445 53.3506 123.975 52.5306 122.675C49.0306 117.125 41.9806 115.325 36.3106 112.055C32.1506 109.655 29.0506 107.345 25.3606 104.275C21.8106 101.325 19.8006 95.0052 21.4006 90.4552C23.0006 85.9152 26.7606 80.9652 31.2606 78.1252" fill="#5690F4"/>
<path d="M35.9998 84.5252C34.5698 87.6452 35.6999 91.4652 37.8899 94.1052C42.3099 99.4152 49.9999 100.755 54.4499 106.025C53.9299 105.525 53.4099 105.025 52.8899 104.525C54.3799 103.455 54.9498 101.525 55.2498 99.7052C55.5498 97.8952 55.6998 95.9752 56.6898 94.4252C57.6698 92.8752 59.8498 91.8852 61.3698 92.9052C62.3298 93.5452 62.7699 94.7452 62.9199 95.8952C63.7299 102.065 62.5799 102.855 60.5299 105.575C63.3599 105.595 64.9198 105.295 67.1798 107.015C68.7298 108.205 68.9899 108.985 68.8299 110.005C68.7299 110.615 67.4599 111.955 66.9099 112.215C64.0199 113.595 62.8098 113.245 59.8698 111.995C61.8398 113.215 63.7798 114.655 64.9298 116.675C66.0698 118.685 64.5599 121.165 62.2699 120.985C60.4099 120.845 58.3098 120.475 56.8098 119.355C58.2398 120.435 59.7298 121.595 60.4298 123.245C61.1298 124.895 60.6998 127.185 59.0598 127.905C55.7098 129.085 53.8599 125.065 52.5199 122.675C49.0199 117.125 41.9698 115.325 36.2998 112.055C32.1398 109.655 29.0399 107.345 25.3499 104.275C21.7999 101.325 19.7899 95.0052 21.3899 90.4552C22.9899 85.9152 26.7498 80.9652 31.2498 78.1252" stroke="black" stroke-width="2.43" stroke-linecap="round" stroke-linejoin="round"/>
<path d="M43.2811 138.765C42.3411 140.505 41.3911 142.235 40.4511 143.975C40.2511 144.355 40.0311 144.755 40.0911 145.185C40.1611 145.765 40.6811 146.165 41.1611 146.505C42.2911 147.295 43.4311 148.075 44.5611 148.865C45.2411 146.635 45.9211 144.405 46.6011 142.175C46.8411 141.395 47.0611 140.495 46.6111 139.815C45.9111 138.745 42.9111 138.855 42.0811 137.875" fill="#5690F4"/>
<path d="M43.2811 138.765C42.3411 140.505 41.3911 142.235 40.4511 143.975C40.2511 144.355 40.0311 144.755 40.0911 145.185C40.1611 145.765 40.6811 146.165 41.1611 146.505C42.2911 147.295 43.4311 148.075 44.5611 148.865C45.2411 146.635 45.9211 144.405 46.6011 142.175C46.8411 141.395 47.0611 140.495 46.6111 139.815C45.9111 138.745 42.9111 138.855 42.0811 137.875" stroke="black" stroke-width="2.43" stroke-linecap="round" stroke-linejoin="round"/>
<path d="M72.441 129.645C73.551 135.295 74.6611 140.945 75.7711 146.585C76.6111 145.845 77.8111 145.715 78.9011 145.495C80.0011 145.275 81.2011 144.835 81.6611 143.815C81.9911 143.085 81.8711 142.235 81.7311 141.435C80.9611 136.875 80.1911 132.305 79.4211 127.745C77.1711 129.125 74.4511 129.715 71.8311 129.405" fill="#5690F4"/>
<path d="M72.4408 129.645C73.5508 135.295 74.6608 140.945 75.7708 146.585C76.6108 145.845 77.8108 145.715 78.9008 145.495C81.2308 145.095 82.3208 143.775 81.7408 141.435C80.9708 136.875 80.2008 132.305 79.4308 127.745C77.1808 129.125 74.4608 129.715 71.8408 129.405" stroke="black" stroke-width="2.43" stroke-linecap="round" stroke-linejoin="round"/>
<path d="M60.3408 56.6952C60.5408 52.9452 60.7208 49.0652 59.4508 45.5352C58.1908 41.9952 55.1009 38.8452 51.3609 38.7152C48.6909 38.6252 46.1808 40.0752 44.2008 41.8852C39.6708 46.0252 37.2508 52.0952 36.3808 58.1952C35.8408 61.9852 35.8708 66.0052 37.4608 69.4852C39.0508 72.9652 42.4909 75.7852 46.2909 75.7552C50.3209 75.7152 54.7608 72.5552 56.4608 68.8752C57.2308 67.1952 57.4709 65.7252 57.9809 63.9452C58.7109 61.4152 61.4408 61.7952 62.8808 62.9552C63.2008 66.6952 64.6008 70.4352 67.2708 73.0552C69.9408 75.6752 73.9608 77.0152 77.5508 75.9852C81.5108 74.8452 84.2608 71.1552 85.8308 67.3252C88.3808 61.1152 88.5608 53.9552 86.3308 47.6152C85.4308 45.0552 83.9808 42.4752 81.5308 41.3552C78.5508 39.9952 74.9708 41.2552 72.4408 43.3452C68.2708 46.7852 66.1808 52.0952 64.2508 57.1652C63.0208 57.1452 61.7908 57.1152 60.5608 57.0952" fill="#F44DA3"/>
<path d="M60.3411 56.6951C60.5411 52.9451 60.7211 49.0651 59.4511 45.5351C58.1911 41.9951 55.1011 38.8451 51.3611 38.7151C42.5011 39.1051 37.3911 50.3951 36.3711 58.1951C35.8311 61.9851 35.8611 66.0051 37.4511 69.4851C39.0411 72.9651 42.4811 75.7851 46.2811 75.7551C50.3111 75.7151 54.7511 72.5551 56.4511 68.8751C57.2211 67.1951 57.4611 65.7251 57.9711 63.9451C58.7011 61.4151 61.4311 61.7951 62.8711 62.9551C63.1911 66.6951 64.5911 70.4351 67.2611 73.0551C74.3911 79.6151 82.6111 75.7051 85.8211 67.3251C88.3711 61.1151 88.5511 53.9551 86.3211 47.6151C85.4211 45.0551 83.9711 42.4751 81.5211 41.3551C78.5411 39.9951 74.9611 41.2551 72.4311 43.3451C68.2611 46.7851 66.1711 52.0951 64.2411 57.1651C63.0111 57.1451 61.781 57.1151 60.551 57.0951" stroke="black" stroke-width="2.43" stroke-linecap="round" stroke-linejoin="round"/>
<path d="M40.4013 56.1951C41.6313 48.9851 46.0813 43.7351 50.3213 44.4751C54.5713 45.2151 57.0113 51.6551 55.7713 58.8651C54.5413 66.0751 50.0913 71.3251 45.8513 70.5851C41.6113 69.8451 39.1613 63.4051 40.4013 56.1951Z" fill="black"/>
<path d="M69.0507 57.5056C70.2807 50.2956 74.7307 45.0456 78.9707 45.7856C83.2107 46.5256 85.6607 52.9656 84.4207 60.1756C83.1907 67.3856 78.7507 72.6356 74.5007 71.8956C70.2607 71.1556 67.8107 64.7156 69.0507 57.5056Z" fill="black"/>
<path d="M79.0208 50.8655C76.9208 54.9755 75.1008 59.2255 73.5908 63.5855" stroke="white" stroke-width="2.43" stroke-linecap="round" stroke-linejoin="round"/>
<path d="M80.7906 58.7356C79.9106 60.8456 79.0306 62.9556 78.1406 65.0656" stroke="white" stroke-width="2.43" stroke-linecap="round" stroke-linejoin="round"/>
<path d="M52.6811 48.5247C49.9011 52.7047 47.4711 57.1147 45.4111 61.7047" stroke="white" stroke-width="2.43" stroke-linecap="round" stroke-linejoin="round"/>
<path d="M53.0807 56.635C52.2707 58.445 51.3107 60.185 50.2207 61.835" stroke="white" stroke-width="2.43" stroke-linecap="round" stroke-linejoin="round"/>
<path d="M56.5908 77.1547C56.5908 73.0747 58.5808 69.7747 61.0308 69.7747C63.4808 69.7747 65.4708 73.0847 65.4708 77.1547C65.4708 81.2247 63.4808 84.5347 61.0308 84.5347C58.5808 84.5347 56.5908 81.2247 56.5908 77.1547Z" fill="black"/>
<path d="M59.3213 72.905V71.215C59.3213 70.735 59.7113 70.345 60.1913 70.345H61.8613C62.3413 70.345 62.7313 70.735 62.7313 71.215V72.905C62.7313 73.385 62.3413 73.775 61.8613 73.775H60.1913C59.7113 73.775 59.3213 73.385 59.3213 72.905Z" fill="white"/>
<path d="M29.1506 146.385C29.8806 145.305 30.0306 143.955 30.3906 142.705C30.7506 141.455 31.4905 140.145 32.7505 139.835C33.5305 139.645 34.3406 139.895 35.1106 140.135C36.3006 140.515 37.4806 140.895 38.6606 141.285C39.2806 141.485 39.9605 141.745 40.2405 142.325C40.5805 143.025 40.2106 143.855 39.8306 144.535C37.8306 148.125 35.5905 151.575 33.1205 154.855C31.7705 152.255 30.4105 149.645 29.0605 147.045" fill="white"/>
<path d="M29.1506 146.385C29.8806 145.305 30.0306 143.955 30.3906 142.705C30.7506 141.455 31.4905 140.145 32.7505 139.835C33.5305 139.645 34.3406 139.895 35.1106 140.135C36.3006 140.515 37.4806 140.895 38.6606 141.285C39.2806 141.485 39.9605 141.745 40.2405 142.325C40.5805 143.025 40.2106 143.855 39.8306 144.535C37.8306 148.125 35.5905 151.575 33.1205 154.855C31.7705 152.255 30.4105 149.645 29.0605 147.045" stroke="black" stroke-width="2.43" stroke-linecap="round" stroke-linejoin="round"/>
<path d="M39.4999 145.406C41.2199 146.486 42.9399 147.556 44.6699 148.636C44.7999 148.716 44.9499 148.816 45.0099 148.956C45.0699 149.096 45.0499 149.246 45.0299 149.396L44.4999 152.886C41.9399 152.506 39.4199 151.896 36.9699 151.036C36.8199 150.986 36.6399 150.906 36.5999 150.746C36.5699 150.616 36.6399 150.496 36.7099 150.386L39.7599 145.526" fill="white"/>
<path d="M39.4999 145.406C41.2199 146.486 42.9399 147.556 44.6699 148.636C44.7999 148.716 44.9499 148.816 45.0099 148.956C45.0699 149.096 45.0499 149.246 45.0299 149.396L44.4999 152.886C41.9399 152.506 39.4199 151.896 36.9699 151.036C36.8199 150.986 36.6399 150.906 36.5999 150.746C36.5699 150.616 36.6399 150.496 36.7099 150.386L39.7599 145.526" stroke="black" stroke-width="2.43" stroke-linecap="round" stroke-linejoin="round"/>
<path d="M36.6604 150.735C39.8204 151.645 42.9804 152.545 46.1404 153.455C46.4404 157.685 45.4004 161.925 43.7604 165.845C42.1204 169.755 39.8804 173.375 37.6604 176.985C37.1204 177.865 36.5103 178.795 35.5603 179.195C34.5203 179.625 33.3404 179.315 32.2704 178.975C24.7504 176.585 17.5803 173.095 11.0503 168.645C8.15034 166.665 5.31038 164.425 3.47038 161.425C-0.0396175 155.685 0.820343 148.025 4.18034 142.195C5.49034 139.925 7.23039 137.795 9.60039 136.695C13.4004 134.925 17.9603 136.185 21.5503 138.355C27.6003 142.015 32.0604 148.235 33.5704 155.375C34.1704 153.785 35.0404 152.295 36.1404 150.995" fill="white"/>
<path d="M36.6604 150.735C39.8204 151.645 42.9804 152.545 46.1404 153.455C46.4404 157.685 45.4004 161.925 43.7604 165.845C42.1204 169.755 39.8804 173.375 37.6604 176.985C36.4004 179.335 34.7704 179.905 32.2704 178.975C24.7504 176.585 17.5803 173.095 11.0503 168.645C8.15034 166.665 5.31038 164.425 3.47038 161.425C-0.0396175 155.685 0.820343 148.025 4.18034 142.195C8.00034 135.025 14.8803 134.255 21.5503 138.355C27.6003 142.015 32.0604 148.235 33.5704 155.375C34.1704 153.785 35.0404 152.295 36.1404 150.995" stroke="black" stroke-width="2.43" stroke-linecap="round" stroke-linejoin="round"/>
<path d="M116.321 80.6454C116.321 79.5954 117.191 78.7454 118.271 78.7454C119.351 78.7454 120.221 79.5954 120.221 80.6454C120.221 81.6954 119.351 82.5454 118.271 82.5454C117.191 82.5454 116.321 81.6954 116.321 80.6454Z" fill="black"/>
<path d="M125.491 77.1551C125.491 76.1051 126.361 75.2551 127.441 75.2551C128.521 75.2551 129.391 76.1051 129.391 77.1551C129.391 78.2051 128.521 79.0551 127.441 79.0551C126.361 79.0551 125.491 78.2051 125.491 77.1551Z" fill="black"/>
<path d="M134.471 104.835C134.471 103.785 135.341 102.935 136.421 102.935C137.501 102.935 138.371 103.785 138.371 104.835C138.371 105.885 137.501 106.735 136.421 106.735C135.341 106.735 134.471 105.885 134.471 104.835Z" fill="black"/>
<path d="M124.23 107.015C124.23 105.965 125.1 105.115 126.18 105.115C127.26 105.115 128.13 105.965 128.13 107.015C128.13 108.065 127.26 108.915 126.18 108.915C125.1 108.915 124.23 108.065 124.23 107.015Z" fill="black"/>
<path d="M75.3511 145.795L75.9111 151.745C75.9511 152.115 76.0011 152.515 76.2811 152.765C76.5611 153.015 76.9811 153.005 77.3611 152.975C79.3511 152.845 81.3411 152.715 83.3311 152.585C83.7111 149.345 83.4811 146.025 82.6511 142.875C80.3611 144.445 77.6711 145.405 74.9111 145.625" fill="white"/>
<path d="M75.3511 145.795L75.9111 151.745C75.9511 152.115 76.0011 152.515 76.2811 152.765C76.5611 153.015 76.9811 153.005 77.3611 152.975C79.3511 152.845 81.3411 152.715 83.3311 152.585C83.7111 149.345 83.4811 146.025 82.6511 142.875C80.3611 144.445 77.6711 145.405 74.9111 145.625" stroke="black" stroke-width="2.43" stroke-linecap="round" stroke-linejoin="round"/>
<path d="M85.82 158.285C84.23 155.715 82.88 152.995 81.79 150.175C83.78 148.075 86.19 146.385 88.84 145.245C89.28 145.055 89.83 144.885 90.21 145.185C90.48 145.395 90.56 145.755 90.63 146.075L92.21 153.715C89.77 154.955 87.51 156.575 85.54 158.485" fill="white"/>
<path d="M85.82 158.285C84.23 155.715 82.88 152.995 81.79 150.175C83.78 148.075 86.19 146.385 88.84 145.245C89.28 145.055 89.83 144.885 90.21 145.185C90.48 145.395 90.56 145.755 90.63 146.075C92.95 157.605 93.1 151.195 85.54 158.485" stroke="black" stroke-width="2.43" stroke-linecap="round" stroke-linejoin="round"/>
<path d="M75.4398 152.515C74.8598 158.255 74.5898 164.025 74.6298 169.805C74.6398 171.285 74.7898 172.985 75.9898 173.835C76.7098 174.335 77.6298 174.405 78.4998 174.445C91.7198 175.095 104.99 174.855 118.18 173.715C118.55 169.805 118.47 165.795 117.33 162.035C116.19 158.275 113.88 154.785 110.54 152.755C106.58 150.355 101.55 150.255 97.1198 151.605C92.6998 152.955 88.7799 155.605 85.1499 158.485C83.8899 156.795 84.0699 154.125 82.3599 152.895C81.4099 152.215 80.1498 152.205 78.9998 152.375C77.8498 152.535 76.6998 152.845 75.5498 152.715" fill="white"/>
<path d="M75.4398 152.515C74.8598 158.255 74.5898 164.025 74.6298 169.805C74.6398 171.285 74.7898 172.985 75.9898 173.835C76.7098 174.335 77.6298 174.405 78.4998 174.445C91.7198 175.095 104.99 174.855 118.18 173.715C118.55 169.805 118.47 165.795 117.33 162.035C114.65 152.815 106.15 148.765 97.1198 151.605C92.6998 152.955 88.7799 155.605 85.1499 158.485C83.8899 156.795 84.0699 154.125 82.3599 152.895C80.3299 151.495 77.7698 152.965 75.5498 152.715" stroke="black" stroke-width="2.43" stroke-linecap="round" stroke-linejoin="round"/>
<path d="M38.2304 176.425C38.0204 174.065 36.5203 171.985 34.6903 170.495C32.8603 169.015 30.6804 168.025 28.5904 166.945C23.1904 164.185 18.1103 160.795 13.4903 156.865C10.8003 154.575 8.20033 152.065 4.93033 150.735C4.17033 150.425 3.24035 150.205 2.58035 150.695C2.13035 151.035 1.93033 151.615 1.81033 152.175C0.950332 156.065 2.30038 160.215 4.67038 163.415C7.04038 166.615 10.3404 168.985 13.7304 171.055C19.5904 174.625 25.9204 177.445 32.5804 179.065C33.6003 179.315 34.6903 179.535 35.7003 179.235C36.7103 178.935 37.6004 177.945 37.4204 176.905" fill="black"/>
<path d="M91.8408 154.105C90.8808 155.745 89.4108 162.285 93.1108 160.885C93.7208 160.565 94.1508 159.975 94.5208 159.385C95.9108 157.185 96.7808 154.665 97.0708 152.075" stroke="black" stroke-width="2.43" stroke-linecap="round" stroke-linejoin="round"/>
<path d="M101.281 150.935C100.231 152.035 99.5812 153.525 99.4812 155.055C99.4512 155.495 99.4812 155.965 99.7312 156.325C100.121 156.865 100.951 156.935 101.551 156.645C102.151 156.355 102.571 155.785 102.941 155.225C103.691 154.055 104.281 152.795 104.711 151.475" stroke="black" stroke-width="2.43" stroke-linecap="round" stroke-linejoin="round"/>
<path d="M110.58 153.065C109.53 152.525 108.34 153.455 107.59 154.365C104.27 158.335 102.16 163.315 101.61 168.475" stroke="black" stroke-width="2.43" stroke-linecap="round" stroke-linejoin="round"/>
<path d="M74.9004 169.746C80.0004 169.046 85.1704 169.486 90.3104 169.676C99.4704 170.026 108.65 169.596 117.74 168.406" stroke="black" stroke-width="2.43" stroke-linecap="round" stroke-linejoin="round"/>
<path d="M2.57129 146.765C12.8513 148.895 19.8813 157.665 28.4813 162.985C32.6613 165.555 37.5913 167.605 40.2113 171.975" stroke="black" stroke-width="2.43" stroke-linecap="round" stroke-linejoin="round"/>
<path d="M15.7002 136.205C20.3902 140.345 20.7802 148.135 16.5402 152.725" stroke="black" stroke-width="2.43" stroke-linecap="round" stroke-linejoin="round"/>
<path d="M24.5406 141.115C23.4706 143.915 22.3906 146.765 22.2006 149.765C22.1706 150.195 22.1705 150.645 22.3105 151.055C22.4605 151.465 22.7906 151.825 23.2206 151.895C23.8506 151.995 24.3906 151.435 24.7606 150.905C26.1806 148.875 27.0206 146.435 27.1706 143.955" stroke="black" stroke-width="2.43" stroke-linecap="round" stroke-linejoin="round"/>
<path d="M29.4804 145.795C28.7704 148.665 28.0604 151.555 27.9704 154.505C27.9604 154.965 27.9604 155.445 28.1204 155.885C28.2904 156.315 28.6504 156.705 29.1004 156.775C29.6704 156.855 30.1904 156.445 30.5704 156.015C31.5204 154.935 32.1304 153.555 32.2704 152.115" stroke="black" stroke-width="2.43" stroke-linecap="round" stroke-linejoin="round"/>
<path d="M47.7199 1.21509L51.9999 7.16509L59.4999 4.91509L54.6499 10.8451L58.9399 16.7951L51.6599 14.5051L46.8199 20.4351L47.1599 13.0951L39.8799 10.8151L47.3699 8.56509L47.7199 1.21509Z" fill="#F4C156"/>
<path d="M47.7199 1.21509L51.9999 7.16509L59.4999 4.91509L54.6499 10.8451L58.9399 16.7951L51.6599 14.5051L46.8199 20.4351L47.1599 13.0951L39.8799 10.8151L47.3699 8.56509L47.7199 1.21509Z" stroke="black" stroke-width="2.43" stroke-linejoin="round"/>
<path d="M112.58 43.5754C111.63 41.7554 112.12 39.2854 113.51 37.5554C116.64 33.5754 123 34.6654 125.93 38.4054C127.43 40.2654 128.17 42.5654 128.34 44.8054C128.51 46.7354 127.89 49.0654 127.55 50.7954C127.42 51.5454 127.45 52.0454 127.57 52.3354C127.92 53.0754 128.86 53.2854 129.67 53.3954C131.59 53.6054 133.84 53.2754 135.67 54.4354C137.07 55.3154 138.06 57.4654 136.87 58.8354C136.82 58.8954 136.74 58.9154 136.68 58.8654C136.64 58.8254 136.63 58.7654 136.66 58.7154C137.13 57.9254 136.84 56.9154 136.25 56.2254C133.56 53.1754 128.19 57.1654 125.75 53.4254C124.33 50.7154 126.32 47.7954 125.91 44.9554C125.88 40.3154 121.56 35.7754 116.76 37.0754C114.11 37.8354 112.13 40.7754 112.8 43.5254C112.85 43.6754 112.6 43.7254 112.57 43.5854" fill="black"/>
<path d="M111.7 36.5054C113.25 32.0254 118.36 29.3454 123.06 29.7954C127.03 30.1954 130.51 32.8554 132.35 36.3254C133.35 38.3254 133.9 40.5754 133.76 42.8554C133.78 45.0954 131.56 48.8454 133.81 50.0654C134.74 50.3254 136.21 50.0454 137.21 50.2454C138.52 50.4654 140.23 51.8654 139.46 53.2854C139.39 53.4054 139.2 53.3154 139.24 53.1854C139.53 52.2654 138.6 51.5554 137.8 51.3154C136.02 50.7954 133.91 52.3154 132.24 50.9654C129.75 48.8654 131.38 45.3754 131.47 42.7754C131.49 41.8554 131.39 40.9354 131.18 40.0354C128.9 30.6954 117.21 28.7154 111.9 36.6454C111.83 36.7854 111.61 36.6454 111.69 36.5154" fill="black"/>
<path d="M144.961 78.1549C143.501 77.2949 141.451 76.7949 140.251 78.0049C139.161 79.0949 139.591 81.2049 140.941 81.9449C142.291 82.6849 144.141 82.0649 144.961 80.7549C145.681 79.6149 145.691 78.1849 145.671 76.8449C145.641 73.4949 145.611 70.1449 145.581 66.8049C147.831 67.7449 150.421 67.8449 152.741 67.0749" stroke="black" stroke-width="2.43" stroke-linecap="round" stroke-linejoin="round"/>
<path d="M145.98 71.595C146.65 72.785 148.06 73.5151 149.42 73.3751C150.78 73.2351 152 72.225 152.42 70.925" stroke="black" stroke-width="2.43" stroke-linecap="round" stroke-linejoin="round"/>
<path d="M149.401 36.6756C145.751 36.6756 144.441 40.8756 147.171 42.9356C148.631 44.0456 151.281 43.8956 152.571 42.6256C152.661 42.4456 152.641 42.6756 152.641 42.4556C152.521 41.8756 151.271 41.0456 150.651 40.9656C149.991 40.7956 149.051 41.3656 149.111 41.9656C149.111 42.6356 149.931 43.2656 150.521 42.7956C150.731 42.6656 150.851 42.2556 150.651 41.9756C150.581 41.8656 150.731 41.7356 150.831 41.8256C151.191 42.1456 151.231 42.6756 151.011 43.0656C150.241 44.3456 148.361 43.6756 147.931 42.4756C147.191 40.7856 148.921 39.0556 150.581 39.0556C154.491 39.1156 156.991 43.5456 152.601 45.4656C151.091 46.1156 149.361 46.2356 147.801 45.7256C144.611 44.8256 142.721 40.4556 145.041 37.8056C146.091 36.5756 147.881 35.8956 149.471 36.4356C149.621 36.4956 149.541 36.6956 149.391 36.6656" fill="black"/>
<path d="M142.71 61.3151L145.2 53.8551L150.51 53.2151L148.39 60.6751L142.71 61.3151Z" fill="#F44DA3"/>
<path d="M142.71 61.3151L145.2 53.8551L150.51 53.2151L148.39 60.6751L142.71 61.3151Z" stroke="black" stroke-width="2.43" stroke-linejoin="round"/>
<path d="M93.9307 70.135C96.7807 68.465 99.7607 66.825 103.041 66.395C106.311 65.965 109.981 67.015 111.821 69.775C113.811 72.775 113.141 76.755 112.391 80.275C111.631 83.805 110.921 87.755 112.921 90.935C109.891 91.885 106.871 92.835 103.591 94.035C101.551 92.805 100.861 90.195 100.531 87.825C100.201 85.455 99.9907 82.885 98.4207 81.085" fill="#5690F4"/>
<path d="M93.9307 70.135C96.7807 68.465 99.7607 66.825 103.041 66.395C106.311 65.965 109.981 67.015 111.821 69.775C115.891 76.125 108.881 84.485 112.921 90.935C109.891 91.885 106.871 92.835 103.591 94.035C99.2907 91.305 101.511 84.615 98.4207 81.085" stroke="black" stroke-width="2.43" stroke-linecap="round" stroke-linejoin="round"/>
</svg>
