<svg width="22" height="22" viewBox="0 0 22 22" fill="none" xmlns="http://www.w3.org/2000/svg">
<path d="M1.6875 2.6875V2C1.50516 2 1.3303 2.07243 1.20136 2.20136C1.07243 2.3303 1 2.50516 1 2.6875H1.6875ZM11.7708 2.6875H12.4583C12.4583 2.50516 12.3859 2.3303 12.257 2.20136C12.128 2.07243 11.9532 2 11.7708 2V2.6875ZM11.7708 8.1875V7.5C11.5885 7.5 11.4136 7.57243 11.2847 7.70136C11.1558 7.8303 11.0833 8.00516 11.0833 8.1875H11.7708ZM1.6875 3.375H11.7708V2H1.6875V3.375ZM11.0833 2.6875V17.3542H12.4583V2.6875H11.0833ZM2.375 15.5208V2.6875H1V15.5208H2.375ZM11.7708 8.875H16.3542V7.5H11.7708V8.875ZM19.3333 11.8542V15.5208H20.7083V11.8542H19.3333ZM12.4583 17.3542V8.1875H11.0833V17.3542H12.4583ZM17.1645 18.1645C17.0581 18.2709 16.9318 18.3554 16.7927 18.413C16.6537 18.4706 16.5047 18.5002 16.3542 18.5002C16.2037 18.5002 16.0546 18.4706 15.9156 18.413C15.7766 18.3554 15.6502 18.2709 15.5438 18.1645L14.5722 19.1362C15.0449 19.6089 15.6861 19.8745 16.3546 19.8745C17.0232 19.8745 17.6643 19.6089 18.1371 19.1362L17.1645 18.1645ZM15.5438 16.5438C15.6502 16.4374 15.7766 16.353 15.9156 16.2954C16.0546 16.2378 16.2037 16.2081 16.3542 16.2081C16.5047 16.2081 16.6537 16.2378 16.7927 16.2954C16.9318 16.353 17.0581 16.4374 17.1645 16.5438L18.1362 15.5722C17.6634 15.0994 17.0223 14.8339 16.3537 14.8339C15.6852 14.8339 15.044 15.0994 14.5713 15.5722L15.5438 16.5438ZM6.1645 18.1645C6.0581 18.2709 5.93177 18.3554 5.79273 18.413C5.65369 18.4706 5.50467 18.5002 5.35417 18.5002C5.20367 18.5002 5.05464 18.4706 4.91561 18.413C4.77657 18.3554 4.65024 18.2709 4.54383 18.1645L3.57217 19.1362C4.04491 19.6089 4.68608 19.8745 5.35463 19.8745C6.02317 19.8745 6.66434 19.6089 7.13708 19.1362L6.1645 18.1645ZM4.54383 16.5438C4.65024 16.4374 4.77657 16.353 4.91561 16.2954C5.05464 16.2378 5.20367 16.2081 5.35417 16.2081C5.50467 16.2081 5.65369 16.2378 5.79273 16.2954C5.93177 16.353 6.0581 16.4374 6.1645 16.5438L7.13617 15.5722C6.66342 15.0994 6.02226 14.8339 5.35371 14.8339C4.68516 14.8339 4.04399 15.0994 3.57125 15.5722L4.54383 16.5438ZM17.1645 16.5438C17.3882 16.7675 17.5 17.0599 17.5 17.3542H18.875C18.875 16.7098 18.6284 16.0635 18.1371 15.5713L17.1645 16.5438ZM17.5 17.3542C17.5 17.6484 17.3882 17.9408 17.1645 18.1645L18.1371 19.1362C18.3716 18.9025 18.5567 18.6248 18.6835 18.3189C18.8103 18.0131 18.8754 17.6852 18.875 17.3542H17.5ZM14.5208 16.6667H11.7708V18.0417H14.5208V16.6667ZM15.5438 18.1645C15.437 18.0584 15.3524 17.9321 15.2948 17.793C15.2372 17.6539 15.2078 17.5047 15.2083 17.3542H13.8333C13.8333 17.9986 14.0799 18.6448 14.5713 19.1371L15.5438 18.1645ZM15.2083 17.3542C15.2083 17.0599 15.3202 16.7675 15.5438 16.5438L14.5713 15.5722C14.3367 15.8058 14.1516 16.0836 14.0248 16.3894C13.898 16.6952 13.833 17.0231 13.8333 17.3542H15.2083ZM4.54383 18.1645C4.43703 18.0584 4.35237 17.9321 4.29478 17.793C4.23719 17.6539 4.2078 17.5047 4.20833 17.3542H2.83333C2.83333 17.9986 3.07992 18.6448 3.57125 19.1371L4.54383 18.1645ZM4.20833 17.3542C4.20833 17.0599 4.32017 16.7675 4.54383 16.5438L3.57125 15.5722C3.33673 15.8058 3.15164 16.0836 3.02485 16.3894C2.89805 16.6952 2.83296 17.0231 2.83333 17.3542H4.20833ZM11.7708 16.6667H7.1875V18.0417H11.7708V16.6667ZM6.1645 16.5438C6.38817 16.7675 6.5 17.0599 6.5 17.3542H7.875C7.875 16.7098 7.62842 16.0635 7.13708 15.5713L6.1645 16.5438ZM6.5 17.3542C6.5 17.6484 6.38817 17.9408 6.1645 18.1645L7.13708 19.1362C7.3716 18.9025 7.55669 18.6248 7.68349 18.3189C7.81028 18.0131 7.87537 17.6852 7.875 17.3542H6.5ZM19.3333 15.5208C19.3333 16.1533 18.82 16.6667 18.1875 16.6667V18.0417C18.8561 18.0417 19.4973 17.7761 19.97 17.3033C20.4427 16.8306 20.7083 16.1894 20.7083 15.5208H19.3333ZM16.3542 8.875C17.1443 8.875 17.9021 9.18888 18.4608 9.74758C19.0195 10.3063 19.3333 11.064 19.3333 11.8542H20.7083C20.7083 10.6994 20.2496 9.59187 19.433 8.77531C18.6165 7.95874 17.509 7.5 16.3542 7.5V8.875ZM1 15.5208C1 16.1894 1.26559 16.8306 1.73834 17.3033C2.21108 17.7761 2.85227 18.0417 3.52083 18.0417V16.6667C2.88833 16.6667 2.375 16.1533 2.375 15.5208H1Z" fill="#5691F5"/>
<path d="M1.6875 7.27075H4.4375M1.6875 10.9374H6.27083" stroke="#5691F5" stroke-width="1.375" stroke-linecap="round" stroke-linejoin="round"/>
</svg>
