<svg width="22" height="22" viewBox="0 0 22 22" fill="none" xmlns="http://www.w3.org/2000/svg">
<path fill-rule="evenodd" clip-rule="evenodd" d="M10.018 2.71399C10.0716 2.95102 10.029 3.19966 9.89938 3.40525C9.76977 3.61083 9.56382 3.75653 9.32682 3.81032C9.14695 3.85125 8.96868 3.89895 8.7924 3.95332C8.67738 3.98883 8.55649 4.00134 8.43664 3.99013C8.31678 3.97893 8.20031 3.94422 8.09386 3.888C7.98742 3.83178 7.89309 3.75514 7.81627 3.66246C7.73944 3.56979 7.68162 3.46288 7.64611 3.34786C7.6106 3.23284 7.59809 3.11195 7.6093 2.9921C7.62051 2.87224 7.65522 2.75577 7.71144 2.64932C7.76766 2.54288 7.8443 2.44855 7.93697 2.37173C8.02965 2.2949 8.13655 2.23708 8.25157 2.20157C8.47157 2.13313 8.69463 2.07354 8.92074 2.02282C9.03817 1.99612 9.15971 1.99281 9.27842 2.0131C9.39713 2.03339 9.51068 2.07686 9.61258 2.14105C9.71447 2.20524 9.80273 2.28887 9.87229 2.38718C9.94185 2.48549 9.99136 2.59654 10.018 2.71399ZM11.8972 2.71399C11.9509 2.47698 12.0966 2.27104 12.3022 2.14143C12.5078 2.01182 12.7565 1.96916 12.9935 2.02282C17.0763 2.94865 20.1252 6.59882 20.1252 10.9622C20.1252 16.0249 16.0203 20.1288 10.9585 20.1288C6.59424 20.1288 2.94407 17.0809 2.01824 12.9981C1.97072 12.7634 2.01691 12.5194 2.14694 12.3184C2.27697 12.1173 2.48051 11.9751 2.71403 11.9222C2.94756 11.8692 3.19252 11.9098 3.39654 12.0351C3.60055 12.1605 3.74742 12.3607 3.80574 12.5929C4.09743 13.8705 4.72616 15.0466 5.62651 15.9988C6.52686 16.9511 7.66593 17.6446 8.92521 18.0074C10.1845 18.3701 11.518 18.3888 12.7869 18.0615C14.0559 17.7341 15.2139 17.0727 16.1405 16.146C17.0672 15.2194 17.7286 14.0614 18.056 12.7924C18.3833 11.5235 18.3646 10.19 18.0019 8.93071C17.6391 7.67143 16.9456 6.53236 15.9933 5.63201C15.0411 4.73167 13.865 4.10294 12.5874 3.81124C12.3504 3.75726 12.1445 3.61133 12.015 3.40556C11.8856 3.19979 11.8432 2.95102 11.8972 2.71399ZM6.0204 4.28882C6.10238 4.37709 6.16616 4.48065 6.20809 4.59358C6.25002 4.70651 6.26928 4.8266 6.26477 4.94697C6.26025 5.06735 6.23206 5.18566 6.18179 5.29514C6.13153 5.40461 6.06018 5.50311 5.97182 5.58499C5.83615 5.71027 5.70568 5.84043 5.5804 5.97549C5.41388 6.14876 5.18598 6.2497 4.94576 6.25659C4.70555 6.26348 4.47223 6.17576 4.29605 6.01232C4.11987 5.84889 4.01492 5.6228 4.0038 5.38274C3.99267 5.14268 4.07626 4.90785 4.23657 4.72882C4.3924 4.56015 4.55496 4.39729 4.72424 4.24024C4.8125 4.15826 4.91606 4.09448 5.02899 4.05255C5.14192 4.01062 5.26201 3.99136 5.38239 3.99588C5.50277 4.00039 5.62108 4.02858 5.73055 4.07885C5.84003 4.12911 5.93852 4.20046 6.0204 4.28882ZM10.9576 5.46215C11.2007 5.46215 11.4338 5.55873 11.6058 5.73064C11.7777 5.90255 11.8742 6.13571 11.8742 6.37882V10.5827L14.3557 13.0641C14.5226 13.237 14.615 13.4685 14.6129 13.7089C14.6109 13.9492 14.5144 14.1791 14.3445 14.3491C14.1745 14.519 13.9446 14.6154 13.7043 14.6175C13.4639 14.6196 13.2324 14.5272 13.0595 14.3602L10.3095 11.6102C10.1376 11.4384 10.041 11.2052 10.0409 10.9622V6.37882C10.0409 6.13571 10.1375 5.90255 10.3094 5.73064C10.4813 5.55873 10.7145 5.46215 10.9576 5.46215ZM3.34282 7.65115C3.5751 7.72278 3.76941 7.88373 3.88304 8.09861C3.99667 8.31348 4.0203 8.56469 3.94874 8.79699C3.89437 8.97326 3.84667 9.15153 3.80574 9.3314C3.74742 9.56364 3.60055 9.76384 3.39654 9.88919C3.19252 10.0145 2.94756 10.0551 2.71403 10.0022C2.48051 9.94922 2.27697 9.80701 2.14694 9.60595C2.01691 9.40488 1.97072 9.16092 2.01824 8.92624C2.06957 8.70013 2.12915 8.47707 2.19699 8.25707C2.26862 8.0248 2.42956 7.83048 2.64444 7.71685C2.85932 7.60323 3.11052 7.57959 3.34282 7.65115Z" fill="#5691F5"/>
</svg>
