<svg width="22" height="22" viewBox="0 0 22 22" fill="none" xmlns="http://www.w3.org/2000/svg">
<path d="M4.83203 6.83374H8.66541" stroke="#5691F5" stroke-width="1.43752" stroke-linecap="round" stroke-linejoin="round"/>
<path d="M19.047 7.79199H16.5534C14.8428 7.79199 13.457 9.07905 13.457 10.667C13.457 12.255 14.8438 13.5421 16.5525 13.5421H19.047C19.1276 13.5421 19.1668 13.5421 19.2004 13.5401C19.7179 13.5085 20.13 13.1261 20.1635 12.646C20.1654 12.6153 20.1654 12.578 20.1654 12.5042V8.82988C20.1654 8.75609 20.1654 8.71871 20.1635 8.68804C20.129 8.20791 19.7179 7.82553 19.2004 7.79391C19.1678 7.79199 19.1276 7.79199 19.047 7.79199Z" stroke="#5691F5" stroke-width="1.43752"/>
<path d="M19.175 7.79172C19.1002 5.9977 18.8606 4.89752 18.0853 4.12318C16.9631 3 15.1557 3 11.5418 3H8.66675C5.05283 3 3.2454 3 2.12318 4.12318C1.00096 5.24636 1 7.05283 1 10.6667C1 14.2807 1 16.0881 2.12318 17.2103C3.24636 18.3325 5.05283 18.3335 8.66675 18.3335H11.5418C15.1557 18.3335 16.9631 18.3335 18.0853 17.2103C18.8606 16.436 19.1012 15.3358 19.175 13.5418" stroke="#5691F5" stroke-width="1.43752"/>
<path d="M16.3242 10.667H16.333" stroke="#5691F5" stroke-width="1.91669" stroke-linecap="round" stroke-linejoin="round"/>
</svg>
