<svg width="61" height="12" viewBox="0 0 61 12" fill="none" xmlns="http://www.w3.org/2000/svg">
<g clip-path="url(#clip0_2001_1229)">
<path d="M6.41048 6.20768L6.57404 6.22654C7.24425 6.26229 7.46068 6.38839 7.53348 6.443C7.58834 6.49661 7.715 6.67633 7.715 7.3793V9.76127C7.72413 9.85152 7.69806 9.94181 7.64219 10.0135C7.60629 10.0492 7.49758 10.1217 7.04379 10.2657C6.82722 10.3412 6.60212 10.3899 6.37358 10.4106C6.16979 10.444 5.96374 10.4619 5.75723 10.4642C5.27527 10.4707 4.79733 10.3761 4.35452 10.1866C3.91171 9.99702 3.51394 9.71679 3.1871 9.36411C2.49794 8.6244 2.13989 7.57689 2.13989 6.26229C2.13989 4.65776 2.48397 3.48217 3.19109 2.78714C3.89321 2.11594 4.70803 1.75452 5.61361 1.75452C6.51919 1.75452 7.22531 2.04246 7.7868 2.6382C8.09465 2.98108 8.40249 3.50401 8.71034 4.20698L8.76519 4.31521H9.42044L9.29079 0.816231H8.65648L8.60262 0.924458C8.56669 1.0336 8.50515 1.13265 8.4231 1.21339C8.3872 1.24914 8.31439 1.28587 8.08002 1.28587C8.06107 1.28587 7.89851 1.26701 7.15549 1.05155C6.57821 0.886452 5.98085 0.801256 5.38024 0.798359C3.73563 0.798359 2.37227 1.37623 1.37594 2.5131C0.470453 3.53068 -0.0204223 4.84838 -0.000386549 6.20768C-0.000386549 7.83107 0.579065 9.16553 1.74096 10.1386C2.7742 11.0223 4.05976 11.4552 5.5807 11.4552C6.45147 11.4486 7.31492 11.2963 8.13487 11.0044C9.31173 10.6072 9.5471 10.3729 9.5471 10.1386V7.19959C9.5471 6.78455 9.63786 6.49661 9.78247 6.37051C9.83633 6.33378 9.98194 6.2613 10.4158 6.22555L10.5793 6.20768V5.59109H6.41048V6.20768ZM21.3167 1.60956L21.4802 1.62842C21.9689 1.68204 22.313 1.79027 22.4775 1.97097C22.5683 2.06034 22.7129 2.38501 22.7129 3.37692V7.27207C22.7129 8.19149 22.6042 8.87659 22.3868 9.3095C21.9879 10.0671 21.2458 10.4454 20.069 10.4454C19.0188 10.4454 18.3117 10.085 17.9496 9.34524C17.7502 8.93021 17.6415 8.33546 17.6415 7.59675V2.78217C17.6415 2.13282 17.7681 1.93424 17.8409 1.86275C17.9137 1.79126 18.1491 1.66417 18.8552 1.62842L19.0178 1.61055V0.979067H14.4161V1.60956L14.5787 1.62842C15.2678 1.68204 15.5032 1.80814 15.576 1.88062C15.6488 1.9531 15.7755 2.15069 15.7755 2.80005V7.46668C15.7755 8.42185 15.938 9.1973 16.2831 9.79205C16.8985 10.8922 18.0783 11.47 19.7598 11.47C21.4623 11.47 22.6401 10.8922 23.2734 9.77517C23.5996 9.17943 23.7811 8.33248 23.7811 7.26909V3.35905C23.7811 2.38601 23.9257 2.0792 24.0164 1.96899C24.1251 1.84289 24.3785 1.68005 25.0307 1.60857L25.1933 1.59069V0.979067H21.3536V1.61055L21.3167 1.60956ZM37.3638 8.46156C37.0017 9.27276 36.5849 9.77815 36.151 9.97673C35.6982 10.1932 34.9542 10.3014 33.9768 10.3014C32.8359 10.3014 32.4559 10.2657 32.3292 10.2289C32.2933 10.2111 32.1846 10.1932 32.1846 9.8685V6.35264H34.3219C35.0829 6.35264 35.3362 6.49661 35.408 6.56909C35.5167 6.67732 35.6623 6.94739 35.789 7.63249L35.8249 7.77646H36.513V3.97167H35.8249L35.789 4.11663C35.6623 4.78386 35.5167 5.0718 35.408 5.18003C35.3362 5.27038 35.0829 5.41435 34.3219 5.41435H32.1846V2.23707C32.1846 2.00275 32.2205 1.94814 32.2205 1.94814C32.3071 1.91482 32.4005 1.90257 32.4928 1.91239H34.5393C35.5895 1.91239 35.9884 2.05636 36.1351 2.16459C36.2817 2.27282 36.4971 2.57962 36.6417 3.3372L36.6776 3.48118H37.4027L37.3119 0.975095H28.9602V1.60956L29.1238 1.62842C29.793 1.68204 30.0104 1.80814 30.0832 1.88062C30.156 1.9531 30.2637 2.16856 30.2637 2.80005V9.45248C30.2637 10.1376 30.1371 10.3183 30.0832 10.3719C30.0104 10.4444 29.775 10.5526 29.1048 10.6251L28.9423 10.643V11.2556H37.3817L38.1606 8.37617H37.3817L37.3638 8.46156ZM47.2533 5.43222L45.9309 4.62102C45.5416 4.39788 45.1876 4.11848 44.8807 3.79195C44.6756 3.55027 44.566 3.24246 44.5725 2.92614C44.5635 2.76044 44.5952 2.59506 44.6647 2.44423C44.7342 2.2934 44.8394 2.16165 44.9714 2.06034C45.2441 1.84458 45.5836 1.72982 45.9319 1.73566C46.4206 1.73566 46.9292 1.91636 47.4349 2.27679C47.9405 2.63721 48.3045 3.26969 48.5399 4.18812L48.5758 4.33209H49.2819L48.9149 0.780487H48.2985L48.2626 0.906585C48.238 1.0152 48.1952 1.11892 48.136 1.21339C48.0686 1.2637 47.9857 1.28899 47.9016 1.28488C47.8827 1.28488 47.756 1.26701 47.1217 1.05056C46.707 0.889213 46.2681 0.797935 45.8232 0.780487C44.9535 0.780487 44.2274 1.05056 43.6859 1.59169C43.4183 1.85475 43.2079 2.16977 43.0677 2.51718C42.9275 2.8646 42.8606 3.23699 42.8711 3.61125C42.8711 4.22386 43.1054 4.78287 43.5582 5.30613C43.8447 5.60343 44.1673 5.86393 44.5187 6.08158L45.8042 6.8759C46.5293 7.32668 47.001 7.67022 47.2174 7.88568C47.3718 8.03513 47.4933 8.21483 47.5743 8.41342C47.6553 8.61201 47.6941 8.82517 47.6882 9.03943C47.6882 9.52694 47.5436 9.90524 47.2354 10.1753C46.9247 10.4459 46.5251 10.5936 46.1124 10.5903C45.2796 10.5903 44.5915 10.2657 44.03 9.6163C43.7038 9.23801 43.4136 8.71475 43.1603 8.06639L43.1244 7.95816H42.4542L42.9608 11.5098H43.5951L43.6131 11.3658C43.6307 11.2635 43.6676 11.1655 43.7218 11.0769C43.7407 11.0232 43.8125 11.0044 43.9212 11.0044C43.9392 11.0044 44.0848 11.0232 44.7361 11.2576C45.2248 11.431 45.7392 11.5222 46.258 11.5276C47.2174 11.5276 48.0333 11.2397 48.6516 10.6986C48.9567 10.4419 49.2009 10.1213 49.3668 9.75956C49.5326 9.39786 49.6161 9.00411 49.611 8.60653C49.623 8.01423 49.4316 7.43559 49.0685 6.96625C48.7015 6.443 48.1041 5.95548 47.2533 5.43222ZM60.4571 6.87491C60.113 6.443 59.4966 5.95548 58.6619 5.43222L57.3394 4.62102C56.9524 4.39713 56.6005 4.11778 56.2952 3.79195C56.0901 3.55027 55.9805 3.24246 55.987 2.92614C55.978 2.76044 56.0097 2.59506 56.0792 2.44423C56.1487 2.2934 56.2539 2.16165 56.3859 2.06034C56.6586 1.84458 56.9981 1.72982 57.3464 1.73566C57.8351 1.73566 58.3437 1.91636 58.8494 2.27679C59.355 2.63721 59.719 3.26969 59.9544 4.18812L59.9903 4.33209H60.6964L60.3294 0.780487H59.713L59.6771 0.906585C59.6525 1.0152 59.6097 1.11892 59.5505 1.21339C59.4828 1.26385 59.3995 1.28914 59.3151 1.28488C59.2972 1.28488 59.1705 1.26701 58.5362 1.05056C58.1196 0.888653 57.6786 0.797367 57.2317 0.780487C56.363 0.780487 55.6359 1.05056 55.0944 1.59169C54.827 1.85489 54.6167 2.16993 54.4765 2.51732C54.3364 2.8647 54.2693 3.23703 54.2796 3.61125C54.2796 4.22386 54.5149 4.78287 54.9677 5.30613C55.2538 5.60343 55.5761 5.86394 55.9272 6.08158L57.2137 6.8759C57.9378 7.32668 58.4105 7.67022 58.627 7.88568C58.7811 8.03524 58.9026 8.21496 58.9836 8.41352C59.0646 8.61208 59.1034 8.82519 59.0977 9.03943C59.0977 9.52694 58.9521 9.90524 58.627 10.1753C58.3156 10.4453 57.9159 10.5929 57.503 10.5903C56.6702 10.5903 55.982 10.2657 55.4205 9.6163C55.0944 9.23801 54.8042 8.71475 54.5508 8.06639L54.5149 7.95816H53.8447L54.3514 11.5098H54.9857L55.0036 11.3658C55.0226 11.2663 55.053 11.1694 55.0944 11.0769C55.1123 11.0232 55.1842 11.0044 55.2939 11.0044C55.3128 11.0044 55.4574 11.0232 56.1097 11.2576C56.5981 11.4311 57.1121 11.5223 57.6306 11.5276C58.591 11.5276 59.4059 11.2397 60.0242 10.6986C60.3292 10.4417 60.5732 10.1208 60.7389 9.75893C60.9046 9.39707 60.9879 9.00319 60.9827 8.60553C60.9996 7.88469 60.8191 7.34356 60.4571 6.87491Z" fill="white"/>
</g>
<defs>
<clipPath id="clip0_2001_1229">
<rect width="61" height="12" fill="white"/>
</clipPath>
</defs>
</svg>
