<svg width="69" height="15" viewBox="0 0 69 15" fill="none" xmlns="http://www.w3.org/2000/svg">
<path d="M61.2173 0.581619C61.7186 0.581639 62.2633 0.616165 62.8521 0.686111C63.4433 0.756351 64.0287 0.850336 64.608 0.967361C65.1883 1.0846 65.7132 1.21288 66.1832 1.35213H66.1841C66.5188 1.45007 66.7986 1.5454 67.0259 1.63631C66.8578 2.2646 66.7151 2.80139 66.5963 3.24568L66.5953 3.24763C66.4991 3.61929 66.3907 3.95217 66.274 4.24763C65.7542 4.10934 65.2404 3.98441 64.732 3.87459L64.1295 3.75056C63.3385 3.59477 62.6079 3.47754 61.938 3.399H61.939C61.277 3.31475 60.7165 3.27107 60.2623 3.27107C60.0305 3.27109 59.7619 3.28391 59.4586 3.30818C59.1377 3.32799 58.8432 3.3833 58.5806 3.48006C58.4325 3.53286 58.2902 3.61574 58.1841 3.74471C58.0727 3.88037 58.0221 4.04207 58.022 4.20955C58.022 4.41185 58.113 4.58248 58.2584 4.70467C58.3912 4.81629 58.5619 4.8826 58.7359 4.92439L58.7437 4.92635C59.0544 4.99336 59.4918 5.0741 60.0523 5.16951H60.0533C60.8023 5.29434 61.5665 5.42252 62.3453 5.5533H62.3482C63.1231 5.67657 63.8646 5.82986 64.5728 6.01131C65.2699 6.18992 65.8863 6.42099 66.4234 6.70369L66.4244 6.70467C66.9528 6.97987 67.3606 7.32599 67.6578 7.73982L67.6588 7.74178C67.9398 8.12828 68.0914 8.62305 68.0914 9.24861C68.0914 10.0423 67.8881 10.6839 67.5015 11.1959V11.1969C67.1107 11.7162 66.5478 12.1427 65.7955 12.4683C65.0346 12.7976 64.1244 13.0378 63.0601 13.1832C61.9905 13.3293 60.8118 13.4019 59.523 13.4019C58.7811 13.396 57.9842 13.3504 57.1324 13.2623H57.1304C56.2803 13.1802 55.4175 13.0536 54.5425 12.8834H54.5435C53.7804 12.7297 53.041 12.538 52.3238 12.3131C52.44 11.8392 52.5554 11.3889 52.6714 10.9635V10.9625C52.7932 10.5109 52.9155 10.0395 53.0416 9.54939C53.8038 9.73586 54.5143 9.90448 55.1734 10.0533L55.1763 10.0543C55.9244 10.2171 56.693 10.3466 57.482 10.4429H57.4849C58.2798 10.534 59.1734 10.5797 60.1646 10.5797C60.3802 10.5797 60.6009 10.5657 60.8267 10.5406C61.0736 10.5139 61.3002 10.4599 61.4976 10.3687C61.6117 10.316 61.7226 10.2397 61.8052 10.1285C61.8912 10.0127 61.9322 9.8779 61.9322 9.73885C61.9321 9.5937 61.9041 9.43746 61.816 9.30037C61.7226 9.15525 61.5838 9.06601 61.4293 9.02596C61.2681 8.98419 61.1273 8.95418 61.0123 8.93904H61.0132C60.08 8.79043 59.1704 8.64518 58.2847 8.50252C57.6272 8.3966 57.0039 8.27544 56.4146 8.14021L55.8365 8.00056C55.0985 7.80432 54.4536 7.55487 53.9 7.25545C53.3684 6.96469 52.9614 6.59737 52.6695 6.15681C52.3946 5.7329 52.2467 5.19162 52.2466 4.51326C52.2466 3.78927 52.4144 3.21511 52.7271 2.76912C53.0529 2.30457 53.4994 1.92809 54.0767 1.64217L54.0777 1.64119C54.6753 1.34241 55.3611 1.11685 56.1373 0.967361H56.1392C56.9243 0.810344 57.7493 0.708429 58.6138 0.661697H58.6158C59.4949 0.608598 60.3625 0.581619 61.2173 0.581619Z" stroke="white" stroke-width="0.699145"/>
<path d="M41.2211 0.679596C42.3337 0.679596 43.363 0.790472 44.309 1.00967C45.2491 1.22753 46.059 1.56629 46.7446 2.02139L46.7455 2.02237C47.4293 2.47264 47.9572 3.04743 48.3334 3.74991L48.3344 3.75186C48.711 4.44492 48.9077 5.29467 48.9077 6.31436C48.9077 7.64716 48.7235 8.71001 48.3745 9.51944C48.0213 10.3322 47.5343 10.9577 46.9184 11.4101L46.9174 11.411C46.2915 11.8749 45.5579 12.2166 44.7114 12.4325C44.0631 12.5979 43.3738 12.7249 42.643 12.8124L41.8979 12.8866C41.3861 12.9251 40.8669 12.9601 40.3403 12.9911L38.7358 13.0732C38.0906 13.0968 37.4454 13.115 36.8002 13.1269C36.1603 13.1387 35.5203 13.1444 34.8803 13.1444H31.5092C31.5322 12.9593 31.5593 12.7278 31.5893 12.4521L31.5883 12.4511C31.654 11.8949 31.7259 11.1999 31.8032 10.3681C31.8865 9.53435 31.9709 8.60339 32.0541 7.5751C32.1435 6.53815 32.2239 5.44503 32.2953 4.29581C32.366 3.24652 32.4194 2.187 32.4604 1.11807C32.5386 1.11215 32.6318 1.10574 32.7397 1.09756H32.7446C33.1386 1.06228 33.6614 1.02385 34.3139 0.98233H34.3168C34.9739 0.934974 35.7027 0.890057 36.5034 0.848541H36.5063C37.3062 0.80114 38.1152 0.76294 38.933 0.733307L38.936 0.73233C39.7519 0.696859 40.5136 0.679602 41.2211 0.679596ZM40.1957 3.3876C40.0264 3.3876 39.8483 3.38992 39.6616 3.39444L39.0746 3.41397C38.6766 3.43179 38.3947 3.4475 38.2338 3.45987L37.9262 3.48331L37.9116 3.7919L37.6166 10.0702L37.6 10.4394L37.9692 10.4364C38.7759 10.4304 39.5005 10.3878 40.1411 10.3085H40.144C40.7975 10.2214 41.3684 10.0577 41.8471 9.8085L41.8481 9.80753C42.353 9.5414 42.7365 9.14575 42.9946 8.63077L42.9955 8.63174C43.2619 8.11239 43.3813 7.44749 43.3813 6.66202C43.3813 6.01719 43.2622 5.45133 43.0034 4.98331L42.8842 4.78897C42.5604 4.30713 42.1493 3.94694 41.6508 3.72159H41.6498C41.1751 3.50118 40.6896 3.3876 40.1957 3.3876Z" stroke="white" stroke-width="0.699145"/>
<path d="M27.702 0.727234C27.7163 0.872018 27.7285 1.02098 27.7352 1.1745L27.7361 1.18231C27.7448 1.31487 27.7513 1.45289 27.7557 1.59637L27.7615 2.04266C27.7145 2.78567 27.6788 3.47384 27.6551 4.10712V4.11102C27.6373 4.74705 27.6192 5.38605 27.6014 6.02802V6.03192C27.5896 6.66308 27.5627 7.36027 27.5213 8.12372V8.13251L27.4041 12.2888C27.3985 12.3734 27.3932 12.458 27.3875 12.5427C27.3841 12.5936 27.3833 12.6456 27.3817 12.6979C27.2099 12.7164 27.0394 12.7352 26.8699 12.7536H26.869C26.6104 12.7823 26.3356 12.8026 26.0457 12.8141C25.6212 12.8149 25.1183 12.8491 24.5399 12.9147C23.963 12.9802 23.392 13.0456 22.827 13.111H22.8231C22.4095 13.1633 22.0493 13.1956 21.741 13.2087C21.738 13.1859 21.7342 13.1632 21.7313 13.1403L21.6902 12.7585C21.6677 12.499 21.6563 12.2273 21.6561 11.9431L21.8162 6.27802C21.8637 5.32158 21.9056 4.45699 21.9412 3.68427C21.9831 2.9009 22.0037 2.20461 22.0037 1.59637C22.0037 1.50116 21.9998 1.4114 21.9949 1.32782C22.0431 1.31332 22.0933 1.29915 22.1463 1.28778L22.1551 1.28485C22.2321 1.26625 22.3292 1.24793 22.4461 1.22821L22.8582 1.16766C23.1827 1.12636 23.6323 1.0718 24.2078 1.00653C24.7887 0.941336 25.5491 0.85309 26.4881 0.740906L27.2449 0.733093C27.3982 0.729609 27.5508 0.728655 27.702 0.727234Z" stroke="white" stroke-width="0.699145"/>
<path d="M14.1631 1.42676L14.1719 1.42969L17.0049 2.33594L16.2158 3.16895L12.7373 6.66504L12.46 6.94434L12.7695 7.1875L18.1475 11.4014L13.7529 13.2148L13.7275 13.2266L12.9844 13.6045L11.6201 12.4834C11.2551 12.1772 10.8456 11.8267 10.3916 11.4316C9.93916 11.0268 9.4828 10.6216 9.02441 10.2168L7.81055 9.10059C7.45017 8.7579 7.18668 8.49593 7.01562 8.31348L6.4248 7.68457L6.41113 8.54688C6.40524 8.90063 6.39278 9.32064 6.375 9.80664V9.81055C6.36315 10.2905 6.34882 10.7616 6.33105 11.2236C6.31322 11.6872 6.29803 12.083 6.28613 12.4102C6.28206 12.5201 6.2791 12.6157 6.27637 12.6953C6.15416 12.7081 6.0019 12.7251 5.81934 12.7441L4.39844 12.8779C3.85809 12.9314 3.30255 12.9856 2.73242 13.0391C2.16454 13.0923 1.64426 13.1336 1.17285 13.1631H1.16895C0.875316 13.1854 0.630383 13.198 0.433594 13.2061C0.414121 13.06 0.397349 12.9104 0.383789 12.7578C0.361287 12.4986 0.349882 12.2272 0.349609 11.9434L0.518555 6.27832C0.566076 5.32195 0.607888 4.45726 0.643555 3.68457C0.685409 2.90131 0.706049 2.20487 0.706055 1.59668C0.706055 1.50781 0.701507 1.42351 0.697266 1.34473L1.04395 1.27148L1.0498 1.27051C1.36884 1.2067 1.75162 1.14194 2.19922 1.07715C2.64684 1.01236 3.11283 0.953496 3.59668 0.900391H3.60059C4.08277 0.841588 4.53769 0.796835 4.96484 0.767578H4.96875C5.40358 0.732321 5.75965 0.714844 6.03809 0.714844C6.18187 0.714847 6.32249 0.71791 6.45996 0.723633L6.46777 0.724609H6.59766C6.61422 0.870098 6.62707 1.02018 6.63379 1.1748L6.63477 1.18262C6.65201 1.44729 6.66015 1.73369 6.66016 2.04199C6.61913 2.64799 6.58612 3.21667 6.5625 3.74805V3.75195C6.54467 4.28686 6.52662 4.81585 6.50879 5.33887L6.47266 6.40137L7.13281 5.56836L10.8252 0.905273L11.25 0.408203L14.1631 1.42676Z" stroke="white" stroke-width="0.699145"/>
</svg>
