<svg width="80" height="20" viewBox="0 0 80 20" fill="none" xmlns="http://www.w3.org/2000/svg">
<g clip-path="url(#clip0_2001_1248)">
<path d="M1.96107 18.9667C1.96107 18.7267 1.76558 18.5861 1.37967 18.5861H0.63034V19.3601H1.41999C1.75585 19.3601 1.96107 19.2187 1.96107 18.9667ZM2.18123 17.8331C2.18123 18.1472 1.99845 18.3079 1.80957 18.3977C2.10064 18.4912 2.31856 18.6579 2.31856 18.9981C2.31856 19.4341 1.95958 19.6771 1.41625 19.6771H0.280273V17.2095H1.37518C1.86628 17.2095 2.18123 17.451 2.18123 17.8331ZM1.82374 17.8884C1.82374 17.6641 1.64985 17.5265 1.33415 17.5265H0.63034V18.2788H1.308C1.61475 18.2788 1.82374 18.1495 1.82374 17.8884Z" fill="white"/>
<path d="M6.02689 19.6773L5.36636 18.768H4.74394V19.6773H4.38867V17.2096H5.46715C6.02094 17.2096 6.36946 17.505 6.36946 17.9694C6.36946 18.3799 6.10677 18.6229 5.7418 18.7067L6.4523 19.6773H6.02689ZM5.43877 17.5357H4.74394V18.4502H5.43803C5.77911 18.4502 6.00897 18.2745 6.00897 17.9873C6.00897 17.698 5.79784 17.5357 5.43877 17.5357Z" fill="white"/>
<path d="M10.8081 19.6773H10.4289L10.1603 19.0536H8.90714L8.63471 19.6773H8.27051L9.37362 17.1909H9.70425L10.8081 19.6773ZM9.53335 17.6127L9.04072 18.7373H10.0266L9.53335 17.6127Z" fill="white"/>
<path d="M14.5762 17.2098H14.9247V19.6774H14.6329L13.1581 17.7871V19.6774H12.8096V17.2098H13.1402L14.5762 19.0523V17.2098Z" fill="white"/>
<path d="M18.0254 19.6773H17.1387V17.2096H18.0254C18.7993 17.2096 19.3344 17.7421 19.3344 18.4405C19.3344 19.1389 18.7993 19.6773 18.0254 19.6773ZM18.0254 17.5357H17.4939V19.3512H18.0254C18.5963 19.3512 18.9635 18.9646 18.9635 18.4472C18.9635 17.929 18.5963 17.5357 18.0254 17.5357Z" fill="white"/>
<path d="M25.1814 19.7196C24.4664 19.7196 23.9365 19.1595 23.9365 18.4469C23.9365 17.7417 24.4597 17.166 25.1949 17.166C25.6457 17.166 25.9158 17.326 26.1584 17.5548L25.9233 17.818C25.721 17.6266 25.4994 17.495 25.1919 17.495C24.6829 17.495 24.3075 17.91 24.3075 18.4409C24.3075 18.9703 24.6844 19.3913 25.1919 19.3913C25.5121 19.3913 25.7195 19.2656 25.9427 19.0534L26.1733 19.2852C25.9159 19.5491 25.6345 19.7196 25.1814 19.7196Z" fill="white"/>
<path d="M29.2798 19.7196C28.5267 19.7196 28.0117 19.1386 28.0117 18.4469C28.0117 17.756 28.5349 17.166 29.2872 17.166C30.041 17.166 30.556 17.7485 30.556 18.4409C30.556 19.1311 30.0336 19.7196 29.2798 19.7196ZM29.2798 17.495C28.7543 17.495 28.3819 17.9167 28.3819 18.4409C28.3819 18.9636 28.761 19.3913 29.2872 19.3913C29.8134 19.3913 30.1851 18.9703 30.1851 18.4469C30.1851 17.9235 29.8059 17.495 29.2798 17.495Z" fill="white"/>
<path d="M34.428 17.2098H34.7758V19.6774H34.4839L33.0099 17.7871V19.6774H32.6621V17.2098H32.9913L34.428 19.0523V17.2098Z" fill="white"/>
<path d="M37.9778 19.6773H37.6188V17.5387H36.8135V17.2096H38.7816V17.5387H37.9778V19.6773Z" fill="white"/>
<path d="M42.8294 19.6773H42.4502L42.18 19.0536H40.9284L40.6553 19.6773H40.291L41.3949 17.1909H41.7248L42.8294 19.6773ZM41.5546 17.6127L41.062 18.7373H42.0472L41.5546 17.6127Z" fill="white"/>
<path d="M45.8191 19.7196C45.1034 19.7196 44.5742 19.1595 44.5742 18.4469C44.5742 17.7417 45.0974 17.166 45.8326 17.166C46.2826 17.166 46.5535 17.326 46.7946 17.5548L46.561 17.818C46.3596 17.6266 46.1371 17.495 45.8296 17.495C45.3198 17.495 44.9459 17.91 44.9459 18.4409C44.9459 18.9703 45.322 19.3913 45.8296 19.3913C46.149 19.3913 46.3572 19.2656 46.5804 19.0534L46.811 19.2852C46.5535 19.5491 46.2729 19.7196 45.8191 19.7196Z" fill="white"/>
<path d="M49.8169 19.6773H49.4579V17.5387H48.6533V17.2096H50.6192V17.5387H49.8169V19.6773Z" fill="white"/>
<path d="M55.2656 17.2098H55.6209V19.3514H56.9606V19.6774H55.2656V17.2098Z" fill="white"/>
<path d="M60.7961 17.5296H59.3482V18.2729H60.6379V18.593H59.3482V19.3564H60.8125V19.6772H58.9922V17.2096H60.7961V17.5296Z" fill="white"/>
<path d="M64.6653 17.2098H65.0146V19.6774H64.7227L63.2487 17.7871V19.6774H62.8994V17.2098H63.2293L64.6653 19.0523V17.2098Z" fill="white"/>
<path d="M68.1452 18.2774C68.6795 18.4007 68.9407 18.5952 68.9407 18.9907C68.9407 19.4372 68.584 19.7123 68.081 19.7123C67.6981 19.7123 67.3593 19.583 67.0645 19.3182L67.2809 19.061C67.5272 19.2786 67.769 19.3953 68.0914 19.3953C68.3914 19.3953 68.584 19.2465 68.584 19.0274C68.584 18.8203 68.4727 18.7103 67.9862 18.6011C67.4414 18.4784 67.1629 18.3065 67.1629 17.8721C67.1629 17.4593 67.5092 17.1737 67.9877 17.1737C68.3474 17.1737 68.6183 17.2805 68.8684 17.481L68.6705 17.7525C68.4451 17.5759 68.2205 17.4922 67.9816 17.4922C67.6943 17.4922 67.5182 17.644 67.5182 17.8414C67.5182 18.0553 67.6384 18.1607 68.1452 18.2774Z" fill="white"/>
<path d="M72.8332 17.5296H71.3868V18.2729H72.6757V18.593H71.3868V19.3564H72.8511V19.6772H71.0293V17.2096H72.8332V17.5296Z" fill="white"/>
<path d="M75.8541 18.2774C76.3878 18.4007 76.6498 18.5952 76.6498 18.9907C76.6498 19.4372 76.293 19.7123 75.79 19.7123C75.4063 19.7123 75.0683 19.583 74.7734 19.3182L74.9899 19.061C75.2362 19.2786 75.478 19.3953 75.8004 19.3953C76.1005 19.3953 76.293 19.2465 76.293 19.0274C76.293 18.8203 76.1817 18.7103 75.6952 18.6011C75.1489 18.4784 74.8712 18.3065 74.8712 17.8721C74.8712 17.4593 75.2168 17.1737 75.6982 17.1737C76.0557 17.1737 76.3266 17.2805 76.5774 17.481L76.3789 17.7525C76.1543 17.5759 75.9296 17.4922 75.6901 17.4922C75.4027 17.4922 75.2273 17.644 75.2273 17.8414C75.2273 18.0553 75.3474 18.1607 75.8541 18.2774Z" fill="white"/>
<path d="M79.7209 1.27642C79.7209 0.723064 79.306 0.280411 78.7223 0.280411C78.1432 0.280411 77.7334 0.720091 77.7334 1.27419C77.7334 1.82603 78.1506 2.27171 78.7328 2.27171C79.3142 2.27171 79.7209 1.82977 79.7209 1.27642ZM79.606 1.27642C79.606 1.76919 79.2538 2.1655 78.7328 2.1655C78.2089 2.1655 77.8506 1.76696 77.8506 1.27419C77.8506 0.782917 78.1955 0.387337 78.7202 0.387337C79.2463 0.387337 79.606 0.78589 79.606 1.27642ZM78.9007 1.3468C79.041 1.31988 79.1456 1.19651 79.1456 1.05293C79.1456 0.87424 79.0351 0.750065 78.8134 0.750065H78.35V1.77676H78.5V1.36251H78.7485L78.9978 1.77676H79.1619L78.9007 1.3468ZM78.9888 1.05668C78.9888 1.1599 78.9298 1.22496 78.8149 1.22496H78.4999V0.887717H78.8178C78.9283 0.887717 78.9888 0.953451 78.9888 1.05668Z" fill="white"/>
<path d="M21.04 13.2965C22.2759 13.3071 23.8947 13.0766 24.8239 12.0956L24.8523 12.124V13.8162C23.7186 14.1414 22.1535 14.4443 20.9571 14.4398C17.1716 14.425 13.5078 12.2264 13.5078 7.48709C13.5078 3.92625 16.3215 0.422256 21.0459 0.422256C22.0998 0.422256 23.6156 0.719858 24.4873 1.04363V2.41876L24.4507 2.44803C23.5701 1.66888 22.0617 1.38543 20.784 1.38543C17.7717 1.38543 15.3752 3.67883 15.3752 7.28679C15.3752 11.5879 17.9897 13.2695 21.04 13.2965Z" fill="white"/>
<path d="M69.7328 12.9492V7.53692H75.5215V6.4923H69.7328V1.80756H76.238V0.735291H68.0244V14.1232H76.644V12.9492H69.7328Z" fill="white"/>
<path d="M36.9072 0.73526V9.25078C36.9072 11.7386 35.6929 13.4203 32.877 13.4203C29.8826 13.4203 29.2564 11.3191 29.2564 9.36369V0.73526H27.4883V9.45415C27.4883 12.4078 29.54 14.4402 32.8837 14.4402C36.2266 14.4402 38.1357 12.1267 38.1357 9.21562V0.73526H36.9072Z" fill="white"/>
<path d="M51.1393 0.734985L46.6575 12.1159L42.0667 0.734985H40.1113L45.6589 14.1835H46.9576L52.4372 0.734985H51.1393Z" fill="white"/>
<path d="M11.218 14.1249H13.216L7.13549 0.63829H5.06586V0.742144C5.68533 1.14816 5.7316 1.70902 5.35843 2.65268L0.280273 14.1248H1.68264L3.3776 10.0847H9.49692L11.218 14.1249ZM3.81347 9.04462L6.41302 2.84493L9.05433 9.04462H3.81347Z" fill="white"/>
<path d="M63.7546 0.73526V9.25078C63.7546 11.7386 62.5403 13.4203 59.7243 13.4203C56.7307 13.4203 56.103 11.3191 56.103 9.36369V0.73526H54.335V9.45415C54.335 12.4078 56.3867 14.4402 59.7296 14.4402C63.074 14.4402 64.9831 12.1267 64.9831 9.21562V0.73526H63.7546Z" fill="white"/>
</g>
<defs>
<clipPath id="clip0_2001_1248">
<rect width="80" height="20" fill="white"/>
</clipPath>
</defs>
</svg>
