<svg width="35" height="20" viewBox="0 0 35 20" fill="none" xmlns="http://www.w3.org/2000/svg">
<path d="M34.2073 17.3653V17.2429C33.9569 17.2164 33.7537 17.1547 33.5981 17.0576C33.4424 16.9606 33.0466 16.8024 32.8299 16.5068L31.0827 15.1804C31.4686 15.0967 31.7534 14.9533 31.9373 14.7503C32.1213 14.5474 32.2132 14.3081 32.2132 14.0323C32.2132 13.7742 32.1325 13.552 31.9712 13.3656C31.8098 13.1792 31.6134 13.0513 31.3822 12.9817C31.1509 12.9123 30.7916 12.8775 30.3041 12.8775H28.632V12.9999H28.8046C28.9784 12.9999 29.1093 13.0485 29.1973 13.1455C29.2604 13.2139 29.2921 13.3893 29.2921 13.6717V16.5702C29.2921 16.8261 29.2684 16.9882 29.221 17.0565C29.1375 17.18 28.9987 17.2418 28.8046 17.2418H28.632V17.3642H30.5986V17.2418H30.4192C30.2477 17.2418 30.119 17.1933 30.0334 17.0962C29.9702 17.0278 29.9386 16.8525 29.9386 16.5701V15.2664C29.9747 15.2686 30.0097 15.2703 30.0436 15.2713C30.0774 15.2725 30.109 15.2729 30.1383 15.2729C30.2106 15.2729 30.3042 15.2708 30.4193 15.2663L32.982 17.3651H34.2073V17.3653ZM30.1282 15.0613C30.1079 15.0613 30.0819 15.0609 30.0504 15.0597C30.0187 15.0586 29.9815 15.058 29.9387 15.058V13.1919C30.1621 13.15 30.3392 13.1291 30.4701 13.1291C30.7657 13.1291 31.0032 13.2167 31.1826 13.3921C31.362 13.5674 31.4517 13.7953 31.4517 14.0754C31.4517 14.3622 31.3405 14.5982 31.1183 14.7835C30.8959 14.9686 30.5659 15.0613 30.1282 15.0613ZM27.2578 17.3643L27.6538 16.2393H27.5185C27.3717 16.515 27.2285 16.7213 27.0886 16.858C26.9802 16.9618 26.8674 17.0313 26.7501 17.0665C26.6327 17.1017 26.4443 17.1194 26.1847 17.1194H25.4063C25.2799 17.1194 25.1942 17.1068 25.149 17.0814C25.1039 17.056 25.0723 17.0218 25.0542 16.9788C25.0361 16.9358 25.0272 16.815 25.0272 16.6164V15.1374H26.0358C26.2276 15.1374 26.3698 15.1595 26.4623 15.2036C26.5548 15.2478 26.6213 15.3084 26.662 15.3856C26.6935 15.4474 26.7251 15.5874 26.7567 15.8058H26.882V14.244H26.7567C26.7432 14.4999 26.6777 14.6786 26.5604 14.78C26.4724 14.8573 26.2976 14.8958 26.0358 14.8958H25.0271V13.1223H26.2864C26.5143 13.1223 26.6733 13.1389 26.7636 13.172C26.8764 13.2183 26.9616 13.2856 27.0192 13.3738C27.0767 13.4621 27.1292 13.6241 27.1766 13.8602H27.3086L27.2578 12.8774H23.7207V12.9998H23.8832C24.0728 12.9998 24.2082 13.044 24.2894 13.1322C24.348 13.1983 24.3774 13.3737 24.3774 13.6583V16.5733C24.3774 16.7917 24.3644 16.9362 24.3385 17.0067C24.3125 17.0773 24.2634 17.1302 24.1912 17.1656C24.0942 17.2164 23.9915 17.2417 23.8832 17.2417H23.7207V17.3641H27.2578V17.3643ZM23.8925 1.14245C19.5476 -0.191483 15.5743 -0.172479 12.8636 0.270619C10.1528 0.713717 5.90797 1.73796 5.71748 4.50115C5.52691 7.26433 10.877 8.96033 15.8126 8.74117C20.4535 8.53509 22.5109 7.41674 22.5967 5.93033C22.6571 4.88328 21.8296 4.44391 19.2999 4.32958C16.7701 4.21525 11.4296 4.50107 11.5535 2.88132C11.6773 1.26149 18.4424 1.23291 21.0912 2.17619C21.0912 2.17619 21.7725 2.18098 21.2961 1.75696C20.8196 1.33294 10.6314 -0.320634 9.92421 3.68876C9.52878 5.9304 17.4848 5.6683 17.4848 5.6683C17.4848 5.6683 20.0241 5.54926 19.9097 6.65453C19.7954 7.75981 12.0204 9.66545 8.14711 6.29247C5.7117 4.17154 9.362 1.33302 12.3633 0.856628C15.3648 0.380159 22.4156 -0.239145 24.7738 3.11955C27.1321 6.47825 21.5581 10.7183 12.1966 9.21764L10.8579 8.96041C10.8579 8.96041 10.3149 9.24151 10.8389 9.44318C10.8389 9.44318 18.6759 10.8613 23.5829 8.69359C28.4899 6.52591 28.2373 2.47646 23.8925 1.14245ZM8.43665 12.8775H4.16462L4.1029 13.9297H4.24953C4.26755 13.7268 4.32418 13.5658 4.41935 13.4466C4.51445 13.3275 4.629 13.247 4.76279 13.2051C4.86564 13.1742 5.03926 13.1588 5.28381 13.1588H5.91276V16.5866C5.91276 16.8381 5.88449 16.9991 5.82793 17.0697C5.73527 17.1845 5.57829 17.2418 5.35709 17.2418H5.17191V17.3642H7.3909V17.2418H7.20952C7.00633 17.2418 6.85574 17.1955 6.75806 17.1028C6.68858 17.0345 6.65384 16.8624 6.65384 16.5866V13.1588H7.3909C7.60701 13.1588 7.78132 13.1891 7.91381 13.2498C8.04631 13.3105 8.15243 13.4048 8.23217 13.5326C8.28105 13.6121 8.31966 13.7444 8.34794 13.9297H8.49465L8.43665 12.8775ZM2.58584 17.1276C2.84939 16.8817 2.98128 16.5889 2.98128 16.2491C2.98128 16.0704 2.93992 15.8995 2.85722 15.7363C2.77451 15.573 2.65646 15.4313 2.50321 15.311C2.34989 15.1908 2.06369 15.0182 1.64453 14.7933C1.13051 14.5175 0.805163 14.297 0.66841 14.1315C0.573542 14.019 0.526108 13.8944 0.526108 13.7576C0.526108 13.5788 0.60106 13.4195 0.751116 13.2794C0.901095 13.1394 1.09076 13.0693 1.32025 13.0693C1.52314 13.0693 1.71949 13.1211 1.90922 13.2248C2.09888 13.3286 2.24506 13.4686 2.34761 13.6451C2.45015 13.8216 2.5213 14.0587 2.56106 14.3564H2.68352V12.8045H2.56106C2.53902 12.9083 2.50975 12.9772 2.47341 13.0113C2.437 13.0455 2.3901 13.0626 2.33278 13.0626C2.282 13.0626 2.19489 13.035 2.07136 12.9799C1.80447 12.863 1.55187 12.8045 1.31363 12.8045C0.931958 12.8045 0.617631 12.9209 0.370579 13.1537C0.123526 13.3865 0 13.6639 0 13.9859C0 14.1712 0.0418848 14.3411 0.125731 14.4955C0.209576 14.6499 0.332571 14.7911 0.494637 14.9191C0.656779 15.047 0.929753 15.2185 1.31356 15.4336C1.69736 15.6487 1.93233 15.7892 2.0183 15.8554C2.14624 15.9525 2.2405 16.0573 2.30124 16.1698C2.3619 16.2823 2.39223 16.3936 2.39223 16.5039C2.39223 16.7025 2.31226 16.8745 2.15232 17.0201C1.99238 17.1657 1.77452 17.2384 1.49881 17.2384C1.26058 17.2384 1.04165 17.1855 0.842031 17.0796C0.642336 16.9737 0.494029 16.8408 0.397032 16.6809C0.29996 16.521 0.222727 16.28 0.165411 15.9579H0.0429492V17.4965H0.165411C0.180842 17.3928 0.204559 17.3245 0.236562 17.2914C0.268489 17.2583 0.312122 17.2417 0.367234 17.2417C0.42455 17.2417 0.560771 17.2764 0.775897 17.346C0.990946 17.4155 1.13272 17.4557 1.20106 17.4667C1.31576 17.4866 1.43815 17.4965 1.56837 17.4965C1.98303 17.4966 2.32222 17.3736 2.58584 17.1276ZM12.9698 12.8775H9.43269V12.9999H9.59521C9.78472 12.9999 9.92011 13.0441 10.0014 13.1322C10.06 13.1984 10.0894 13.3738 10.0894 13.6584V16.5733C10.0894 16.7917 10.0763 16.9362 10.0505 17.0068C10.0245 17.0774 9.97537 17.1303 9.90323 17.1657C9.80616 17.2164 9.70354 17.2418 9.59521 17.2418H9.43269V17.3641H12.9698L13.3658 16.2391H13.2305C13.0837 16.5149 12.9405 16.7211 12.8005 16.8579C12.6922 16.9616 12.5793 17.0311 12.462 17.0663C12.3447 17.1016 12.1563 17.1193 11.8968 17.1193H11.1183C10.9919 17.1193 10.9061 17.1066 10.861 17.0812C10.8158 17.0559 10.7843 17.0217 10.7662 16.9787C10.7481 16.9356 10.7392 16.8148 10.7392 16.6163V15.1372H11.7478C11.9396 15.1372 12.0818 15.1594 12.1743 15.2035C12.2668 15.2476 12.3333 15.3083 12.374 15.3854C12.4056 15.4472 12.4372 15.5873 12.4688 15.8057H12.5941V14.2438H12.4688C12.4552 14.4998 12.3898 14.6784 12.2725 14.7799C12.1845 14.8571 12.0096 14.8957 11.7478 14.8957H10.7392V13.1221H11.9982C12.2261 13.1221 12.3852 13.1387 12.4755 13.1719C12.5883 13.2181 12.6735 13.2855 12.731 13.3737C12.7886 13.4619 12.841 13.624 12.8884 13.86H13.0204L12.9698 12.8775ZM10.1355 18.845H9.45086V20H10.1575V19.8636H9.57613V19.4705H10.1V19.3342H9.57613V18.9812H10.1355V18.845ZM11.4987 18.845H11.3456L11.7104 19.5107V20H11.8357V19.5107L12.2139 18.845H12.069L11.885 19.1849C11.8441 19.2606 11.8096 19.3287 11.7817 19.3891C11.7538 19.3276 11.7215 19.2625 11.6847 19.1935L11.4987 18.845ZM14.1267 18.845H13.4421V20H14.1487V19.8636H13.5674V19.4705H14.0913V19.3342H13.5674V18.9812H14.1267V18.845ZM16.2637 12.8775H14.5814V12.9999H14.754C14.9277 12.9999 15.0587 13.0485 15.1467 13.1455C15.2076 13.2139 15.2381 13.3893 15.2381 13.6717V16.5702C15.2381 16.8261 15.2155 16.9882 15.1704 17.0565C15.0869 17.18 14.9481 17.2418 14.754 17.2418H14.5814V17.3642H16.548V17.2418H16.3721C16.1983 17.2418 16.0685 17.1933 15.9828 17.0962C15.9196 17.0278 15.888 16.8525 15.888 16.5701V15.2631C16.0347 15.2941 16.1723 15.3172 16.301 15.3326C16.4296 15.348 16.5492 15.3558 16.6598 15.3558C17.1111 15.3558 17.4602 15.2411 17.7074 15.0117C17.9544 14.7823 18.078 14.4845 18.078 14.1183C18.078 13.8492 17.9967 13.6165 17.8343 13.4202C17.6718 13.2239 17.4721 13.0844 17.2351 13.0017C16.9982 12.9189 16.6744 12.8775 16.2637 12.8775ZM15.8881 13.2084C16.0686 13.1665 16.2164 13.1455 16.3315 13.1455C16.521 13.1455 16.6903 13.1869 16.8392 13.2696C16.9881 13.3524 17.1032 13.477 17.1844 13.6435C17.2656 13.8101 17.3062 13.9904 17.3062 14.1845C17.3062 14.4669 17.221 14.697 17.0506 14.8745C16.8802 15.052 16.6777 15.1408 16.4431 15.1408C16.3776 15.1408 16.2986 15.1353 16.2061 15.1243C16.1135 15.1132 16.0076 15.0967 15.8879 15.0745V13.2084H15.8881ZM15.4796 18.845H15.3515L15.6037 20H15.7303L15.9312 19.12C15.9407 19.0801 15.9499 19.0349 15.9588 18.9845L15.9888 19.12L16.1889 20H16.3093L16.5696 18.845H16.4436L16.2945 19.5872C16.2756 19.6796 16.26 19.7634 16.2479 19.8385C16.2317 19.7083 16.2071 19.5719 16.1741 19.4296L16.039 18.845H15.8868L15.7067 19.625L15.6642 19.8385C15.6526 19.7586 15.6392 19.6799 15.624 19.6021L15.4796 18.845ZM18.4843 18.845H17.7997V20H18.5064V19.8636H17.925V19.4705H18.4489V19.3342H17.925V18.9812H18.4844V18.845H18.4843ZM21.0559 12.8775H19.3736V12.9999H19.5463C19.72 12.9999 19.8509 13.0485 19.9389 13.1455C19.9998 13.2139 20.0303 13.3893 20.0303 13.6717V16.5702C20.0303 16.8261 20.0078 16.9882 19.9626 17.0565C19.8791 17.18 19.7403 17.2418 19.5463 17.2418H19.3736V17.3642H21.3402V17.2418H21.1642C20.9904 17.2418 20.8607 17.1933 20.7749 17.0962C20.7117 17.0278 20.6802 16.8525 20.6802 16.5701V15.2631C20.8268 15.2941 20.9645 15.3172 21.0931 15.3326C21.2217 15.348 21.3413 15.3558 21.4519 15.3558C21.9032 15.3558 22.2524 15.2411 22.4995 15.0117C22.7466 14.7823 22.8701 14.4845 22.8701 14.1183C22.8701 13.8492 22.789 13.6165 22.6264 13.4202C22.4639 13.2239 22.2643 13.0844 22.0273 13.0017C21.7904 12.9189 21.4666 12.8775 21.0559 12.8775ZM20.6802 13.2084C20.8607 13.1665 21.0084 13.1455 21.1235 13.1455C21.3131 13.1455 21.4823 13.1869 21.6313 13.2696C21.7802 13.3524 21.8953 13.477 21.9765 13.6435C22.0578 13.8101 22.0983 13.9904 22.0983 14.1845C22.0983 14.4669 22.0131 14.697 21.8428 14.8745C21.6724 15.052 21.4698 15.1408 21.2353 15.1408C21.1698 15.1408 21.0908 15.1353 20.9983 15.1243C20.9058 15.1132 20.7998 15.0967 20.6802 15.0745V13.2084ZM20.0542 18.845L19.6889 20H19.8211L19.9241 19.6503H20.3225L20.4327 20H20.576L20.1882 18.845H20.0542ZM19.9607 19.5257L20.0661 19.1869C20.0884 19.114 20.1057 19.0404 20.118 18.9663C20.1322 19.0278 20.1545 19.1076 20.1849 19.2058L20.2834 19.5257H19.9607ZM22.2077 18.845H21.7877V20H21.913V19.4871H22.0578C22.0999 19.4871 22.1325 19.4927 22.1558 19.5041C22.1792 19.5154 22.2033 19.5374 22.2282 19.57C22.253 19.6027 22.2901 19.6659 22.3389 19.7598L22.4652 20H22.6228L22.4574 19.6857C22.429 19.6315 22.3962 19.5825 22.3589 19.5384C22.3405 19.5167 22.3137 19.4953 22.2785 19.4741C22.3652 19.4594 22.4311 19.425 22.4766 19.371C22.5221 19.3169 22.5448 19.2463 22.5448 19.1592C22.5448 19.0931 22.5314 19.0349 22.5046 18.9848C22.4778 18.9346 22.4435 18.8988 22.4018 18.8773C22.3601 18.8557 22.2954 18.845 22.2077 18.845ZM21.913 18.9726H22.2124C22.2796 18.9726 22.3303 18.9892 22.3644 19.0226C22.3985 19.056 22.4156 19.1018 22.4156 19.1601C22.4156 19.2005 22.4067 19.236 22.3888 19.2664C22.371 19.2969 22.3468 19.3193 22.3164 19.3335C22.2859 19.3477 22.2413 19.3547 22.1824 19.3547H21.9129V18.9726H21.913Z" fill="white"/>
</svg>
