<svg width="39" height="12" viewBox="0 0 39 12" fill="none" xmlns="http://www.w3.org/2000/svg">
<g clip-path="url(#clip0_2001_1276)">
<path fill-rule="evenodd" clip-rule="evenodd" d="M6.09121 11.019C7.69584 11.019 8.38231 10.0759 8.61215 9.69438C8.85481 9.26876 9.0714 8.82885 9.26073 8.37705C9.44778 7.9412 9.62383 7.74708 9.83228 7.74708C10.0157 7.74708 10.1288 7.89175 10.1288 8.12128C10.1288 8.24337 9.78399 9.9941 9.77115 10.079C9.69413 10.5514 9.62444 10.7456 9.47468 10.903C9.38429 10.9916 9.2813 11.0662 9.16903 11.1246C8.1931 11.6945 7.0836 11.9965 5.95306 12C2.58733 12 0.000976562 9.44654 0.000976562 6.12697C0.000976562 3.69926 1.27917 1.64697 3.43457 0.611664C4.31919 0.163504 5.30599 -0.0452864 6.2966 0.00610839C7.79914 0.0750879 8.93063 0.91261 9.24972 1.09757C9.7791 1.40279 9.71491 1.88199 9.72775 2.03521C9.7791 2.6487 9.80966 3.36291 9.80966 3.52345C9.80966 3.93184 9.72286 4.09849 9.50769 4.09849C9.3243 4.09849 9.22405 3.9764 9.06267 3.55398C8.4361 1.91495 7.44765 1.05545 6.1774 1.05545C4.85214 1.05545 3.62345 1.89419 3.03479 3.20114C2.69308 3.96175 2.52681 4.87069 2.52681 5.98108C2.52681 7.83559 2.99505 9.2164 3.92115 10.096C4.64063 10.7797 5.3919 11.019 6.09121 11.019Z" fill="white"/>
<path fill-rule="evenodd" clip-rule="evenodd" d="M13.3332 0.838131C13.3332 1.13236 13.3136 4.20165 13.3136 4.27185C13.3136 4.50015 13.3717 4.60942 13.4933 4.60942C13.5783 4.60942 13.648 4.57523 13.8069 4.48062C14.2755 4.21385 14.8043 4.07039 15.3437 4.06369C15.9373 4.04599 16.6023 4.25659 16.9819 4.53312C17.2991 4.77194 17.5375 5.09994 17.6666 5.47502C17.7595 5.74728 17.7852 5.95971 17.7888 6.52009C17.7992 7.01272 17.8371 9.99044 17.8371 9.99044C17.8371 10.6906 17.9301 10.9098 18.3262 11.1503C18.5175 11.2669 18.575 11.3163 18.5707 11.3877C18.5536 11.5825 18.199 11.5996 17.4783 11.5996L15.6665 11.6252C15.2343 11.6252 15.0552 11.5678 15.0552 11.4292C15.0552 11.3426 15.1395 11.2461 15.3504 11.0819C15.6341 10.8652 15.7563 10.5935 15.7563 10.2016C15.7563 10.1369 15.7001 6.12087 15.7001 6.12087C15.6879 5.39383 15.0888 5.24183 14.6297 5.22413C14.1859 5.20704 13.7128 5.47502 13.4836 5.78024C13.368 5.93651 13.3448 6.27531 13.3497 6.60494C13.3558 7.05667 13.3301 9.93122 13.3301 10.0167C13.3301 10.3353 13.3664 10.572 13.4389 10.7266C13.5062 10.8664 13.5685 10.9287 13.7904 11.0666C14.0563 11.2327 14.1676 11.3407 14.1676 11.4329C14.1676 11.5837 13.9194 11.635 13.6229 11.635H11.1833C10.7817 11.635 10.6001 11.5776 10.6087 11.4463C10.6179 11.2968 10.896 11.1857 11.0109 11.0581C11.1513 10.9043 11.2372 10.7087 11.2554 10.5014C11.2603 10.3451 11.2658 2.82389 11.2658 2.82389C11.2481 2.10845 11.1167 2.00773 10.9412 1.86977C10.7756 1.74036 10.6796 1.64818 10.6796 1.55784C10.6796 1.48459 10.7536 1.4095 10.9412 1.34113C11.2964 1.21233 11.8973 0.987077 12.1192 0.863768C12.6993 0.539625 12.8026 0.192287 13.0923 0.216094C13.3265 0.228303 13.3332 0.545731 13.3332 0.838131Z" fill="white"/>
<path fill-rule="evenodd" clip-rule="evenodd" d="M22.0239 0.756936C22.0239 0.756936 22.0905 9.72428 22.0905 9.84148C22.0905 10.4196 22.1327 10.701 22.2739 10.8829C22.3962 11.0361 22.9396 11.1881 22.906 11.4445C22.8901 11.5666 22.5783 11.58 22.2647 11.58L19.9064 11.5977C19.3978 11.5837 19.2529 11.5489 19.2529 11.4445C19.2529 11.3224 19.5311 11.1783 19.6808 11.0532C19.9027 10.8652 19.9675 10.7901 19.9675 10.3579C19.9675 10.3109 19.9357 2.50035 19.9357 2.50035C19.9357 2.20307 19.8269 1.98819 19.6069 1.85145C19.4479 1.75134 19.3245 1.65306 19.3917 1.5206C19.4589 1.38813 19.6221 1.32953 19.8135 1.27642C20.0708 1.20006 20.3224 1.10582 20.5666 0.994398C20.849 0.868037 20.9719 0.789901 21.3784 0.477967C21.5556 0.341839 21.6027 0.26065 21.7616 0.244168C21.9322 0.228297 22.0349 0.347332 22.0239 0.756936Z" fill="white"/>
<path fill-rule="evenodd" clip-rule="evenodd" d="M37.2746 1.44247C37.6885 1.54075 37.8981 1.69397 37.8981 1.98088C37.8981 2.33615 37.5387 2.75552 36.906 3.13399C36.4543 3.40381 35.8729 3.61319 35.5734 3.61319C35.4346 3.61319 35.1455 3.60281 35.1455 3.34277C35.1455 3.20969 35.2739 3.07478 35.5911 2.87456C35.7898 2.74942 35.8479 2.69753 35.9243 2.57728C35.9998 2.46516 36.0404 2.33328 36.041 2.19819C36.041 2.01018 35.9756 1.87283 35.8008 1.69275C35.6455 1.53221 35.585 1.4327 35.585 1.33564C35.585 1.08048 35.9469 1.03042 36.1517 1.09757C36.4518 1.19768 37.2269 1.43087 37.2746 1.44247Z" fill="white"/>
<path fill-rule="evenodd" clip-rule="evenodd" d="M37.5002 8.22444C37.8248 8.22444 38.743 8.27083 38.8891 8.12371C39.0113 8.00163 38.9997 7.89175 38.9997 7.66772C38.9997 5.88096 37.7393 4.08078 35.5716 4.08078C33.1986 4.08078 31.8281 6.27836 31.8281 7.88931C31.8281 10.046 33.5538 11.7918 35.6872 11.7918C36.8077 11.7918 37.8927 11.3346 38.5706 10.5783C38.7393 10.3909 38.8151 10.2444 38.8151 10.1028C38.8156 10.0603 38.8077 10.0182 38.7919 9.97876C38.776 9.93936 38.7525 9.90346 38.7228 9.87312C38.693 9.84279 38.6576 9.81861 38.6185 9.80198C38.5793 9.78534 38.5373 9.77657 38.4948 9.77617C38.3787 9.77617 38.2503 9.84881 38.059 10.0258C37.7325 10.325 36.8089 11.0068 35.8968 10.8145C34.1241 10.4391 34.1565 8.46129 34.2415 8.22322L37.5002 8.22444ZM34.2231 6.79357C34.3766 6.16299 34.6321 4.95188 35.5545 4.95188C36.3058 4.95188 36.6646 5.92431 36.7661 6.87903C36.7918 7.11588 36.8174 7.33869 36.2544 7.33869H34.6981C34.1376 7.33442 34.1376 7.14213 34.2231 6.79357Z" fill="white"/>
<path fill-rule="evenodd" clip-rule="evenodd" d="M27.3558 4.06613C24.5439 4.06613 23.2725 6.27958 23.2725 7.83376C23.2725 9.80853 24.6301 11.8205 27.2269 11.8205C29.4611 11.8205 31.1562 10.1333 31.1562 7.95218C31.1562 5.80222 29.4434 4.06613 27.3558 4.06613ZM27.395 10.9336C25.9786 10.9336 25.5684 9.46851 25.5684 7.91617C25.5684 5.90477 26.4731 4.95066 27.1223 4.95066C28.675 4.95066 28.9146 6.69773 28.9146 7.91617C28.914 10.013 28.1291 10.9336 27.395 10.9336Z" fill="white"/>
</g>
<defs>
<clipPath id="clip0_2001_1276">
<rect width="39" height="12" fill="white"/>
</clipPath>
</defs>
</svg>
