<svg width="22" height="22" viewBox="0 0 22 22" fill="none" xmlns="http://www.w3.org/2000/svg">
<path d="M1 2H4.27273L6.46545 13.4771C6.54027 13.8718 6.7452 14.2263 7.04436 14.4785C7.34351 14.7308 7.71784 14.8649 8.10182 14.8571H16.0545C16.4385 14.8649 16.8129 14.7308 17.112 14.4785C17.4112 14.2263 17.6161 13.8718 17.6909 13.4771L19 6.28571H5.09091M8.36364 19.1429C8.36364 19.6162 7.99732 20 7.54545 20C7.09359 20 6.72727 19.6162 6.72727 19.1429C6.72727 18.6695 7.09359 18.2857 7.54545 18.2857C7.99732 18.2857 8.36364 18.6695 8.36364 19.1429ZM17.3636 19.1429C17.3636 19.6162 16.9973 20 16.5455 20C16.0936 20 15.7273 19.6162 15.7273 19.1429C15.7273 18.6695 16.0936 18.2857 16.5455 18.2857C16.9973 18.2857 17.3636 18.6695 17.3636 19.1429Z" stroke="#0E1829" stroke-linecap="round" stroke-linejoin="round"/>
</svg>
