<svg width="41" height="22" viewBox="0 0 41 22" fill="none" xmlns="http://www.w3.org/2000/svg">
<path d="M30.5029 2.99988C34.0522 2.99988 36.4117 4.39288 37.8916 6.17566C39.3502 7.93296 39.9252 10.0326 40.0098 11.453L40.0117 11.4716V11.4911C40.0117 12.6299 39.9739 14.5108 39.0361 16.1083C38.0572 17.7757 36.1854 19.0018 32.834 19.0018C26.2348 19.0017 22.2143 13.1033 21.5225 7.24109H18.4893C17.7975 13.1034 13.777 19.0017 7.17773 19.0018C3.82632 19.0018 1.95456 17.7757 0.975586 16.1083C0.037795 14.5108 0 12.6299 0 11.4911V11.4716L0.00195312 11.453C0.0864906 10.0326 0.661471 7.93296 2.12012 6.17566C3.46844 4.55142 5.54682 3.25057 8.58984 3.0321V2.99988H30.5029ZM9.50879 4.30066C6.34468 4.30066 4.35209 5.52168 3.12012 7.00574C1.8763 8.50423 1.37742 10.3103 1.30078 11.5038C1.3012 12.6504 1.3591 14.1936 2.09668 15.4501C2.79612 16.6414 4.18845 17.702 7.17773 17.702C13.0258 17.7019 16.788 12.2647 17.25 6.56531C17.2465 6.18387 17.1645 5.90526 17.0049 5.68152C16.838 5.44777 16.5386 5.20609 15.9863 4.99109C14.8518 4.54953 12.8637 4.30066 9.50879 4.30066ZM30.5029 4.30066C27.148 4.30066 25.1599 4.54953 24.0254 4.99109C23.4731 5.20609 23.1737 5.44777 23.0068 5.68152C22.8472 5.90526 22.7653 6.18387 22.7617 6.56531C23.2237 12.2647 26.9859 17.7019 32.834 17.702C35.8233 17.702 37.2156 16.6414 37.915 15.4501C38.6526 14.1936 38.7105 12.6504 38.7109 11.5038C38.6343 10.3103 38.1354 8.50423 36.8916 7.00574C35.6596 5.52168 33.667 4.30066 30.5029 4.30066ZM17.4326 4.30066C17.6819 4.48315 17.8933 4.68957 18.0625 4.92664C18.2882 5.24295 18.4222 5.5854 18.4912 5.94031H21.5205C21.5894 5.58543 21.7235 5.24296 21.9492 4.92664C22.1183 4.68977 22.3291 4.48291 22.5781 4.30066H17.4326Z" fill="#0E1829"/>
</svg>
