<svg width="40" height="22" viewBox="0 0 40 22" fill="none" xmlns="http://www.w3.org/2000/svg">
<path d="M31.1611 5C36.0418 5 39.999 7.91015 39.999 11.5L39.9873 11.835C39.7503 15.2691 35.8891 18 31.1611 18C26.5791 17.9999 22.8118 15.4348 22.3682 12.1504H17.6309C17.1872 15.4349 13.4191 18 8.83691 18C3.95639 17.9999 0 15.0898 0 11.5C0 7.91022 3.95639 5.00012 8.83691 5C13.4191 5 17.1871 7.56515 17.6309 10.8496H22.3682C22.8118 7.56522 26.5791 5.00011 31.1611 5ZM8.83691 6.2998C6.64494 6.29986 4.7121 6.95549 3.3584 7.95117C2.00417 8.94732 1.2998 10.2171 1.2998 11.5C1.2998 12.7829 2.00417 14.0527 3.3584 15.0488C4.7121 16.0445 6.64494 16.7001 8.83691 16.7002C11.0289 16.7002 12.9617 16.0445 14.3154 15.0488C15.6698 14.0527 16.374 12.783 16.374 11.5C16.374 10.217 15.6698 8.94734 14.3154 7.95117C12.9617 6.95551 11.0289 6.2998 8.83691 6.2998ZM31.1611 6.2998C28.9692 6.29986 27.0363 6.95549 25.6826 7.95117C24.3284 8.94732 23.624 10.2171 23.624 11.5C23.624 12.7829 24.3284 14.0527 25.6826 15.0488C27.0363 16.0445 28.9692 16.7001 31.1611 16.7002C33.3531 16.7002 35.2859 16.0445 36.6396 15.0488C37.994 14.0527 38.6982 12.783 38.6982 11.5C38.6982 10.217 37.994 8.94734 36.6396 7.95117C35.2859 6.95551 33.3531 6.2998 31.1611 6.2998Z" fill="#0E1829"/>
</svg>
