<svg width="40" height="22" viewBox="0 0 40 22" fill="none" xmlns="http://www.w3.org/2000/svg">
<path d="M10.2666 17.2607L10.3477 17.9023C9.85672 17.9645 9.35201 18 8.83691 18C8.32176 18 7.81716 17.9656 7.32617 17.9033L7.48926 16.6152C7.9259 16.6706 8.37628 16.7002 8.83691 16.7002C9.29751 16.7002 9.74796 16.6706 10.1846 16.6152L10.2666 17.2607ZM32.5908 17.2607L32.6719 17.9023C32.1809 17.9645 31.6762 18 31.1611 18C30.646 18 30.1414 17.9656 29.6504 17.9033L29.8135 16.6152C30.2501 16.6706 30.7005 16.7002 31.1611 16.7002C31.6217 16.7002 32.0722 16.6706 32.5088 16.6152L32.5908 17.2607ZM2.76172 14.5527C3.3343 15.0914 4.06353 15.5656 4.91895 15.9307L4.66309 16.5273L4.4082 17.124C3.42738 16.7053 2.5669 16.1519 1.87207 15.498L2.76172 14.5527ZM15.8018 15.498C15.1067 16.152 14.2459 16.7053 13.2646 17.124L12.7559 15.9307C13.6112 15.5656 14.3405 15.0914 14.9131 14.5527L15.8018 15.498ZM25.0859 14.5527C25.6585 15.0914 26.3877 15.5656 27.2432 15.9307L26.9873 16.5273L26.7324 17.124C25.7516 16.7053 24.8911 16.1519 24.1963 15.498L25.0859 14.5527ZM38.126 15.498C37.4309 16.152 36.5701 16.7053 35.5889 17.124L35.0801 15.9307C35.9354 15.5656 36.6648 15.0914 37.2373 14.5527L38.126 15.498ZM1.47168 10.4043C1.35854 10.759 1.2998 11.1251 1.2998 11.5C1.2998 11.8749 1.35854 12.241 1.47168 12.5957L0.852539 12.793L0.235352 12.9893C0.082796 12.5108 0 12.0127 0 11.5C0 10.987 0.0826129 10.4885 0.235352 10.0098L1.47168 10.4043ZM23.7959 10.4043C23.6828 10.759 23.624 11.1251 23.624 11.5C23.624 11.8749 23.6828 12.241 23.7959 12.5957L23.1768 12.793L22.5596 12.9893C22.4724 12.7159 22.4113 12.4357 22.3721 12.1504H17.6299C17.5905 12.4358 17.5257 12.7157 17.4385 12.9893L16.8213 12.793V12.792L16.2021 12.5957C16.3153 12.241 16.374 11.8749 16.374 11.5C16.374 11.1251 16.3153 10.759 16.2021 10.4043L16.874 10.1904L17.4385 10.0098C17.5258 10.2835 17.5875 10.564 17.627 10.8496H22.3721C22.4112 10.564 22.4723 10.2834 22.5596 10.0098L23.7959 10.4043ZM39.7627 10.0098C39.9155 10.4885 39.999 10.987 39.999 11.5L39.9873 11.835C39.96 12.2304 39.8819 12.6156 39.7627 12.9893L39.1455 12.793V12.792L38.5264 12.5957C38.6395 12.241 38.6982 11.8749 38.6982 11.5C38.6982 11.1251 38.6395 10.759 38.5264 10.4043L39.1982 10.1904L39.7627 10.0098ZM4.66406 6.47168H4.66309L4.91895 7.06934C4.06353 7.43441 3.3343 7.90856 2.76172 8.44727L1.87207 7.50098C2.5669 6.84727 3.42746 6.29364 4.4082 5.875L4.66406 6.47168ZM13.2646 5.875C14.2458 6.29364 15.1067 6.84711 15.8018 7.50098L14.9131 8.44727C14.3405 7.90859 13.6112 7.4344 12.7559 7.06934L13.082 6.30566L13.2646 5.875ZM26.9883 6.47168H26.9873L27.2432 7.06934C26.3877 7.43441 25.6585 7.90856 25.0859 8.44727L24.1963 7.50098C24.8911 6.84727 25.7517 6.29364 26.7324 5.875L26.9883 6.47168ZM35.5889 5.875C36.57 6.29364 37.4309 6.84711 38.126 7.50098L37.2373 8.44727C36.6648 7.90859 35.9354 7.4344 35.0801 7.06934L35.4062 6.30566L35.5889 5.875ZM8.83691 5C9.35196 5 9.85675 5.03448 10.3477 5.09668L10.1846 6.38477C9.74796 6.32944 9.29751 6.2998 8.83691 6.2998C8.37628 6.29982 7.9259 6.32942 7.48926 6.38477L7.40234 5.70117L7.32617 5.0957C7.81713 5.03348 8.32181 5.00001 8.83691 5ZM31.1611 5C31.6762 5 32.181 5.03448 32.6719 5.09668L32.5088 6.38477C32.0722 6.32944 31.6217 6.2998 31.1611 6.2998C30.7005 6.29982 30.2501 6.32942 29.8135 6.38477L29.7266 5.70117L29.6504 5.0957C30.1413 5.03348 30.646 5.00001 31.1611 5Z" fill="#0E1829"/>
</svg>
