<svg width="81" height="12" viewBox="0 0 81 12" fill="none" xmlns="http://www.w3.org/2000/svg">
<g clip-path="url(#clip0_2001_1246)">
<path d="M53.4422 1.86577C51.1345 1.86577 49.515 3.67785 49.515 5.98658C49.515 8.2953 51.1479 10.1208 53.4827 10.1208C55.7904 10.1208 57.4099 8.30872 57.4099 6C57.3964 3.69128 55.7634 1.86577 53.4422 1.86577ZM53.4422 11.9866C49.8659 11.9866 47.3692 9.34228 47.3692 6C47.3692 2.67114 49.8929 0 53.4827 0C57.059 0 59.5691 2.64429 59.5691 5.98658C59.5556 9.31544 57.0185 11.9866 53.4422 11.9866ZM15.5603 1.86577C13.2526 1.86577 11.6466 3.67785 11.6466 5.98658C11.6466 8.2953 13.2796 10.1208 15.5873 10.1208C17.895 10.1208 19.5145 8.30872 19.5145 6C19.5145 3.69128 17.8815 1.86577 15.5603 1.86577ZM15.5603 11.9866C11.984 11.9866 9.47384 9.34228 9.47384 6C9.47384 2.67114 11.9975 0 15.5873 0C19.1636 0 21.6738 2.64429 21.6738 5.98658C21.6738 9.31544 19.1501 11.9866 15.5603 11.9866ZM27.6118 11.7852L24.4538 3.47651V11.7852H22.4295V0.201342H25.3446L28.1921 7.65101L31.0262 0.201342H33.9277V11.7852H31.8764V3.46309L28.7049 11.7852H27.6118ZM74.7786 2.05369H72.4843V9.93289H74.7786C77.2483 9.93289 78.8272 8.33557 78.8272 6.01342C78.8272 3.71812 77.3022 2.05369 74.7786 2.05369ZM74.7786 11.7852H70.433V0.187919H74.8056C78.5573 0.187919 80.973 2.61745 80.973 5.97315C80.973 9.24832 78.5978 11.7852 74.7786 11.7852ZM65.0618 2.05369H62.3492V5.46309H65.0753C66.6543 5.46309 67.545 4.79195 67.545 3.7047C67.5585 2.42953 66.5868 2.05369 65.0618 2.05369ZM67.8014 11.7852L64.9134 7.30201H62.3492V11.7718H60.3114V0.174497H65.4667C68.1793 0.174497 69.6503 1.44966 69.6503 3.61074C69.6503 5.58389 68.5302 6.5906 67.0996 6.92617L70.2036 11.7584L67.8014 11.7852ZM47.1803 2.05369H40.554V5.46309H46.6674V7.31544H40.554V11.7852H38.5027V0.187919H47.1803V2.05369ZM6.03249 11.7852H3.96768V2.05369H0V0.187919H9.95968V2.05369H6.03249V11.7852Z" fill="white"/>
</g>
<defs>
<clipPath id="clip0_2001_1246">
<rect width="81" height="12" fill="white"/>
</clipPath>
</defs>
</svg>
