<svg width="34" height="12" viewBox="0 0 34 12" fill="none" xmlns="http://www.w3.org/2000/svg">
<path fill-rule="evenodd" clip-rule="evenodd" d="M20.7963 1.19259C21.1697 1.88154 21.2615 2.67957 21.3074 3.50647H19.4701C19.4646 2.92661 19.4819 2.31211 19.0396 1.91618C18.8558 1.77843 18.5515 1.75534 18.3389 1.85308C17.9772 2.02527 17.8454 2.41006 17.8338 2.7833C17.8512 3.58133 18.4424 4.18985 19.0682 4.69507L20.3313 5.82613C21.5372 7.00895 22.0368 8.85184 21.3652 10.4368C20.9402 11.4356 19.9124 12.0328 18.8387 11.9986C17.9314 12.0099 17.0472 11.6656 16.6166 10.8214C16.2549 10.1093 16.1056 9.3053 16.1285 8.43303L17.9429 8.44437C17.9658 9.06465 17.9658 9.71339 18.4826 10.1093C18.7525 10.2644 19.1431 10.2415 19.3895 10.0522C19.7914 9.72473 19.872 9.16776 19.7343 8.67966C19.6021 8.22043 19.2804 7.83028 18.8958 7.4855L17.5868 6.36021C16.3524 5.32091 15.761 3.88569 16.0654 2.28942C16.2205 1.41674 16.829 0.47519 17.719 0.170825C18.6203 -0.150863 19.7685 -0.0415722 20.4403 0.699133C20.5841 0.85379 20.7045 1.0202 20.7963 1.19259ZM2.04993 0.25104C3.27296 0.273929 4.51311 0.670264 5.08142 1.8471C5.62128 2.94373 5.66726 4.25295 5.6786 5.57352L5.67283 7.58881C5.63262 8.70234 5.46621 9.76494 4.90924 10.6605C4.34092 11.4643 3.46226 11.7858 2.53226 11.8433H0V0.25104H2.04993ZM9.16953 11.8491H6.99917V0.25104H9.16953V11.8491ZM15.4338 2.0595H12.7924L12.7869 4.95922L14.7562 4.96479L14.7619 6.8712H12.8155V10.0173H15.56V11.8491H10.6394V0.25104H15.4338V2.0595ZM27.3302 2.03084H24.7179L24.7124 4.95922L26.6817 4.96479V6.8712H24.7751V9.97713H27.5144V11.8491H22.5536V0.25104H27.3302V2.03084ZM30.603 9.96579H33.0433V11.8491H28.4673V0.25104H30.603V9.96579Z" fill="white"/>
<path fill-rule="evenodd" clip-rule="evenodd" d="M3.14095 2.46147C3.41067 2.96091 3.43376 3.56964 3.46243 4.1724L3.45686 8.39846C3.39376 9.01874 3.33066 9.76501 2.65305 10.0063C2.48066 10.0578 2.28559 10.0405 2.10742 10.0176V2.05957C2.50932 2.05957 2.93432 2.08246 3.14095 2.46147Z" fill="#5691F5"/>
</svg>
