<svg width="40" height="20" viewBox="0 0 40 20" fill="none" xmlns="http://www.w3.org/2000/svg">
<path d="M19.1417 10.7504C19.2257 10.7377 19.3381 10.7786 19.3771 10.8862C19.4209 11.008 19.3871 11.3101 19.3839 11.4418C19.3519 12.7805 19.3502 14.0274 19.3126 15.3754C19.2764 16.6765 19.278 17.9899 19.2413 19.309C19.2326 19.625 19.2835 19.9034 19.0558 19.979C18.9413 20.0168 18.7253 19.9926 18.5499 19.9926C18.3383 19.9926 18.1075 20.0217 18.0158 19.9428C17.8984 19.8417 17.9396 19.4681 17.9445 19.2231C17.96 18.4364 17.9702 17.6273 17.9943 16.8569C18.012 16.2922 18.0226 15.8213 18.0226 15.2749C18.0226 15.0263 18.0372 14.757 18.0372 14.4838C18.0374 14.2412 18.0898 13.8643 17.88 13.8569C17.7667 13.8531 17.6981 13.9907 17.6378 14.0854C17.4623 14.3612 17.26 14.6589 16.9826 14.8266C16.8762 14.8909 16.7522 14.9457 16.59 14.8901C16.3365 14.803 16.1881 14.5291 16.0988 14.2631C16.0685 14.1728 16.046 14.0376 15.963 14.0278C15.8721 14.0173 15.7953 14.1373 15.7492 14.2202C15.5084 14.6522 15.249 15.0454 14.8517 15.3178C14.6963 15.4245 14.4355 15.5529 14.2101 15.4887C14.0208 15.4347 13.8697 15.2351 13.7755 15.0756C13.7308 14.9998 13.6756 14.9 13.6329 14.7973C13.5921 14.6987 13.5654 14.5357 13.4835 14.5268C13.4169 14.5198 13.3482 14.6324 13.3195 14.6762C13.1992 14.8595 13.0343 15.019 12.8986 15.1752C12.6987 15.4053 12.5347 15.594 12.2794 15.7807C12.0508 15.9477 11.7636 16.1557 11.4025 16.1372C11.0788 16.1205 10.8629 15.856 10.797 15.517C10.7247 15.145 10.8146 14.7387 10.9103 14.4409C11.093 13.8728 11.4635 13.311 11.8732 12.9516C12.0937 12.7582 12.3556 12.5793 12.7423 12.5952C12.9322 12.603 13.0656 12.6827 13.2482 12.6098C13.3861 12.5548 13.4305 12.3908 13.5763 12.3032C13.7077 12.2244 14.0216 12.1205 14.2247 12.2182C14.2931 12.2513 14.3708 12.33 14.4093 12.4028C14.4744 12.5264 14.4736 12.6909 14.5021 12.8666C14.5517 13.1719 14.6359 13.4478 14.7736 13.7075C14.8413 13.8352 14.9455 13.9692 15.0656 13.978C15.2636 13.9925 15.4251 13.774 15.5216 13.6293C15.7862 13.2326 15.9624 12.7229 16.1056 12.2182C16.1752 11.9726 16.2084 11.7906 16.3976 11.6479C16.5495 11.5333 16.7974 11.4674 16.9113 11.6616C17.0054 11.8222 16.9663 12.1626 16.9894 12.3813C17.0131 12.6061 17.058 12.8615 17.1388 13.0229C17.177 13.099 17.2654 13.2216 17.381 13.2299C17.6264 13.2467 17.8417 12.9045 17.9376 12.7524C18.0778 12.53 18.1797 12.2917 18.2863 12.0678C18.4525 11.7185 18.6163 11.3821 18.8204 11.0561C18.8995 10.9298 18.9877 10.773 19.1417 10.7504ZM9.50697 4.12934C10.3823 4.02117 11.2652 4.1606 11.8869 4.45649C12.397 4.69939 12.814 5.0827 13.0773 5.50434C13.3669 5.96821 13.5538 6.58615 13.4904 7.30708C13.4309 7.98218 13.2201 8.51557 12.9562 9.0102C12.7029 9.48482 12.3878 9.9295 12.0578 10.3579C11.1588 11.5248 10.1244 12.5028 8.84388 13.3012C8.70206 13.3896 8.54532 13.4566 8.50209 13.6C8.47204 13.7001 8.48744 13.8543 8.48744 13.9926C8.48742 14.1321 8.48061 14.2543 8.4806 14.3911C8.4806 14.7715 8.41155 15.2078 8.60853 15.353C8.6987 15.419 8.83917 15.4651 8.95814 15.5239C10.453 16.2632 11.955 17.0007 13.462 17.726C13.7445 17.8621 14.1692 17.978 14.0958 18.3891C14.06 18.59 13.9478 18.7695 13.8322 18.9448C13.7255 19.1062 13.5969 19.2857 13.3693 19.2944C13.1235 19.3035 12.9203 19.1529 12.7355 19.0659C11.4659 18.4688 10.2648 17.853 8.98646 17.2563C8.88492 17.209 8.7674 17.1329 8.67982 17.1352C8.41014 17.1427 8.43763 17.4645 8.43763 17.7407C8.43763 18.2373 8.44448 18.6561 8.23841 18.9526C7.96956 19.3392 7.53495 19.4638 6.99818 19.5932C7.00401 18.772 7.04114 18.0637 7.04115 17.228C7.04115 16.9783 7.08405 16.7027 7.03431 16.4653C6.9844 16.2273 6.83006 16.1673 6.59974 16.0659C6.11748 15.8537 5.68127 15.6312 5.19545 15.3959C5.04011 15.3207 4.85369 15.272 4.85365 15.061C4.85365 14.833 5.10763 14.737 5.26673 14.6479C5.78464 14.3578 6.2991 14.0718 6.82045 13.7778C6.93544 13.7131 7.0209 13.6803 7.06263 13.5717C7.10234 13.4683 7.08949 13.3259 7.09095 13.187C7.10687 11.6686 7.15541 10.2414 7.15541 8.72505C7.15541 8.4604 7.16066 8.18137 7.16908 7.91352C7.17959 7.57923 7.13123 7.16914 7.29798 6.98677C7.42487 6.84803 7.56719 6.78434 7.76088 6.68696C8.02381 6.55473 8.52789 6.25145 8.63002 6.71626C8.67254 6.91008 8.64276 7.18742 8.63783 7.43598C8.61354 8.66523 8.56472 9.87303 8.55189 11.0991C8.54957 11.319 8.54186 11.5793 8.53041 11.8256C8.51847 12.0816 8.48845 12.4322 8.70131 12.4526C8.88912 12.4703 9.17424 12.2406 9.2931 12.1538C9.80821 11.7774 10.2936 11.3368 10.7042 10.892C11.2663 10.283 11.8527 9.67422 12.172 8.79634C12.325 8.37554 12.4503 7.86507 12.4503 7.29341C12.4503 6.69569 12.3221 6.26826 12.0363 5.92524C11.7559 5.58881 11.3703 5.42732 10.8322 5.34809C10.3171 5.27227 9.72284 5.3051 9.20716 5.41157C8.73665 5.50879 8.29509 5.67634 7.87513 5.86079C5.79272 6.77535 3.87051 7.76483 2.12416 9.01802C1.53198 9.44292 0.926094 9.88767 0.421032 10.4291C0.353261 10.5019 0.241585 10.6206 0.142711 10.6069C0.0206801 10.5897 -0.00201048 10.3897 0.000133321 10.2368C0.00779364 9.70636 0.0120744 9.18517 0.12904 8.80415C0.294139 8.26651 0.628912 7.91273 1.03334 7.62837C1.44384 7.33975 1.88561 7.08608 2.32338 6.83735C3.65144 6.08284 5.06704 5.43104 6.62025 4.88423C7.39945 4.60994 8.19454 4.37178 9.05775 4.20063C9.20687 4.17106 9.3534 4.14835 9.50697 4.12934ZM28.7052 0.00239081C29.2401 -0.0229743 29.5772 0.155772 29.8517 0.430125C30.3381 0.916624 30.6991 1.82583 30.5216 2.79634C30.44 3.24237 30.2712 3.60506 30.087 3.92915C29.5047 4.95454 28.6601 5.66081 27.7501 6.3022C27.5955 6.41123 27.4559 6.50988 27.2863 6.62348C27.1258 6.73091 26.9477 6.82668 26.8595 6.97993C26.6654 7.31739 27.0532 7.62457 27.2365 7.79145C27.7562 8.26483 28.2498 8.62694 28.8263 9.04634C29.1884 9.30976 29.4873 9.6754 29.5529 10.2153C29.5884 10.5081 29.5346 10.7879 29.4386 11.02C29.2536 11.4676 28.9269 11.7681 28.6193 12.0961C27.8662 12.8991 27.1073 13.7519 26.4171 14.6333C26.219 14.8863 26.0099 15.177 25.8331 15.4741C25.7709 15.5785 25.7141 15.6807 25.6329 15.7456C25.5848 15.784 25.5114 15.8403 25.3908 15.8168C25.2407 15.7875 25.1564 15.5962 25.0919 15.4819C24.9017 15.1446 24.5808 14.5274 24.8136 14.02C24.8757 13.8849 24.9739 13.7791 25.0851 13.6567C25.1874 13.5441 25.3025 13.4324 25.3986 13.3364C25.6118 13.123 25.8247 12.8912 26.0109 12.6879C26.4003 12.2625 26.7861 11.8151 27.1652 11.3129C27.3378 11.0842 27.5142 10.8271 27.6574 10.5424C27.8013 10.2558 27.8678 9.859 27.714 9.52388C27.5816 9.23555 27.3654 9.0475 27.1437 8.82563C26.9348 8.61665 26.725 8.37242 26.5451 8.16255C26.342 7.92606 26.1317 7.72978 26.0753 7.3647C26.0169 6.98561 26.2287 6.6728 26.4171 6.45942C27.2074 5.56452 28.0615 4.76702 28.5978 3.58735C28.828 3.08096 29.0503 2.14994 28.7833 1.48481C28.6617 1.18183 28.4514 0.966307 28.1349 0.864695C27.7586 0.743902 27.4086 0.898296 27.1798 1.08638C26.7495 1.44028 26.4306 2.07897 26.2247 2.66059C25.9978 3.30203 25.8873 3.99281 25.7902 4.74946C25.689 5.53928 25.7006 6.33874 25.6622 7.15083C25.6429 7.55956 25.6339 7.97096 25.6339 8.38325C25.6339 9.22886 25.6046 10.0143 25.6046 10.8852C25.6046 11.2836 25.6385 11.7709 25.5548 12.0961C25.4312 12.5761 25.0449 12.8418 24.6212 13.0581C24.5065 13.1168 24.1167 13.3026 24.0158 13.101C23.9578 12.9845 24.037 12.7648 24.0656 12.6313C24.1024 12.4594 24.1111 12.2795 24.1232 12.1323C24.2646 10.4013 24.201 8.51944 24.2863 6.72993C24.3206 6.00959 24.3484 5.3091 24.4435 4.66352C24.537 4.02951 24.6938 3.46776 24.9562 2.94575C25.2043 2.45245 25.4578 1.96039 25.7902 1.5561C26.1182 1.15715 26.5127 0.808585 26.9943 0.529735C27.4619 0.259048 28.0498 0.0337471 28.7052 0.00239081ZM13.1339 13.2719C13.0808 13.2804 13.0278 13.2991 12.9845 13.3217C12.7228 13.4591 12.4549 13.7597 12.2931 14.0415C12.2161 14.1754 12.1476 14.3388 12.0861 14.5405C12.0418 14.6856 11.9426 15.0261 12.0656 15.1176C12.2269 15.2375 12.4852 15.0006 12.5783 14.9038C12.828 14.6436 13.0363 14.2856 13.2052 13.9497C13.2873 13.7863 13.5284 13.2087 13.1339 13.2719ZM21.7999 10.2299C22.2849 10.1921 22.7018 10.4047 22.7404 10.8422C22.7633 11.103 22.6546 11.3429 22.548 11.4975C22.3302 11.8133 21.9678 12.0687 21.507 12.1538C20.8984 12.2658 20.3254 11.9898 20.4318 11.3481C20.4863 11.0183 20.7071 10.7667 20.9161 10.5922C21.1402 10.4054 21.4224 10.2591 21.7999 10.2299ZM37.9337 6.70845C38.0777 6.6936 38.2232 6.77261 38.3048 6.86567C38.5061 7.09538 38.5571 7.45702 38.6398 7.81294C38.7229 8.17092 38.7923 8.54636 38.9533 8.78266C39.0431 8.91445 39.2182 9.06301 39.4308 9.0395C39.5663 9.02427 39.6667 8.82806 39.8009 8.86763C39.908 8.89934 39.8758 9.0764 39.8507 9.14595C39.7708 9.36741 39.5179 9.64284 39.3595 9.80122C39.2415 9.91916 39.1051 10.0315 38.9103 10.1157C38.738 10.1899 38.4909 10.2507 38.2755 10.1577C37.9267 10.0066 37.7921 9.55559 37.6915 9.15278C37.6435 8.96018 37.5935 8.55877 37.3351 8.5688C37.1307 8.57678 37.0382 8.90347 36.9435 9.08149C36.7158 9.50886 36.5504 9.84013 36.2521 10.2006C36.1129 10.3689 35.9514 10.536 35.7677 10.6137C35.4081 10.7652 35.2255 10.5015 35.1613 10.1791C35.1341 10.0425 35.1337 9.91447 35.0333 9.9018C34.8746 9.88182 34.7615 10.1647 34.6915 10.2788C34.593 10.4388 34.4989 10.5713 34.3986 10.6997C34.2031 10.9493 33.9198 11.2499 33.4728 11.1909C33.2593 11.1626 33.0805 10.9379 32.9806 10.7709C32.9328 10.6909 32.8937 10.5973 32.8458 10.4858C32.8097 10.4019 32.7665 10.2351 32.6886 10.2221C32.5905 10.2056 32.5064 10.3936 32.4464 10.4711C32.3671 10.5735 32.2891 10.6622 32.2179 10.7426C31.8812 11.1225 31.6425 11.4395 31.2208 11.7475C31.0193 11.8949 30.6371 12.1533 30.3224 11.975C29.9449 11.7608 29.9659 11.1378 30.087 10.6499C30.2029 10.183 30.3829 9.79854 30.6144 9.45259C30.841 9.11426 31.1228 8.78519 31.4415 8.55513C31.6706 8.38985 31.9818 8.18845 32.3536 8.16938C32.4785 8.16297 32.6115 8.20598 32.7453 8.16255C32.8366 8.13279 32.8838 8.0543 32.9454 7.98481C33.043 7.87459 33.2501 7.69002 33.4943 7.78462C33.8255 7.91315 33.7792 8.4563 33.8292 8.89692C33.8456 9.04128 33.8709 9.22342 33.9142 9.36665C33.9559 9.50461 34.0454 9.67167 34.1495 9.68794C34.2596 9.7052 34.3794 9.62571 34.4484 9.56684C34.6257 9.41488 34.7407 9.19485 34.8546 8.96821C35.0737 8.53249 35.2304 8.00748 35.4894 7.60005C35.6034 7.42076 35.7897 7.15285 36.0099 7.12251C36.2806 7.08552 36.4309 7.34493 36.4513 7.57856C36.467 7.76236 36.3163 8.30025 36.5226 8.34809C36.7049 8.39036 36.8475 8.16337 36.922 8.04829C37.119 7.74395 37.2566 7.49013 37.4494 7.17915C37.5692 6.98562 37.665 6.73636 37.9337 6.70845ZM32.3966 9.02485C32.2083 9.05298 32.0445 9.21299 31.9191 9.33833C31.6757 9.58164 31.5204 9.81295 31.3771 10.1655C31.3262 10.2906 31.2095 10.6074 31.3341 10.6928C31.3866 10.7287 31.5358 10.7141 31.6056 10.685C31.7433 10.6275 31.8635 10.4841 31.9542 10.3715C32.0475 10.2559 32.1362 10.1268 32.2257 9.97993C32.3032 9.85258 32.3916 9.71809 32.4747 9.56684C32.5609 9.41015 32.749 8.97254 32.3966 9.02485Z" fill="white"/>
</svg>
