<svg width="60" height="31" viewBox="0 0 60 31" fill="none" xmlns="http://www.w3.org/2000/svg">
<path d="M28.7776 16.1618C28.9038 16.1427 29.0724 16.2033 29.1311 16.365C29.1974 16.5475 29.1465 17.0026 29.1418 17.2009C29.0936 19.2135 29.0908 21.0883 29.0344 23.115C28.9799 25.071 28.9821 27.0458 28.927 29.029C28.9138 29.5039 28.9909 29.9223 28.6487 30.0359C28.4766 30.0929 28.1517 30.0573 27.8879 30.0573C27.5697 30.0574 27.2222 30.1007 27.0842 29.9821C26.9078 29.8302 26.9704 29.2685 26.9778 28.9001C27.0011 27.7173 27.0157 26.5009 27.052 25.3425C27.0786 24.4935 27.0949 23.7861 27.0949 22.9646C27.0949 22.5907 27.1164 22.186 27.1164 21.7751C27.1165 21.4104 27.1966 20.843 26.8811 20.8318C26.7105 20.8259 26.6074 21.0331 26.5168 21.1755C26.2529 21.5901 25.9486 22.0377 25.5315 22.2898C25.3716 22.3864 25.1854 22.469 24.9416 22.3855C24.5603 22.2548 24.3367 21.843 24.2024 21.4431C24.1569 21.3074 24.1237 21.1047 23.9992 21.0896C23.8623 21.0734 23.7474 21.254 23.6779 21.3786C23.3159 22.0282 22.9248 22.6184 22.3274 23.028C22.0938 23.1884 21.7023 23.3821 21.3635 23.2859C21.0788 23.2048 20.8518 22.9036 20.7102 22.6638C20.643 22.5498 20.5594 22.4002 20.4953 22.2458C20.4339 22.0975 20.394 21.8517 20.2707 21.8386C20.1704 21.8281 20.0677 21.9985 20.0246 22.0642C19.8437 22.3397 19.5958 22.5793 19.3918 22.8142C19.0912 23.1601 18.8442 23.4436 18.4602 23.7243C18.1164 23.9754 17.6847 24.2884 17.1418 24.2605C16.6554 24.2352 16.3307 23.8373 16.2317 23.3278C16.123 22.7687 16.2587 22.1583 16.4026 21.7107C16.6771 20.8567 17.2329 20.0118 17.8488 19.4714C18.1804 19.1805 18.5748 18.9113 19.1565 18.9353C19.442 18.947 19.6427 19.0664 19.9172 18.9568C20.1243 18.874 20.1903 18.6276 20.4094 18.4958C20.6067 18.3774 21.0794 18.2208 21.385 18.3679C21.488 18.4176 21.6055 18.5366 21.6633 18.6462C21.7611 18.832 21.7601 19.0784 21.8029 19.3425C21.8775 19.8015 22.0031 20.2167 22.2102 20.6071C22.312 20.7991 22.4682 21.0009 22.6487 21.0144C22.9467 21.0364 23.1901 20.7066 23.3352 20.489C23.7329 19.8925 23.9979 19.1266 24.2131 18.3679C24.3178 17.9984 24.3677 17.7251 24.6526 17.5105C24.8809 17.3382 25.2529 17.24 25.424 17.532C25.5655 17.7735 25.5075 18.2853 25.5422 18.614C25.5779 18.9519 25.6453 19.3353 25.7668 19.5778C25.8242 19.6924 25.957 19.8771 26.1311 19.8894C26.4999 19.9146 26.8228 19.3993 26.967 19.1706C27.1776 18.8364 27.3313 18.4787 27.4914 18.1423C27.7414 17.617 27.9881 17.1111 28.2951 16.6208C28.4139 16.431 28.546 16.1958 28.7776 16.1618ZM14.2922 6.20676C15.6083 6.0441 16.9357 6.25504 17.8703 6.69992C18.6373 7.06507 19.2636 7.64124 19.6594 8.27512C20.0948 8.97249 20.3768 9.9012 20.2815 10.9851C20.1921 12.0001 19.8745 12.8019 19.4778 13.5456C19.097 14.2591 18.6243 14.9271 18.1281 15.571C16.7766 17.3255 15.2214 18.7955 13.2961 19.9958C13.0827 20.1288 12.8465 20.2301 12.7815 20.446C12.7364 20.5963 12.7599 20.827 12.76 21.0349C12.76 21.245 12.7492 21.4295 12.7492 21.6355C12.7492 22.2077 12.6457 22.864 12.9426 23.0818C13.0782 23.181 13.2882 23.2503 13.467 23.3386C15.7145 24.4501 17.9727 25.5587 20.2385 26.6491C20.6631 26.8536 21.3016 27.0275 21.1916 27.6452C21.1377 27.9473 20.9691 28.2177 20.7951 28.4812C20.6348 28.7239 20.441 28.9935 20.0988 29.0066C19.7294 29.0201 19.4235 28.7946 19.1457 28.6638C17.237 27.7661 15.4319 26.8391 13.51 25.9421C13.3573 25.8709 13.1807 25.757 13.049 25.7605C12.6435 25.7716 12.6848 26.2554 12.6848 26.6706C12.6848 27.4173 12.6948 28.0462 12.385 28.4919C11.9808 29.0735 11.3279 29.2621 10.5207 29.4568C10.5295 28.2218 10.5852 27.156 10.5852 25.8991C10.5852 25.5236 10.6494 25.1097 10.5744 24.7527C10.4993 24.3948 10.2676 24.3056 9.92111 24.153C9.19609 23.8341 8.54113 23.4989 7.81076 23.1452C7.57727 23.0321 7.29628 22.9594 7.29611 22.6423C7.29611 22.2995 7.67802 22.1541 7.91721 22.0202C8.69581 21.5841 9.46936 21.1556 10.2531 20.7136C10.4263 20.6162 10.5546 20.5665 10.6174 20.403C10.6771 20.2474 10.6581 20.033 10.6604 19.8239C10.6843 17.5415 10.757 15.3972 10.757 13.1179C10.757 12.7196 10.7659 12.2993 10.7785 11.8962C10.7943 11.3938 10.7205 10.7779 10.9709 10.5036C11.1617 10.295 11.3761 10.1998 11.6672 10.0534C12.0625 9.85469 12.8213 9.39751 12.9748 10.0964C13.0388 10.3878 12.993 10.8047 12.9856 11.1784C12.949 13.0266 12.8759 14.8419 12.8567 16.6853C12.8532 17.016 12.8417 17.4075 12.8244 17.778C12.8065 18.1629 12.7612 18.6899 13.0813 18.7204C13.3637 18.7471 13.7923 18.4017 13.9709 18.2712C14.7453 17.7054 15.4748 17.0434 16.092 16.3747C16.9371 15.4591 17.819 14.5442 18.299 13.2243C18.5292 12.5916 18.717 11.8234 18.717 10.9636C18.7169 10.0653 18.5255 9.42254 18.0959 8.90695C17.6745 8.40123 17.0943 8.1579 16.2854 8.03879C15.511 7.92477 14.6173 7.97539 13.842 8.13547C13.1346 8.2816 12.4705 8.53296 11.8391 8.81027C8.70837 10.1852 5.81808 11.6724 3.1926 13.5564C2.30228 14.1952 1.39139 14.8644 0.632049 15.6784C0.530155 15.7877 0.362704 15.9666 0.21408 15.946C0.0303555 15.9202 -0.00308857 15.6185 0.00021315 15.3884C0.0117269 14.5911 0.0167386 13.8078 0.192596 13.2351C0.44091 12.4267 0.945698 11.895 1.55392 11.4675C2.17109 11.0336 2.83427 10.652 3.4924 10.278C5.48919 9.14363 7.618 8.1646 9.95334 7.3425C11.1248 6.93014 12.3196 6.57147 13.6174 6.31418C13.8415 6.26973 14.0614 6.23532 14.2922 6.20676ZM43.1545 0.00363108C43.9592 -0.0346681 44.4673 0.233422 44.8801 0.646209C45.6113 1.3776 46.1537 2.74478 45.8869 4.20383C45.7642 4.87432 45.5105 5.41975 45.2336 5.90695C44.3579 7.44867 43.0871 8.51 41.719 9.47433C41.4865 9.63824 41.2776 9.78597 41.0227 9.95676C40.7813 10.1184 40.5128 10.2623 40.3801 10.4929C40.0883 11.0004 40.672 11.4628 40.9475 11.7136C41.7288 12.4252 42.4705 12.9689 43.3371 13.5993C43.8816 13.9953 44.3311 14.5446 44.4299 15.3562C44.4835 15.7967 44.4024 16.218 44.258 16.5671C43.9799 17.2402 43.4891 17.692 43.0266 18.1853C41.8944 19.3924 40.7537 20.6748 39.716 21.9997C39.4181 22.3802 39.1029 22.8167 38.8371 23.2634C38.7436 23.4203 38.6594 23.5731 38.5373 23.6706C38.465 23.7285 38.355 23.8134 38.1731 23.778C37.9469 23.7342 37.8199 23.4461 37.7229 23.2741C37.4369 22.767 36.9551 21.8406 37.3049 21.0778C37.3981 20.8747 37.545 20.7159 37.7121 20.532C37.866 20.3625 38.0393 20.1941 38.1838 20.0495C38.5045 19.7287 38.8246 19.3796 39.1047 19.0739C39.6904 18.4342 40.271 17.7618 40.841 17.0066C41.1005 16.6627 41.3652 16.2772 41.5803 15.8493C41.7968 15.4184 41.8965 14.821 41.6653 14.3171C41.4662 13.8839 41.142 13.6007 40.8088 13.2673C40.4947 12.9531 40.179 12.5867 39.9084 12.2712C39.603 11.9154 39.286 11.6204 39.2014 11.071C39.1136 10.5011 39.4328 10.0314 39.716 9.71066C40.904 8.36538 42.1882 7.16659 42.9944 5.39328C43.3405 4.63197 43.674 3.2321 43.2727 2.23215C43.0898 1.77666 42.7738 1.45331 42.2981 1.30051C41.7325 1.11894 41.2064 1.34985 40.8625 1.63254C40.2154 2.16462 39.7355 3.12517 39.426 3.99972C39.0848 4.96406 38.9187 6.00184 38.7727 7.13937C38.6206 8.32693 38.638 9.5287 38.5803 10.7497C38.5512 11.3644 38.5373 11.9832 38.5373 12.6032C38.5373 13.8745 38.4944 15.0547 38.4944 16.364C38.4944 16.9631 38.5451 17.6962 38.4192 18.1853C38.2332 18.9067 37.6528 19.3064 37.0158 19.6316C36.8434 19.7199 36.2577 19.9986 36.1057 19.696C36.0183 19.5209 36.1371 19.1897 36.1799 18.989C36.2352 18.7306 36.2477 18.4603 36.2658 18.239C36.4784 15.6367 36.3847 12.8082 36.5129 10.1179C36.5645 9.03481 36.6053 7.98114 36.7483 7.01047C36.8889 6.0574 37.1252 5.21315 37.5197 4.42844C37.8928 3.68685 38.274 2.94734 38.7737 2.33957C39.2668 1.73975 39.8601 1.21583 40.5842 0.7966C41.287 0.389784 42.1694 0.0508512 43.1545 0.00363108ZM19.7453 19.9528C19.6654 19.9656 19.5858 19.9939 19.5207 20.028C19.1271 20.2346 18.725 20.6864 18.4817 21.1101C18.3659 21.3115 18.2637 21.5569 18.1711 21.8601C18.1046 22.0783 17.9541 22.5907 18.1389 22.7282C18.3814 22.9079 18.7705 22.5515 18.9104 22.406C19.286 22.0147 19.5988 21.4756 19.8528 20.9704C19.9764 20.7245 20.3381 19.8578 19.7453 19.9528ZM32.7737 15.3786C33.5028 15.3216 34.1296 15.6418 34.1877 16.2995C34.2223 16.6919 34.059 17.0534 33.8987 17.2859C33.5712 17.7606 33.027 18.1434 32.3342 18.2712C31.4191 18.4399 30.5571 18.0253 30.717 17.0603C30.799 16.5645 31.1312 16.1869 31.4455 15.9245C31.7823 15.6436 32.206 15.4225 32.7737 15.3786ZM57.0305 10.0857C57.2467 10.0635 57.4644 10.1813 57.5871 10.321C57.89 10.6664 57.9667 11.2105 58.091 11.7458C58.216 12.284 58.3208 12.8476 58.5627 13.2028C58.6977 13.4011 58.9608 13.6239 59.2805 13.5886C59.4843 13.5657 59.6352 13.272 59.8371 13.3318C59.9981 13.3794 59.9501 13.6452 59.9123 13.7497C59.7921 14.0829 59.4112 14.497 59.1731 14.7351C58.9956 14.9123 58.7911 15.0802 58.4983 15.2068C58.2392 15.3184 57.8681 15.4111 57.5442 15.2712C57.0194 15.0443 56.8165 14.3662 56.6653 13.7605C56.5929 13.4711 56.5187 12.8667 56.1301 12.8816C55.8224 12.8935 55.6827 13.3856 55.5403 13.653C55.1979 14.2957 54.9499 14.7935 54.5012 15.3357C54.2918 15.5888 54.0491 15.8401 53.7727 15.9568C53.2322 16.1844 52.9591 15.788 52.8625 15.3034C52.8215 15.0977 52.8202 14.9045 52.6692 14.8855C52.4306 14.8557 52.2607 15.2815 52.1555 15.4528C52.0073 15.6935 51.8669 15.8926 51.716 16.0857C51.422 16.4611 50.9948 16.9138 50.3225 16.8249C50.0016 16.7823 49.7334 16.443 49.5832 16.1921C49.5115 16.0718 49.4521 15.931 49.3801 15.7634C49.3258 15.6374 49.2613 15.3881 49.1447 15.3679C48.997 15.3431 48.8707 15.6266 48.7805 15.7429C48.6613 15.8967 48.5438 16.0292 48.4367 16.1501C47.9305 16.7212 47.5716 17.1978 46.9377 17.6609C46.6348 17.8825 46.0603 18.2716 45.5871 18.0036C45.0189 17.6819 45.0515 16.7443 45.2336 16.0105C45.4078 15.3086 45.6785 14.7308 46.0266 14.2107C46.3673 13.7019 46.7905 13.2069 47.2697 12.8611C47.6142 12.6126 48.0819 12.3106 48.6408 12.282C48.8285 12.2723 49.0286 12.3366 49.2297 12.2712C49.367 12.2265 49.437 12.108 49.5295 12.0036C49.6762 11.8379 49.9876 11.5617 50.3547 11.7038C50.8529 11.8968 50.7834 12.7122 50.8586 13.3747C50.8832 13.592 50.9224 13.8663 50.9875 14.0818C51.0502 14.2892 51.1845 14.5397 51.341 14.5642C51.5067 14.59 51.6868 14.4701 51.7903 14.3816C52.0569 14.153 52.2302 13.823 52.4016 13.4821C52.731 12.827 52.9653 12.0371 53.3547 11.4245C53.5261 11.155 53.806 10.7524 54.1369 10.7068C54.5443 10.6507 54.7703 11.0419 54.801 11.3933C54.8245 11.6697 54.5983 12.4776 54.9084 12.5495C55.1823 12.6131 55.3959 12.2735 55.508 12.1003C55.8044 11.6425 56.011 11.2604 56.301 10.7927C56.4813 10.5016 56.6262 10.1275 57.0305 10.0857ZM48.7053 13.5681C48.422 13.6104 48.1752 13.8503 47.9865 14.0388C47.6207 14.4045 47.3886 14.752 47.1731 15.282C47.0966 15.4698 46.9208 15.9466 47.1086 16.0749C47.1877 16.1287 47.411 16.1079 47.5158 16.0642C47.723 15.9778 47.9047 15.7618 48.0412 15.5925C48.1813 15.4188 48.3131 15.2242 48.4475 15.0036C48.564 14.812 48.6974 14.6091 48.8225 14.3816C48.952 14.1459 49.2351 13.4894 48.7053 13.5681Z" fill="white"/>
</svg>
