<svg width="54" height="20" viewBox="0 0 54 20" fill="none" xmlns="http://www.w3.org/2000/svg">
<g clip-path="url(#clip0_2001_1231)">
<path d="M0.987305 16.7499H1.40965V18.0104H3.0287V16.7499H3.43701V19.6911H3.0287V18.3466H1.40965V19.6911H0.987305V16.7499Z" fill="white"/>
<path d="M9.98316 18.6267C9.98316 19.369 9.53261 19.7611 8.75828 19.7611C7.96988 19.7611 7.49121 19.411 7.49121 18.6267V16.7499H7.91355V18.6267C7.91355 19.1449 8.22329 19.439 8.75828 19.439C9.27919 19.439 9.57485 19.1449 9.57485 18.6267V16.7499H9.98316V18.6267Z" fill="white"/>
<path d="M15.0939 19.7751C14.1647 19.8311 13.6016 19.0468 13.6016 18.2765C13.6016 17.4222 14.0943 16.6799 15.0798 16.6799C15.7556 16.6799 16.2906 16.96 16.4032 17.6603H15.9949C15.9105 17.2121 15.5303 17.002 15.0798 17.002C14.3196 17.002 14.0098 17.6323 14.0098 18.2625C14.0098 18.8788 14.404 19.467 15.1502 19.453C15.5303 19.439 15.84 19.3689 15.9949 19.1168C16.1075 18.9628 16.0794 18.6827 16.0653 18.4726H15.0798V18.1365H16.4314C16.4314 18.1365 16.4314 18.9068 16.4314 19.2429C16.0794 19.6771 15.657 19.7471 15.0939 19.7751Z" fill="white"/>
<path d="M21.4851 19.439C22.2313 19.439 22.5551 18.8087 22.5551 18.2205C22.5551 17.6323 22.2313 17.002 21.4851 17.002C20.7249 17.002 20.4151 17.6323 20.4151 18.2205C20.4151 18.8087 20.7249 19.439 21.4851 19.439ZM21.4851 16.6799C22.4706 16.6799 22.9634 17.4222 22.9634 18.2205C22.9634 19.0188 22.4706 19.7611 21.4851 19.7611C20.4996 19.7611 20.0068 19.0188 20.0068 18.2205C20.0068 17.4222 20.4996 16.6799 21.4851 16.6799Z" fill="white"/>
<path d="M31.2559 18.0104H32.0725C32.5371 18.0104 32.7342 17.8564 32.7342 17.5482C32.7342 17.1421 32.4385 17.0721 32.0725 17.0721H31.2559V18.0104ZM31.2559 19.3689H32.2837C32.6356 19.3689 32.8609 19.1589 32.8609 18.8367C32.8609 18.4586 32.5371 18.3466 32.1851 18.3466H31.2559V19.3689ZM30.8477 16.7499H31.9599C32.2415 16.7499 32.5934 16.7499 32.7764 16.848C32.9876 16.974 33.1425 17.1841 33.1425 17.4642C33.1425 17.7863 32.9735 18.0244 32.692 18.1365C33.0721 18.2065 33.2833 18.4866 33.2833 18.8507C33.2833 19.2849 32.9454 19.6911 32.34 19.6911H30.8477V16.7499Z" fill="white"/>
<path d="M38.4499 19.439C39.2102 19.439 39.5199 18.8087 39.5199 18.2205C39.5199 17.6323 39.2102 17.002 38.4499 17.002C37.7038 17.002 37.3799 17.6323 37.3799 18.2205C37.3799 18.8087 37.7038 19.439 38.4499 19.439ZM38.4499 16.6799C39.4354 16.6799 39.9423 17.4222 39.9423 18.2205C39.9423 19.0188 39.4354 19.7611 38.4499 19.7611C37.4644 19.7611 36.9717 19.0188 36.9717 18.2205C36.9717 17.4222 37.4644 16.6799 38.4499 16.6799Z" fill="white"/>
<path d="M45.6161 17.6183C45.5739 17.1841 45.2782 17.002 44.8559 17.002C44.5039 17.002 44.166 17.1281 44.166 17.5062C44.166 17.8704 44.6588 17.9264 45.1515 18.0384C45.6443 18.1365 46.137 18.3045 46.137 18.8928C46.137 19.509 45.4894 19.7611 44.9263 19.7611C44.2364 19.7611 43.6592 19.439 43.6592 18.7247H44.0393C44.0393 19.2149 44.4757 19.439 44.9403 19.439C45.3205 19.439 45.7287 19.3269 45.7287 18.8928C45.7287 18.4866 45.236 18.4306 44.7432 18.3185C44.2505 18.2205 43.7437 18.0804 43.7437 17.5342C43.7437 16.946 44.3068 16.6799 44.8699 16.6799C45.5035 16.6799 45.9822 16.96 46.0103 17.6183H45.6161Z" fill="white"/>
<path d="M52.2893 17.6183C52.233 17.1841 51.9374 17.002 51.515 17.002C51.1771 17.002 50.8252 17.1281 50.8252 17.5062C50.8252 17.8704 51.3179 17.9264 51.8248 18.0384C52.3175 18.1365 52.8103 18.3045 52.8103 18.8928C52.8103 19.509 52.1627 19.7611 51.5995 19.7611C50.9096 19.7611 50.3184 19.439 50.3184 18.7247H50.7125C50.7125 19.2149 51.149 19.439 51.6136 19.439C51.9796 19.439 52.402 19.3269 52.402 18.8928C52.402 18.4866 51.8952 18.4306 51.4024 18.3185C50.9096 18.2205 50.4169 18.0804 50.4169 17.5342C50.4169 16.946 50.966 16.6799 51.5432 16.6799C52.1627 16.6799 52.6554 16.96 52.6695 17.6183H52.2893Z" fill="white"/>
<path d="M4.61913 1.20392V6.49797H6.54793C6.54793 6.49797 6.71686 6.48396 6.81542 6.45595C7.94168 6.35791 8.65973 5.01339 8.73009 4.03301C8.84274 2.98261 8.1951 1.24593 6.57609 1.20392C6.09738 1.18991 4.61913 1.20392 4.61913 1.20392ZM4.61913 7.1142V13.4587H6.36487C6.36487 13.4587 7.35041 13.5287 8.23734 12.8144C9.11023 12.1141 9.56074 11.0777 9.46222 9.88728C9.39181 8.82287 8.57524 7.31028 6.74502 7.1142C5.7736 7.1142 4.61913 7.1142 4.61913 7.1142ZM8.73009 0.587677C10.1802 0.671711 11.1235 1.44201 11.208 1.54005C11.9541 2.22631 12.1794 3.26271 11.9964 4.2571C11.757 5.92374 9.67339 6.62401 9.67339 6.62401C11.4191 6.83409 12.7284 8.1366 12.9255 9.53714C13.0945 10.9097 12.5877 12.1281 11.4473 12.9825C10.2928 13.8368 8.6034 14.1169 7.68827 14.1169C7.68827 14.1169 0.62078 14.1169 0.226599 14.1169C0.226599 13.8928 0.226599 13.7248 0.226599 13.5287C1.18393 13.5427 1.29658 13.5427 1.29658 13.1645C1.2825 11.736 1.29658 1.76413 1.29658 1.49803C1.29658 1.18991 1.14169 1.17591 0.226599 1.17591C0.212518 0.937814 0.24068 0.587677 0.24068 0.587677H8.73009Z" fill="white"/>
<path d="M20.2462 1.31595C19.317 1.93219 18.6694 3.34675 18.3597 4.5232C17.8669 6.30189 17.9655 8.4027 18.4582 10.5595C18.9651 12.7164 20.3589 13.4727 21.1895 13.6547C22.7382 14.0049 23.7518 13.1085 24.3009 12.2822C25.3709 10.6716 25.6384 7.35229 25.3005 5.44756C24.9907 3.68287 24.5121 2.4504 23.5829 1.62408C22.5411 0.713724 21.0487 0.783751 20.2462 1.31595ZM28.5949 9.6912C27.9473 11.6099 26.652 12.8144 25.1597 13.5987C23.2027 14.6491 20.4011 14.8172 18.4441 13.6547C17.2334 12.9405 14.1502 11.0357 14.5584 6.53998C14.6429 5.5736 15.1357 3.15067 17.8529 1.32996C19.7112 0.125496 22.3862 -0.224639 24.8781 0.923806C28.7638 2.68849 29.5804 7.04418 28.5949 9.6912Z" fill="white"/>
<path d="M40.0127 1.21792C40.0268 2.22631 40.0127 4.31312 40.0127 4.31312L39.52 4.32713C39.2243 3.02462 38.5908 1.90419 37.5067 1.38599C36.4649 0.881789 34.8881 0.629696 33.8603 1.52604C33.255 2.05825 33.1705 2.60446 33.3817 3.22069C33.7477 4.13105 34.7614 4.41116 35.5498 4.76129C36.1974 5.01339 37.5771 5.46157 37.5771 5.46157C39.1117 5.99377 40.8152 7.03017 41.2798 8.75284C41.491 9.49512 41.491 10.3355 41.322 11.0917C40.9419 12.7724 39.8579 13.1786 39.2384 13.5987C38.9287 13.8088 36.0285 14.9152 32.537 13.7808C31.8189 13.5427 30.9883 13.2626 30.9883 13.2626V9.49512C30.9883 9.49512 31.3684 9.50913 31.5233 9.50913C31.7626 10.1114 31.9738 10.8396 32.4807 11.5679C33.6632 13.2766 35.3386 13.7948 37.1829 13.4026C37.915 13.2346 38.7175 12.7304 38.9287 11.9741C39.1962 11.1198 39.1117 9.70521 36.5212 8.75284C34.6487 7.89851 32.2976 7.54837 31.1854 5.47557C30.7489 4.31312 30.8757 2.29634 32.3117 1.31596C33.7618 0.335578 35.1696 0.111493 36.8732 0.335578C38.5626 0.573671 39.0131 0.797757 40.0127 1.21792Z" fill="white"/>
<path d="M52.3463 1.21792C52.3603 2.22631 52.3463 4.31312 52.3463 4.31312L51.8535 4.32713C51.5578 3.02462 50.9243 1.90419 49.8403 1.38599C48.7984 0.881789 47.2216 0.629696 46.1939 1.52604C45.5885 2.05825 45.504 2.60446 45.7152 3.22069C46.0812 4.13105 47.0949 4.41116 47.8833 4.76129C48.531 5.01339 49.9106 5.46157 49.9106 5.46157C51.4452 5.99377 53.1487 7.03017 53.6133 8.75284C53.8245 9.49512 53.8245 10.3355 53.6556 11.0917C53.2754 12.7724 52.1914 13.1786 51.5719 13.5987C51.2622 13.8088 48.362 14.9152 44.8705 13.7808C44.1525 13.5427 43.3218 13.2626 43.3218 13.2626V9.49512C43.3218 9.49512 43.7019 9.50913 43.8568 9.50913C44.0961 10.1114 44.3073 10.8396 44.8142 11.5679C45.9968 13.2766 47.6721 13.7948 49.5165 13.4026C50.2485 13.2346 51.051 12.7304 51.2622 11.9741C51.5297 11.1198 51.4452 9.70521 48.8547 8.75284C46.9823 7.89851 44.6311 7.54837 43.5189 5.47557C43.0825 4.31312 43.2092 2.29634 44.6593 1.31596C46.0953 0.335578 47.5032 0.111493 49.1926 0.335578C50.8961 0.573671 51.3467 0.797757 52.3463 1.21792Z" fill="white"/>
</g>
<defs>
<clipPath id="clip0_2001_1231">
<rect width="54" height="20" fill="white"/>
</clipPath>
</defs>
</svg>
